%TF.GenerationSoftware,KiCad,Pcbnew,(5.1.6)-1*%
%TF.CreationDate,2020-12-05T12:07:26+01:00*%
%TF.ProjectId,bose-usb-c,626f7365-2d75-4736-922d-632e6b696361,Rev 1*%
%TF.SameCoordinates,Original*%
%TF.FileFunction,Soldermask,Bot*%
%TF.FilePolarity,Negative*%
%FSLAX46Y46*%
G04 Gerber Fmt 4.6, Leading zero omitted, Abs format (unit mm)*
G04 Created by KiCad (PCBNEW (5.1.6)-1) date 2020-12-05 12:07:26*
%MOMM*%
%LPD*%
G01*
G04 APERTURE LIST*
%ADD10R,0.700000X0.450000*%
%ADD11C,1.600000*%
%ADD12R,0.500000X0.450000*%
%ADD13R,0.400000X0.450000*%
%ADD14C,0.100000*%
G04 APERTURE END LIST*
D10*
%TO.C,D5*%
X79197774Y-60954483D03*
X77197774Y-60304483D03*
X77197774Y-61604483D03*
%TD*%
D11*
%TO.C,H1*%
X68057773Y-72314486D03*
%TD*%
%TO.C,H2*%
X75577773Y-62004487D03*
%TD*%
%TO.C,R13*%
G36*
G01*
X75507369Y-68929263D02*
X75309485Y-68646656D01*
G75*
G02*
X75345707Y-68441228I120825J84603D01*
G01*
X75587357Y-68272023D01*
G75*
G02*
X75792785Y-68308245I84603J-120825D01*
G01*
X75990669Y-68590852D01*
G75*
G02*
X75954447Y-68796280I-120825J-84603D01*
G01*
X75712797Y-68965485D01*
G75*
G02*
X75507369Y-68929263I-84603J120825D01*
G01*
G37*
G36*
G01*
X74712791Y-69485633D02*
X74514907Y-69203026D01*
G75*
G02*
X74551129Y-68997598I120825J84603D01*
G01*
X74792779Y-68828393D01*
G75*
G02*
X74998207Y-68864615I84603J-120825D01*
G01*
X75196091Y-69147222D01*
G75*
G02*
X75159869Y-69352650I-120825J-84603D01*
G01*
X74918219Y-69521855D01*
G75*
G02*
X74712791Y-69485633I-84603J120825D01*
G01*
G37*
%TD*%
%TO.C,R12*%
G36*
G01*
X72526824Y-70582890D02*
X72724708Y-70865497D01*
G75*
G02*
X72688486Y-71070925I-120825J-84603D01*
G01*
X72446836Y-71240130D01*
G75*
G02*
X72241408Y-71203908I-84603J120825D01*
G01*
X72043524Y-70921301D01*
G75*
G02*
X72079746Y-70715873I120825J84603D01*
G01*
X72321396Y-70546668D01*
G75*
G02*
X72526824Y-70582890I84603J-120825D01*
G01*
G37*
G36*
G01*
X73321402Y-70026520D02*
X73519286Y-70309127D01*
G75*
G02*
X73483064Y-70514555I-120825J-84603D01*
G01*
X73241414Y-70683760D01*
G75*
G02*
X73035986Y-70647538I-84603J120825D01*
G01*
X72838102Y-70364931D01*
G75*
G02*
X72874324Y-70159503I120825J84603D01*
G01*
X73115974Y-69990298D01*
G75*
G02*
X73321402Y-70026520I84603J-120825D01*
G01*
G37*
%TD*%
%TO.C,R11*%
G36*
G01*
X77160274Y-62894483D02*
X76815274Y-62894483D01*
G75*
G02*
X76667774Y-62746983I0J147500D01*
G01*
X76667774Y-62451983D01*
G75*
G02*
X76815274Y-62304483I147500J0D01*
G01*
X77160274Y-62304483D01*
G75*
G02*
X77307774Y-62451983I0J-147500D01*
G01*
X77307774Y-62746983D01*
G75*
G02*
X77160274Y-62894483I-147500J0D01*
G01*
G37*
G36*
G01*
X77160274Y-63864483D02*
X76815274Y-63864483D01*
G75*
G02*
X76667774Y-63716983I0J147500D01*
G01*
X76667774Y-63421983D01*
G75*
G02*
X76815274Y-63274483I147500J0D01*
G01*
X77160274Y-63274483D01*
G75*
G02*
X77307774Y-63421983I0J-147500D01*
G01*
X77307774Y-63716983D01*
G75*
G02*
X77160274Y-63864483I-147500J0D01*
G01*
G37*
%TD*%
%TO.C,R10*%
G36*
G01*
X84427771Y-64371985D02*
X84427771Y-64716985D01*
G75*
G02*
X84280271Y-64864485I-147500J0D01*
G01*
X83985271Y-64864485D01*
G75*
G02*
X83837771Y-64716985I0J147500D01*
G01*
X83837771Y-64371985D01*
G75*
G02*
X83985271Y-64224485I147500J0D01*
G01*
X84280271Y-64224485D01*
G75*
G02*
X84427771Y-64371985I0J-147500D01*
G01*
G37*
G36*
G01*
X85397771Y-64371985D02*
X85397771Y-64716985D01*
G75*
G02*
X85250271Y-64864485I-147500J0D01*
G01*
X84955271Y-64864485D01*
G75*
G02*
X84807771Y-64716985I0J147500D01*
G01*
X84807771Y-64371985D01*
G75*
G02*
X84955271Y-64224485I147500J0D01*
G01*
X85250271Y-64224485D01*
G75*
G02*
X85397771Y-64371985I0J-147500D01*
G01*
G37*
%TD*%
%TO.C,R9*%
G36*
G01*
X82945272Y-60224485D02*
X83290272Y-60224485D01*
G75*
G02*
X83437772Y-60371985I0J-147500D01*
G01*
X83437772Y-60666985D01*
G75*
G02*
X83290272Y-60814485I-147500J0D01*
G01*
X82945272Y-60814485D01*
G75*
G02*
X82797772Y-60666985I0J147500D01*
G01*
X82797772Y-60371985D01*
G75*
G02*
X82945272Y-60224485I147500J0D01*
G01*
G37*
G36*
G01*
X82945272Y-59254485D02*
X83290272Y-59254485D01*
G75*
G02*
X83437772Y-59401985I0J-147500D01*
G01*
X83437772Y-59696985D01*
G75*
G02*
X83290272Y-59844485I-147500J0D01*
G01*
X82945272Y-59844485D01*
G75*
G02*
X82797772Y-59696985I0J147500D01*
G01*
X82797772Y-59401985D01*
G75*
G02*
X82945272Y-59254485I147500J0D01*
G01*
G37*
%TD*%
%TO.C,R8*%
G36*
G01*
X80755272Y-65194485D02*
X81100272Y-65194485D01*
G75*
G02*
X81247772Y-65341985I0J-147500D01*
G01*
X81247772Y-65636985D01*
G75*
G02*
X81100272Y-65784485I-147500J0D01*
G01*
X80755272Y-65784485D01*
G75*
G02*
X80607772Y-65636985I0J147500D01*
G01*
X80607772Y-65341985D01*
G75*
G02*
X80755272Y-65194485I147500J0D01*
G01*
G37*
G36*
G01*
X80755272Y-64224485D02*
X81100272Y-64224485D01*
G75*
G02*
X81247772Y-64371985I0J-147500D01*
G01*
X81247772Y-64666985D01*
G75*
G02*
X81100272Y-64814485I-147500J0D01*
G01*
X80755272Y-64814485D01*
G75*
G02*
X80607772Y-64666985I0J147500D01*
G01*
X80607772Y-64371985D01*
G75*
G02*
X80755272Y-64224485I147500J0D01*
G01*
G37*
%TD*%
%TO.C,R7*%
G36*
G01*
X80550273Y-59804483D02*
X80205273Y-59804483D01*
G75*
G02*
X80057773Y-59656983I0J147500D01*
G01*
X80057773Y-59361983D01*
G75*
G02*
X80205273Y-59214483I147500J0D01*
G01*
X80550273Y-59214483D01*
G75*
G02*
X80697773Y-59361983I0J-147500D01*
G01*
X80697773Y-59656983D01*
G75*
G02*
X80550273Y-59804483I-147500J0D01*
G01*
G37*
G36*
G01*
X80550273Y-60774483D02*
X80205273Y-60774483D01*
G75*
G02*
X80057773Y-60626983I0J147500D01*
G01*
X80057773Y-60331983D01*
G75*
G02*
X80205273Y-60184483I147500J0D01*
G01*
X80550273Y-60184483D01*
G75*
G02*
X80697773Y-60331983I0J-147500D01*
G01*
X80697773Y-60626983D01*
G75*
G02*
X80550273Y-60774483I-147500J0D01*
G01*
G37*
%TD*%
%TO.C,R6*%
G36*
G01*
X78887773Y-63406985D02*
X78887773Y-63061985D01*
G75*
G02*
X79035273Y-62914485I147500J0D01*
G01*
X79330273Y-62914485D01*
G75*
G02*
X79477773Y-63061985I0J-147500D01*
G01*
X79477773Y-63406985D01*
G75*
G02*
X79330273Y-63554485I-147500J0D01*
G01*
X79035273Y-63554485D01*
G75*
G02*
X78887773Y-63406985I0J147500D01*
G01*
G37*
G36*
G01*
X77917773Y-63406985D02*
X77917773Y-63061985D01*
G75*
G02*
X78065273Y-62914485I147500J0D01*
G01*
X78360273Y-62914485D01*
G75*
G02*
X78507773Y-63061985I0J-147500D01*
G01*
X78507773Y-63406985D01*
G75*
G02*
X78360273Y-63554485I-147500J0D01*
G01*
X78065273Y-63554485D01*
G75*
G02*
X77917773Y-63406985I0J147500D01*
G01*
G37*
%TD*%
%TO.C,R5*%
G36*
G01*
X78557771Y-66231983D02*
X78557771Y-66576983D01*
G75*
G02*
X78410271Y-66724483I-147500J0D01*
G01*
X78115271Y-66724483D01*
G75*
G02*
X77967771Y-66576983I0J147500D01*
G01*
X77967771Y-66231983D01*
G75*
G02*
X78115271Y-66084483I147500J0D01*
G01*
X78410271Y-66084483D01*
G75*
G02*
X78557771Y-66231983I0J-147500D01*
G01*
G37*
G36*
G01*
X79527771Y-66231983D02*
X79527771Y-66576983D01*
G75*
G02*
X79380271Y-66724483I-147500J0D01*
G01*
X79085271Y-66724483D01*
G75*
G02*
X78937771Y-66576983I0J147500D01*
G01*
X78937771Y-66231983D01*
G75*
G02*
X79085271Y-66084483I147500J0D01*
G01*
X79380271Y-66084483D01*
G75*
G02*
X79527771Y-66231983I0J-147500D01*
G01*
G37*
%TD*%
%TO.C,R4*%
G36*
G01*
X87110271Y-63244482D02*
X86765271Y-63244482D01*
G75*
G02*
X86617771Y-63096982I0J147500D01*
G01*
X86617771Y-62801982D01*
G75*
G02*
X86765271Y-62654482I147500J0D01*
G01*
X87110271Y-62654482D01*
G75*
G02*
X87257771Y-62801982I0J-147500D01*
G01*
X87257771Y-63096982D01*
G75*
G02*
X87110271Y-63244482I-147500J0D01*
G01*
G37*
G36*
G01*
X87110271Y-64214482D02*
X86765271Y-64214482D01*
G75*
G02*
X86617771Y-64066982I0J147500D01*
G01*
X86617771Y-63771982D01*
G75*
G02*
X86765271Y-63624482I147500J0D01*
G01*
X87110271Y-63624482D01*
G75*
G02*
X87257771Y-63771982I0J-147500D01*
G01*
X87257771Y-64066982D01*
G75*
G02*
X87110271Y-64214482I-147500J0D01*
G01*
G37*
%TD*%
%TO.C,R3*%
G36*
G01*
X84440273Y-59844485D02*
X84095273Y-59844485D01*
G75*
G02*
X83947773Y-59696985I0J147500D01*
G01*
X83947773Y-59401985D01*
G75*
G02*
X84095273Y-59254485I147500J0D01*
G01*
X84440273Y-59254485D01*
G75*
G02*
X84587773Y-59401985I0J-147500D01*
G01*
X84587773Y-59696985D01*
G75*
G02*
X84440273Y-59844485I-147500J0D01*
G01*
G37*
G36*
G01*
X84440273Y-60814485D02*
X84095273Y-60814485D01*
G75*
G02*
X83947773Y-60666985I0J147500D01*
G01*
X83947773Y-60371985D01*
G75*
G02*
X84095273Y-60224485I147500J0D01*
G01*
X84440273Y-60224485D01*
G75*
G02*
X84587773Y-60371985I0J-147500D01*
G01*
X84587773Y-60666985D01*
G75*
G02*
X84440273Y-60814485I-147500J0D01*
G01*
G37*
%TD*%
%TO.C,R2*%
G36*
G01*
X81875272Y-65224486D02*
X82220272Y-65224486D01*
G75*
G02*
X82367772Y-65371986I0J-147500D01*
G01*
X82367772Y-65666986D01*
G75*
G02*
X82220272Y-65814486I-147500J0D01*
G01*
X81875272Y-65814486D01*
G75*
G02*
X81727772Y-65666986I0J147500D01*
G01*
X81727772Y-65371986D01*
G75*
G02*
X81875272Y-65224486I147500J0D01*
G01*
G37*
G36*
G01*
X81875272Y-64254486D02*
X82220272Y-64254486D01*
G75*
G02*
X82367772Y-64401986I0J-147500D01*
G01*
X82367772Y-64696986D01*
G75*
G02*
X82220272Y-64844486I-147500J0D01*
G01*
X81875272Y-64844486D01*
G75*
G02*
X81727772Y-64696986I0J147500D01*
G01*
X81727772Y-64401986D01*
G75*
G02*
X81875272Y-64254486I147500J0D01*
G01*
G37*
%TD*%
%TO.C,R1*%
G36*
G01*
X81630272Y-59754483D02*
X81285272Y-59754483D01*
G75*
G02*
X81137772Y-59606983I0J147500D01*
G01*
X81137772Y-59311983D01*
G75*
G02*
X81285272Y-59164483I147500J0D01*
G01*
X81630272Y-59164483D01*
G75*
G02*
X81777772Y-59311983I0J-147500D01*
G01*
X81777772Y-59606983D01*
G75*
G02*
X81630272Y-59754483I-147500J0D01*
G01*
G37*
G36*
G01*
X81630272Y-60724483D02*
X81285272Y-60724483D01*
G75*
G02*
X81137772Y-60576983I0J147500D01*
G01*
X81137772Y-60281983D01*
G75*
G02*
X81285272Y-60134483I147500J0D01*
G01*
X81630272Y-60134483D01*
G75*
G02*
X81777772Y-60281983I0J-147500D01*
G01*
X81777772Y-60576983D01*
G75*
G02*
X81630272Y-60724483I-147500J0D01*
G01*
G37*
%TD*%
D12*
%TO.C,Q1*%
X78727773Y-65379482D03*
D13*
X79127773Y-64229482D03*
X78327773Y-64229482D03*
%TD*%
%TO.C,D4*%
G36*
G01*
X85784024Y-63679484D02*
X85271524Y-63679484D01*
G75*
G02*
X85052774Y-63460734I0J218750D01*
G01*
X85052774Y-63023234D01*
G75*
G02*
X85271524Y-62804484I218750J0D01*
G01*
X85784024Y-62804484D01*
G75*
G02*
X86002774Y-63023234I0J-218750D01*
G01*
X86002774Y-63460734D01*
G75*
G02*
X85784024Y-63679484I-218750J0D01*
G01*
G37*
G36*
G01*
X85784024Y-62104484D02*
X85271524Y-62104484D01*
G75*
G02*
X85052774Y-61885734I0J218750D01*
G01*
X85052774Y-61448234D01*
G75*
G02*
X85271524Y-61229484I218750J0D01*
G01*
X85784024Y-61229484D01*
G75*
G02*
X86002774Y-61448234I0J-218750D01*
G01*
X86002774Y-61885734D01*
G75*
G02*
X85784024Y-62104484I-218750J0D01*
G01*
G37*
%TD*%
%TO.C,D3*%
G36*
G01*
X84071523Y-61229484D02*
X84584023Y-61229484D01*
G75*
G02*
X84802773Y-61448234I0J-218750D01*
G01*
X84802773Y-61885734D01*
G75*
G02*
X84584023Y-62104484I-218750J0D01*
G01*
X84071523Y-62104484D01*
G75*
G02*
X83852773Y-61885734I0J218750D01*
G01*
X83852773Y-61448234D01*
G75*
G02*
X84071523Y-61229484I218750J0D01*
G01*
G37*
G36*
G01*
X84071523Y-62804484D02*
X84584023Y-62804484D01*
G75*
G02*
X84802773Y-63023234I0J-218750D01*
G01*
X84802773Y-63460734D01*
G75*
G02*
X84584023Y-63679484I-218750J0D01*
G01*
X84071523Y-63679484D01*
G75*
G02*
X83852773Y-63460734I0J218750D01*
G01*
X83852773Y-63023234D01*
G75*
G02*
X84071523Y-62804484I218750J0D01*
G01*
G37*
%TD*%
%TO.C,D2*%
G36*
G01*
X82284023Y-63679485D02*
X81771523Y-63679485D01*
G75*
G02*
X81552773Y-63460735I0J218750D01*
G01*
X81552773Y-63023235D01*
G75*
G02*
X81771523Y-62804485I218750J0D01*
G01*
X82284023Y-62804485D01*
G75*
G02*
X82502773Y-63023235I0J-218750D01*
G01*
X82502773Y-63460735D01*
G75*
G02*
X82284023Y-63679485I-218750J0D01*
G01*
G37*
G36*
G01*
X82284023Y-62104485D02*
X81771523Y-62104485D01*
G75*
G02*
X81552773Y-61885735I0J218750D01*
G01*
X81552773Y-61448235D01*
G75*
G02*
X81771523Y-61229485I218750J0D01*
G01*
X82284023Y-61229485D01*
G75*
G02*
X82502773Y-61448235I0J-218750D01*
G01*
X82502773Y-61885735D01*
G75*
G02*
X82284023Y-62104485I-218750J0D01*
G01*
G37*
%TD*%
%TO.C,D1*%
G36*
G01*
X80471523Y-61229484D02*
X80984023Y-61229484D01*
G75*
G02*
X81202773Y-61448234I0J-218750D01*
G01*
X81202773Y-61885734D01*
G75*
G02*
X80984023Y-62104484I-218750J0D01*
G01*
X80471523Y-62104484D01*
G75*
G02*
X80252773Y-61885734I0J218750D01*
G01*
X80252773Y-61448234D01*
G75*
G02*
X80471523Y-61229484I218750J0D01*
G01*
G37*
G36*
G01*
X80471523Y-62804484D02*
X80984023Y-62804484D01*
G75*
G02*
X81202773Y-63023234I0J-218750D01*
G01*
X81202773Y-63460734D01*
G75*
G02*
X80984023Y-63679484I-218750J0D01*
G01*
X80471523Y-63679484D01*
G75*
G02*
X80252773Y-63460734I0J218750D01*
G01*
X80252773Y-63023234D01*
G75*
G02*
X80471523Y-62804484I218750J0D01*
G01*
G37*
%TD*%
D14*
%TO.C,J2*%
G36*
X75710229Y-67479788D02*
G01*
X74878543Y-66292018D01*
X75370035Y-65947872D01*
X76201721Y-67135642D01*
X75710229Y-67479788D01*
G37*
G36*
X75054907Y-67938649D02*
G01*
X74223221Y-66750879D01*
X74714713Y-66406733D01*
X75546399Y-67594503D01*
X75054907Y-67938649D01*
G37*
G36*
X71041062Y-70749173D02*
G01*
X70209376Y-69561403D01*
X70700868Y-69217257D01*
X71532554Y-70405027D01*
X71041062Y-70749173D01*
G37*
G36*
X70385741Y-71208034D02*
G01*
X69554055Y-70020264D01*
X70045547Y-69676118D01*
X70877233Y-70863888D01*
X70385741Y-71208034D01*
G37*
G36*
X70385741Y-71208034D02*
G01*
X69554055Y-70020264D01*
X70045547Y-69676118D01*
X70877233Y-70863888D01*
X70385741Y-71208034D01*
G37*
G36*
X71041062Y-70749173D02*
G01*
X70209376Y-69561403D01*
X70700868Y-69217257D01*
X71532554Y-70405027D01*
X71041062Y-70749173D01*
G37*
G36*
X75054907Y-67938649D02*
G01*
X74223221Y-66750879D01*
X74714713Y-66406733D01*
X75546399Y-67594503D01*
X75054907Y-67938649D01*
G37*
G36*
X75710229Y-67479788D02*
G01*
X74878543Y-66292018D01*
X75370035Y-65947872D01*
X76201721Y-67135642D01*
X75710229Y-67479788D01*
G37*
G36*
X71737342Y-70261634D02*
G01*
X70905656Y-69073863D01*
X71151402Y-68901790D01*
X71983088Y-70089561D01*
X71737342Y-70261634D01*
G37*
G36*
X72146918Y-69974846D02*
G01*
X71315232Y-68787075D01*
X71560978Y-68615002D01*
X72392664Y-69802773D01*
X72146918Y-69974846D01*
G37*
G36*
X72556494Y-69688057D02*
G01*
X71724808Y-68500286D01*
X71970554Y-68328213D01*
X72802240Y-69515984D01*
X72556494Y-69688057D01*
G37*
G36*
X73375646Y-69114481D02*
G01*
X72543960Y-67926710D01*
X72789706Y-67754637D01*
X73621392Y-68942408D01*
X73375646Y-69114481D01*
G37*
G36*
X73785222Y-68827693D02*
G01*
X72953536Y-67639922D01*
X73199282Y-67467849D01*
X74030968Y-68655620D01*
X73785222Y-68827693D01*
G37*
G36*
X74194798Y-68540904D02*
G01*
X73363112Y-67353133D01*
X73608858Y-67181060D01*
X74440544Y-68368831D01*
X74194798Y-68540904D01*
G37*
G36*
X74604374Y-68254116D02*
G01*
X73772688Y-67066345D01*
X74018434Y-66894272D01*
X74850120Y-68082043D01*
X74604374Y-68254116D01*
G37*
G36*
X72966070Y-69401269D02*
G01*
X72134384Y-68213498D01*
X72380130Y-68041425D01*
X73211816Y-69229196D01*
X72966070Y-69401269D01*
G37*
G36*
G01*
X75797693Y-66087901D02*
X75166759Y-65186833D01*
G75*
G02*
X75289547Y-64490469I409576J286788D01*
G01*
X75289547Y-64490469D01*
G75*
G02*
X75985911Y-64613257I286788J-409576D01*
G01*
X76616845Y-65514325D01*
G75*
G02*
X76494057Y-66210689I-409576J-286788D01*
G01*
X76494057Y-66210689D01*
G75*
G02*
X75797693Y-66087901I-286788J409576D01*
G01*
G37*
G36*
G01*
X68720219Y-71043601D02*
X68089285Y-70142533D01*
G75*
G02*
X68212073Y-69446169I409576J286788D01*
G01*
X68212073Y-69446169D01*
G75*
G02*
X68908437Y-69568957I286788J-409576D01*
G01*
X69539371Y-70470025D01*
G75*
G02*
X69416583Y-71166389I-409576J-286788D01*
G01*
X69416583Y-71166389D01*
G75*
G02*
X68720219Y-71043601I-286788J409576D01*
G01*
G37*
G36*
G01*
X66179276Y-67414758D02*
X65835130Y-66923266D01*
G75*
G02*
X65957918Y-66226902I409576J286788D01*
G01*
X65957918Y-66226902D01*
G75*
G02*
X66654282Y-66349690I286788J-409576D01*
G01*
X66998428Y-66841182D01*
G75*
G02*
X66875640Y-67537546I-409576J-286788D01*
G01*
X66875640Y-67537546D01*
G75*
G02*
X66179276Y-67414758I-286788J409576D01*
G01*
G37*
G36*
G01*
X73256750Y-62459057D02*
X72912604Y-61967565D01*
G75*
G02*
X73035392Y-61271201I409576J286788D01*
G01*
X73035392Y-61271201D01*
G75*
G02*
X73731756Y-61393989I286788J-409576D01*
G01*
X74075902Y-61885481D01*
G75*
G02*
X73953114Y-62581845I-409576J-286788D01*
G01*
X73953114Y-62581845D01*
G75*
G02*
X73256750Y-62459057I-286788J409576D01*
G01*
G37*
%TD*%
M02*
