%TF.GenerationSoftware,KiCad,Pcbnew,(5.1.6)-1*%
%TF.CreationDate,2020-12-05T12:07:26+01:00*%
%TF.ProjectId,bose-usb-c,626f7365-2d75-4736-922d-632e6b696361,Rev 1*%
%TF.SameCoordinates,Original*%
%TF.FileFunction,Soldermask,Top*%
%TF.FilePolarity,Negative*%
%FSLAX46Y46*%
G04 Gerber Fmt 4.6, Leading zero omitted, Abs format (unit mm)*
G04 Created by KiCad (PCBNEW (5.1.6)-1) date 2020-12-05 12:07:26*
%MOMM*%
%LPD*%
G01*
G04 APERTURE LIST*
%ADD10R,2.600000X0.600000*%
%ADD11R,0.800000X0.300000*%
%ADD12C,0.100000*%
%ADD13C,1.600000*%
G04 APERTURE END LIST*
D10*
%TO.C,J3*%
X81477772Y-64014481D03*
X81477772Y-60214481D03*
D11*
X79177772Y-61114481D03*
X79177772Y-61614481D03*
X79177772Y-62114481D03*
X79177772Y-62614481D03*
X79177772Y-63114481D03*
%TD*%
%TO.C,C1*%
G36*
G01*
X74649463Y-63288764D02*
X74366856Y-63486648D01*
G75*
G02*
X74161428Y-63450426I-84603J120825D01*
G01*
X73992223Y-63208776D01*
G75*
G02*
X74028445Y-63003348I120825J84603D01*
G01*
X74311052Y-62805464D01*
G75*
G02*
X74516480Y-62841686I84603J-120825D01*
G01*
X74685685Y-63083336D01*
G75*
G02*
X74649463Y-63288764I-120825J-84603D01*
G01*
G37*
G36*
G01*
X75205833Y-64083342D02*
X74923226Y-64281226D01*
G75*
G02*
X74717798Y-64245004I-84603J120825D01*
G01*
X74548593Y-64003354D01*
G75*
G02*
X74584815Y-63797926I120825J84603D01*
G01*
X74867422Y-63600042D01*
G75*
G02*
X75072850Y-63636264I84603J-120825D01*
G01*
X75242055Y-63877914D01*
G75*
G02*
X75205833Y-64083342I-120825J-84603D01*
G01*
G37*
%TD*%
D12*
%TO.C,J1*%
G36*
X74137422Y-65307929D02*
G01*
X74510247Y-65840378D01*
X74248118Y-66023923D01*
X73875293Y-65491474D01*
X74137422Y-65307929D01*
G37*
G36*
X72892761Y-63530369D02*
G01*
X73265586Y-64062818D01*
X73003457Y-64246363D01*
X72630632Y-63713914D01*
X72892761Y-63530369D01*
G37*
G36*
X69632085Y-68462599D02*
G01*
X70004910Y-68995048D01*
X69742781Y-69178593D01*
X69369956Y-68646144D01*
X69632085Y-68462599D01*
G37*
G36*
X68387424Y-66685039D02*
G01*
X68760249Y-67217488D01*
X68498120Y-67401033D01*
X68125295Y-66868584D01*
X68387424Y-66685039D01*
G37*
G36*
X70492641Y-68122498D02*
G01*
X70765090Y-68511595D01*
X70584877Y-68637782D01*
X70312428Y-68248685D01*
X70492641Y-68122498D01*
G37*
G36*
X70820302Y-67893068D02*
G01*
X71092751Y-68282165D01*
X70912538Y-68408352D01*
X70640089Y-68019255D01*
X70820302Y-67893068D01*
G37*
G36*
X71147962Y-67663637D02*
G01*
X71420411Y-68052734D01*
X71240198Y-68178921D01*
X70967749Y-67789824D01*
X71147962Y-67663637D01*
G37*
G36*
X71475623Y-67434207D02*
G01*
X71748072Y-67823304D01*
X71567859Y-67949491D01*
X71295410Y-67560394D01*
X71475623Y-67434207D01*
G37*
G36*
X71803284Y-67204776D02*
G01*
X72075733Y-67593873D01*
X71895520Y-67720060D01*
X71623071Y-67330963D01*
X71803284Y-67204776D01*
G37*
G36*
X72130945Y-66975346D02*
G01*
X72403394Y-67364443D01*
X72223181Y-67490630D01*
X71950732Y-67101533D01*
X72130945Y-66975346D01*
G37*
G36*
X72458606Y-66745915D02*
G01*
X72731055Y-67135012D01*
X72550842Y-67261199D01*
X72278393Y-66872102D01*
X72458606Y-66745915D01*
G37*
G36*
X72786266Y-66516484D02*
G01*
X73058715Y-66905581D01*
X72878502Y-67031768D01*
X72606053Y-66642671D01*
X72786266Y-66516484D01*
G37*
G36*
X73113927Y-66287054D02*
G01*
X73386376Y-66676151D01*
X73206163Y-66802338D01*
X72933714Y-66413241D01*
X73113927Y-66287054D01*
G37*
G36*
X73441588Y-66057623D02*
G01*
X73714037Y-66446720D01*
X73533824Y-66572907D01*
X73261375Y-66183810D01*
X73441588Y-66057623D01*
G37*
G36*
X69101718Y-66136055D02*
G01*
X69374167Y-66525152D01*
X69193954Y-66651339D01*
X68921505Y-66262242D01*
X69101718Y-66136055D01*
G37*
G36*
X69429379Y-65906624D02*
G01*
X69701828Y-66295721D01*
X69521615Y-66421908D01*
X69249166Y-66032811D01*
X69429379Y-65906624D01*
G37*
G36*
X69757040Y-65677194D02*
G01*
X70029489Y-66066291D01*
X69849276Y-66192478D01*
X69576827Y-65803381D01*
X69757040Y-65677194D01*
G37*
G36*
X70084700Y-65447763D02*
G01*
X70357149Y-65836860D01*
X70176936Y-65963047D01*
X69904487Y-65573950D01*
X70084700Y-65447763D01*
G37*
G36*
X70412361Y-65218332D02*
G01*
X70684810Y-65607429D01*
X70504597Y-65733616D01*
X70232148Y-65344519D01*
X70412361Y-65218332D01*
G37*
G36*
X70740022Y-64988902D02*
G01*
X71012471Y-65377999D01*
X70832258Y-65504186D01*
X70559809Y-65115089D01*
X70740022Y-64988902D01*
G37*
G36*
X71067683Y-64759471D02*
G01*
X71340132Y-65148568D01*
X71159919Y-65274755D01*
X70887470Y-64885658D01*
X71067683Y-64759471D01*
G37*
G36*
X71395344Y-64530041D02*
G01*
X71667793Y-64919138D01*
X71487580Y-65045325D01*
X71215131Y-64656228D01*
X71395344Y-64530041D01*
G37*
G36*
X71723004Y-64300610D02*
G01*
X71995453Y-64689707D01*
X71815240Y-64815894D01*
X71542791Y-64426797D01*
X71723004Y-64300610D01*
G37*
G36*
X72050665Y-64071180D02*
G01*
X72323114Y-64460277D01*
X72142901Y-64586464D01*
X71870452Y-64197367D01*
X72050665Y-64071180D01*
G37*
%TD*%
%TO.C,U1*%
G36*
X69798488Y-63172376D02*
G01*
X70716210Y-64483019D01*
X69897058Y-65056596D01*
X68979336Y-63745953D01*
X69798488Y-63172376D01*
G37*
G36*
G01*
X69563215Y-65015681D02*
X69649251Y-65138554D01*
G75*
G02*
X69630833Y-65243008I-61436J-43018D01*
G01*
X69385087Y-65415081D01*
G75*
G02*
X69280633Y-65396663I-43018J61436D01*
G01*
X69194597Y-65273790D01*
G75*
G02*
X69213015Y-65169336I61436J43018D01*
G01*
X69458761Y-64997263D01*
G75*
G02*
X69563215Y-65015681I43018J-61436D01*
G01*
G37*
G36*
G01*
X69190391Y-64483232D02*
X69276427Y-64606105D01*
G75*
G02*
X69258009Y-64710559I-61436J-43018D01*
G01*
X69012263Y-64882632D01*
G75*
G02*
X68907809Y-64864214I-43018J61436D01*
G01*
X68821773Y-64741341D01*
G75*
G02*
X68840191Y-64636887I61436J43018D01*
G01*
X69085937Y-64464814D01*
G75*
G02*
X69190391Y-64483232I43018J-61436D01*
G01*
G37*
G36*
G01*
X68817566Y-63950783D02*
X68903602Y-64073656D01*
G75*
G02*
X68885184Y-64178110I-61436J-43018D01*
G01*
X68639438Y-64350183D01*
G75*
G02*
X68534984Y-64331765I-43018J61436D01*
G01*
X68448948Y-64208892D01*
G75*
G02*
X68467366Y-64104438I61436J43018D01*
G01*
X68713112Y-63932365D01*
G75*
G02*
X68817566Y-63950783I43018J-61436D01*
G01*
G37*
G36*
G01*
X70414913Y-62832309D02*
X70500949Y-62955182D01*
G75*
G02*
X70482531Y-63059636I-61436J-43018D01*
G01*
X70236785Y-63231709D01*
G75*
G02*
X70132331Y-63213291I-43018J61436D01*
G01*
X70046295Y-63090418D01*
G75*
G02*
X70064713Y-62985964I61436J43018D01*
G01*
X70310459Y-62813891D01*
G75*
G02*
X70414913Y-62832309I43018J-61436D01*
G01*
G37*
G36*
G01*
X70787737Y-63364758D02*
X70873773Y-63487631D01*
G75*
G02*
X70855355Y-63592085I-61436J-43018D01*
G01*
X70609609Y-63764158D01*
G75*
G02*
X70505155Y-63745740I-43018J61436D01*
G01*
X70419119Y-63622867D01*
G75*
G02*
X70437537Y-63518413I61436J43018D01*
G01*
X70683283Y-63346340D01*
G75*
G02*
X70787737Y-63364758I43018J-61436D01*
G01*
G37*
G36*
G01*
X71160562Y-63897207D02*
X71246598Y-64020080D01*
G75*
G02*
X71228180Y-64124534I-61436J-43018D01*
G01*
X70982434Y-64296607D01*
G75*
G02*
X70877980Y-64278189I-43018J61436D01*
G01*
X70791944Y-64155316D01*
G75*
G02*
X70810362Y-64050862I61436J43018D01*
G01*
X71056108Y-63878789D01*
G75*
G02*
X71160562Y-63897207I43018J-61436D01*
G01*
G37*
%TD*%
%TO.C,R14*%
G36*
G01*
X73320094Y-68259902D02*
X73037487Y-68457786D01*
G75*
G02*
X72832059Y-68421564I-84603J120825D01*
G01*
X72662854Y-68179914D01*
G75*
G02*
X72699076Y-67974486I120825J84603D01*
G01*
X72981683Y-67776602D01*
G75*
G02*
X73187111Y-67812824I84603J-120825D01*
G01*
X73356316Y-68054474D01*
G75*
G02*
X73320094Y-68259902I-120825J-84603D01*
G01*
G37*
G36*
G01*
X73876464Y-69054480D02*
X73593857Y-69252364D01*
G75*
G02*
X73388429Y-69216142I-84603J120825D01*
G01*
X73219224Y-68974492D01*
G75*
G02*
X73255446Y-68769064I120825J84603D01*
G01*
X73538053Y-68571180D01*
G75*
G02*
X73743481Y-68607402I84603J-120825D01*
G01*
X73912686Y-68849052D01*
G75*
G02*
X73876464Y-69054480I-120825J-84603D01*
G01*
G37*
%TD*%
%TO.C,R22*%
G36*
G01*
X71830095Y-62609904D02*
X71547488Y-62807788D01*
G75*
G02*
X71342060Y-62771566I-84603J120825D01*
G01*
X71172855Y-62529916D01*
G75*
G02*
X71209077Y-62324488I120825J84603D01*
G01*
X71491684Y-62126604D01*
G75*
G02*
X71697112Y-62162826I84603J-120825D01*
G01*
X71866317Y-62404476D01*
G75*
G02*
X71830095Y-62609904I-120825J-84603D01*
G01*
G37*
G36*
G01*
X72386465Y-63404482D02*
X72103858Y-63602366D01*
G75*
G02*
X71898430Y-63566144I-84603J120825D01*
G01*
X71729225Y-63324494D01*
G75*
G02*
X71765447Y-63119066I120825J84603D01*
G01*
X72048054Y-62921182D01*
G75*
G02*
X72253482Y-62957404I84603J-120825D01*
G01*
X72422687Y-63199054D01*
G75*
G02*
X72386465Y-63404482I-120825J-84603D01*
G01*
G37*
%TD*%
D13*
%TO.C,H1*%
X68057773Y-72314486D03*
%TD*%
%TO.C,H2*%
X75577773Y-62004487D03*
%TD*%
%TO.C,R21*%
G36*
G01*
X66023345Y-69489157D02*
X66221229Y-69771764D01*
G75*
G02*
X66185007Y-69977192I-120825J-84603D01*
G01*
X65943357Y-70146397D01*
G75*
G02*
X65737929Y-70110175I-84603J120825D01*
G01*
X65540045Y-69827568D01*
G75*
G02*
X65576267Y-69622140I120825J84603D01*
G01*
X65817917Y-69452935D01*
G75*
G02*
X66023345Y-69489157I84603J-120825D01*
G01*
G37*
G36*
G01*
X66817923Y-68932787D02*
X67015807Y-69215394D01*
G75*
G02*
X66979585Y-69420822I-120825J-84603D01*
G01*
X66737935Y-69590027D01*
G75*
G02*
X66532507Y-69553805I-84603J120825D01*
G01*
X66334623Y-69271198D01*
G75*
G02*
X66370845Y-69065770I120825J84603D01*
G01*
X66612495Y-68896565D01*
G75*
G02*
X66817923Y-68932787I84603J-120825D01*
G01*
G37*
%TD*%
%TO.C,R20*%
G36*
G01*
X67925449Y-65749065D02*
X68208056Y-65551181D01*
G75*
G02*
X68413484Y-65587403I84603J-120825D01*
G01*
X68582689Y-65829053D01*
G75*
G02*
X68546467Y-66034481I-120825J-84603D01*
G01*
X68263860Y-66232365D01*
G75*
G02*
X68058432Y-66196143I-84603J120825D01*
G01*
X67889227Y-65954493D01*
G75*
G02*
X67925449Y-65749065I120825J84603D01*
G01*
G37*
G36*
G01*
X67369079Y-64954487D02*
X67651686Y-64756603D01*
G75*
G02*
X67857114Y-64792825I84603J-120825D01*
G01*
X68026319Y-65034475D01*
G75*
G02*
X67990097Y-65239903I-120825J-84603D01*
G01*
X67707490Y-65437787D01*
G75*
G02*
X67502062Y-65401565I-84603J120825D01*
G01*
X67332857Y-65159915D01*
G75*
G02*
X67369079Y-64954487I120825J84603D01*
G01*
G37*
%TD*%
%TO.C,C2*%
G36*
G01*
X65932354Y-68646809D02*
X65734470Y-68364202D01*
G75*
G02*
X65770692Y-68158774I120825J84603D01*
G01*
X66012342Y-67989569D01*
G75*
G02*
X66217770Y-68025791I84603J-120825D01*
G01*
X66415654Y-68308398D01*
G75*
G02*
X66379432Y-68513826I-120825J-84603D01*
G01*
X66137782Y-68683031D01*
G75*
G02*
X65932354Y-68646809I-84603J120825D01*
G01*
G37*
G36*
G01*
X65137776Y-69203179D02*
X64939892Y-68920572D01*
G75*
G02*
X64976114Y-68715144I120825J84603D01*
G01*
X65217764Y-68545939D01*
G75*
G02*
X65423192Y-68582161I84603J-120825D01*
G01*
X65621076Y-68864768D01*
G75*
G02*
X65584854Y-69070196I-120825J-84603D01*
G01*
X65343204Y-69239401D01*
G75*
G02*
X65137776Y-69203179I-84603J120825D01*
G01*
G37*
%TD*%
%TO.C,R19*%
G36*
G01*
X78020000Y-60462500D02*
X78020000Y-60117500D01*
G75*
G02*
X78167500Y-59970000I147500J0D01*
G01*
X78462500Y-59970000D01*
G75*
G02*
X78610000Y-60117500I0J-147500D01*
G01*
X78610000Y-60462500D01*
G75*
G02*
X78462500Y-60610000I-147500J0D01*
G01*
X78167500Y-60610000D01*
G75*
G02*
X78020000Y-60462500I0J147500D01*
G01*
G37*
G36*
G01*
X77050000Y-60462500D02*
X77050000Y-60117500D01*
G75*
G02*
X77197500Y-59970000I147500J0D01*
G01*
X77492500Y-59970000D01*
G75*
G02*
X77640000Y-60117500I0J-147500D01*
G01*
X77640000Y-60462500D01*
G75*
G02*
X77492500Y-60610000I-147500J0D01*
G01*
X77197500Y-60610000D01*
G75*
G02*
X77050000Y-60462500I0J147500D01*
G01*
G37*
%TD*%
%TO.C,R18*%
G36*
G01*
X77952500Y-63430000D02*
X77607500Y-63430000D01*
G75*
G02*
X77460000Y-63282500I0J147500D01*
G01*
X77460000Y-62987500D01*
G75*
G02*
X77607500Y-62840000I147500J0D01*
G01*
X77952500Y-62840000D01*
G75*
G02*
X78100000Y-62987500I0J-147500D01*
G01*
X78100000Y-63282500D01*
G75*
G02*
X77952500Y-63430000I-147500J0D01*
G01*
G37*
G36*
G01*
X77952500Y-64400000D02*
X77607500Y-64400000D01*
G75*
G02*
X77460000Y-64252500I0J147500D01*
G01*
X77460000Y-63957500D01*
G75*
G02*
X77607500Y-63810000I147500J0D01*
G01*
X77952500Y-63810000D01*
G75*
G02*
X78100000Y-63957500I0J-147500D01*
G01*
X78100000Y-64252500D01*
G75*
G02*
X77952500Y-64400000I-147500J0D01*
G01*
G37*
%TD*%
%TO.C,R17*%
G36*
G01*
X81015273Y-65854485D02*
X81360273Y-65854485D01*
G75*
G02*
X81507773Y-66001985I0J-147500D01*
G01*
X81507773Y-66296985D01*
G75*
G02*
X81360273Y-66444485I-147500J0D01*
G01*
X81015273Y-66444485D01*
G75*
G02*
X80867773Y-66296985I0J147500D01*
G01*
X80867773Y-66001985D01*
G75*
G02*
X81015273Y-65854485I147500J0D01*
G01*
G37*
G36*
G01*
X81015273Y-64884485D02*
X81360273Y-64884485D01*
G75*
G02*
X81507773Y-65031985I0J-147500D01*
G01*
X81507773Y-65326985D01*
G75*
G02*
X81360273Y-65474485I-147500J0D01*
G01*
X81015273Y-65474485D01*
G75*
G02*
X80867773Y-65326985I0J147500D01*
G01*
X80867773Y-65031985D01*
G75*
G02*
X81015273Y-64884485I147500J0D01*
G01*
G37*
%TD*%
%TO.C,R16*%
G36*
G01*
X75130095Y-66969905D02*
X74847488Y-67167789D01*
G75*
G02*
X74642060Y-67131567I-84603J120825D01*
G01*
X74472855Y-66889917D01*
G75*
G02*
X74509077Y-66684489I120825J84603D01*
G01*
X74791684Y-66486605D01*
G75*
G02*
X74997112Y-66522827I84603J-120825D01*
G01*
X75166317Y-66764477D01*
G75*
G02*
X75130095Y-66969905I-120825J-84603D01*
G01*
G37*
G36*
G01*
X75686465Y-67764483D02*
X75403858Y-67962367D01*
G75*
G02*
X75198430Y-67926145I-84603J120825D01*
G01*
X75029225Y-67684495D01*
G75*
G02*
X75065447Y-67479067I120825J84603D01*
G01*
X75348054Y-67281183D01*
G75*
G02*
X75553482Y-67317405I84603J-120825D01*
G01*
X75722687Y-67559055D01*
G75*
G02*
X75686465Y-67764483I-120825J-84603D01*
G01*
G37*
%TD*%
%TO.C,R15*%
G36*
G01*
X74240096Y-67609904D02*
X73957489Y-67807788D01*
G75*
G02*
X73752061Y-67771566I-84603J120825D01*
G01*
X73582856Y-67529916D01*
G75*
G02*
X73619078Y-67324488I120825J84603D01*
G01*
X73901685Y-67126604D01*
G75*
G02*
X74107113Y-67162826I84603J-120825D01*
G01*
X74276318Y-67404476D01*
G75*
G02*
X74240096Y-67609904I-120825J-84603D01*
G01*
G37*
G36*
G01*
X74796466Y-68404482D02*
X74513859Y-68602366D01*
G75*
G02*
X74308431Y-68566144I-84603J120825D01*
G01*
X74139226Y-68324494D01*
G75*
G02*
X74175448Y-68119066I120825J84603D01*
G01*
X74458055Y-67921182D01*
G75*
G02*
X74663483Y-67957404I84603J-120825D01*
G01*
X74832688Y-68199054D01*
G75*
G02*
X74796466Y-68404482I-120825J-84603D01*
G01*
G37*
%TD*%
%TO.C,FB1*%
G36*
G01*
X67144865Y-70463211D02*
X66946981Y-70180604D01*
G75*
G02*
X66983203Y-69975176I120825J84603D01*
G01*
X67224853Y-69805971D01*
G75*
G02*
X67430281Y-69842193I84603J-120825D01*
G01*
X67628165Y-70124800D01*
G75*
G02*
X67591943Y-70330228I-120825J-84603D01*
G01*
X67350293Y-70499433D01*
G75*
G02*
X67144865Y-70463211I-84603J120825D01*
G01*
G37*
G36*
G01*
X66350287Y-71019581D02*
X66152403Y-70736974D01*
G75*
G02*
X66188625Y-70531546I120825J84603D01*
G01*
X66430275Y-70362341D01*
G75*
G02*
X66635703Y-70398563I84603J-120825D01*
G01*
X66833587Y-70681170D01*
G75*
G02*
X66797365Y-70886598I-120825J-84603D01*
G01*
X66555715Y-71055803D01*
G75*
G02*
X66350287Y-71019581I-84603J120825D01*
G01*
G37*
%TD*%
%TO.C,J2*%
G36*
G01*
X75797693Y-66087901D02*
X75166759Y-65186833D01*
G75*
G02*
X75289547Y-64490469I409576J286788D01*
G01*
X75289547Y-64490469D01*
G75*
G02*
X75985911Y-64613257I286788J-409576D01*
G01*
X76616845Y-65514325D01*
G75*
G02*
X76494057Y-66210689I-409576J-286788D01*
G01*
X76494057Y-66210689D01*
G75*
G02*
X75797693Y-66087901I-286788J409576D01*
G01*
G37*
G36*
G01*
X68720219Y-71043601D02*
X68089285Y-70142533D01*
G75*
G02*
X68212073Y-69446169I409576J286788D01*
G01*
X68212073Y-69446169D01*
G75*
G02*
X68908437Y-69568957I286788J-409576D01*
G01*
X69539371Y-70470025D01*
G75*
G02*
X69416583Y-71166389I-409576J-286788D01*
G01*
X69416583Y-71166389D01*
G75*
G02*
X68720219Y-71043601I-286788J409576D01*
G01*
G37*
G36*
G01*
X66179276Y-67414758D02*
X65835130Y-66923266D01*
G75*
G02*
X65957918Y-66226902I409576J286788D01*
G01*
X65957918Y-66226902D01*
G75*
G02*
X66654282Y-66349690I286788J-409576D01*
G01*
X66998428Y-66841182D01*
G75*
G02*
X66875640Y-67537546I-409576J-286788D01*
G01*
X66875640Y-67537546D01*
G75*
G02*
X66179276Y-67414758I-286788J409576D01*
G01*
G37*
G36*
G01*
X73256750Y-62459057D02*
X72912604Y-61967565D01*
G75*
G02*
X73035392Y-61271201I409576J286788D01*
G01*
X73035392Y-61271201D01*
G75*
G02*
X73731756Y-61393989I286788J-409576D01*
G01*
X74075902Y-61885481D01*
G75*
G02*
X73953114Y-62581845I-409576J-286788D01*
G01*
X73953114Y-62581845D01*
G75*
G02*
X73256750Y-62459057I-286788J409576D01*
G01*
G37*
%TD*%
M02*
