%TF.GenerationSoftware,KiCad,Pcbnew,(5.1.6)-1*%
%TF.CreationDate,2020-12-05T12:07:26+01:00*%
%TF.ProjectId,bose-usb-c,626f7365-2d75-4736-922d-632e6b696361,Rev 1*%
%TF.SameCoordinates,Original*%
%TF.FileFunction,Copper,L4,Bot*%
%TF.FilePolarity,Positive*%
%FSLAX46Y46*%
G04 Gerber Fmt 4.6, Leading zero omitted, Abs format (unit mm)*
G04 Created by KiCad (PCBNEW (5.1.6)-1) date 2020-12-05 12:07:26*
%MOMM*%
%LPD*%
G01*
G04 APERTURE LIST*
%TA.AperFunction,SMDPad,CuDef*%
%ADD10R,0.700000X0.450000*%
%TD*%
%TA.AperFunction,ComponentPad*%
%ADD11C,1.600000*%
%TD*%
%TA.AperFunction,SMDPad,CuDef*%
%ADD12R,0.500000X0.450000*%
%TD*%
%TA.AperFunction,SMDPad,CuDef*%
%ADD13R,0.400000X0.450000*%
%TD*%
%TA.AperFunction,SMDPad,CuDef*%
%ADD14C,0.100000*%
%TD*%
%TA.AperFunction,ViaPad*%
%ADD15C,0.600000*%
%TD*%
%TA.AperFunction,ViaPad*%
%ADD16C,0.800000*%
%TD*%
%TA.AperFunction,Conductor*%
%ADD17C,0.127000*%
%TD*%
%TA.AperFunction,Conductor*%
%ADD18C,0.300000*%
%TD*%
%TA.AperFunction,Conductor*%
%ADD19C,0.250000*%
%TD*%
%TA.AperFunction,Conductor*%
%ADD20C,0.400000*%
%TD*%
G04 APERTURE END LIST*
D10*
%TO.P,D5,3*%
%TO.N,/LED_PWR*%
X79197774Y-60954483D03*
%TO.P,D5,2*%
%TO.N,/LED_PWR_ON*%
X77197774Y-60304483D03*
%TO.P,D5,1*%
%TO.N,Net-(D5-Pad1)*%
X77197774Y-61604483D03*
%TD*%
D11*
%TO.P,H1,*%
%TO.N,*%
X68057773Y-72314486D03*
%TD*%
%TO.P,H2,*%
%TO.N,*%
X75577773Y-62004487D03*
%TD*%
%TO.P,R13,2*%
%TO.N,Net-(J2-PadB5)*%
%TA.AperFunction,SMDPad,CuDef*%
G36*
G01*
X75507369Y-68929263D02*
X75309485Y-68646656D01*
G75*
G02*
X75345707Y-68441228I120825J84603D01*
G01*
X75587357Y-68272023D01*
G75*
G02*
X75792785Y-68308245I84603J-120825D01*
G01*
X75990669Y-68590852D01*
G75*
G02*
X75954447Y-68796280I-120825J-84603D01*
G01*
X75712797Y-68965485D01*
G75*
G02*
X75507369Y-68929263I-84603J120825D01*
G01*
G37*
%TD.AperFunction*%
%TO.P,R13,1*%
%TO.N,GND*%
%TA.AperFunction,SMDPad,CuDef*%
G36*
G01*
X74712791Y-69485633D02*
X74514907Y-69203026D01*
G75*
G02*
X74551129Y-68997598I120825J84603D01*
G01*
X74792779Y-68828393D01*
G75*
G02*
X74998207Y-68864615I84603J-120825D01*
G01*
X75196091Y-69147222D01*
G75*
G02*
X75159869Y-69352650I-120825J-84603D01*
G01*
X74918219Y-69521855D01*
G75*
G02*
X74712791Y-69485633I-84603J120825D01*
G01*
G37*
%TD.AperFunction*%
%TD*%
%TO.P,R12,2*%
%TO.N,Net-(J2-PadA5)*%
%TA.AperFunction,SMDPad,CuDef*%
G36*
G01*
X72526824Y-70582890D02*
X72724708Y-70865497D01*
G75*
G02*
X72688486Y-71070925I-120825J-84603D01*
G01*
X72446836Y-71240130D01*
G75*
G02*
X72241408Y-71203908I-84603J120825D01*
G01*
X72043524Y-70921301D01*
G75*
G02*
X72079746Y-70715873I120825J84603D01*
G01*
X72321396Y-70546668D01*
G75*
G02*
X72526824Y-70582890I84603J-120825D01*
G01*
G37*
%TD.AperFunction*%
%TO.P,R12,1*%
%TO.N,GND*%
%TA.AperFunction,SMDPad,CuDef*%
G36*
G01*
X73321402Y-70026520D02*
X73519286Y-70309127D01*
G75*
G02*
X73483064Y-70514555I-120825J-84603D01*
G01*
X73241414Y-70683760D01*
G75*
G02*
X73035986Y-70647538I-84603J120825D01*
G01*
X72838102Y-70364931D01*
G75*
G02*
X72874324Y-70159503I120825J84603D01*
G01*
X73115974Y-69990298D01*
G75*
G02*
X73321402Y-70026520I84603J-120825D01*
G01*
G37*
%TD.AperFunction*%
%TD*%
%TO.P,R11,2*%
%TO.N,Net-(D5-Pad1)*%
%TA.AperFunction,SMDPad,CuDef*%
G36*
G01*
X77160274Y-62894483D02*
X76815274Y-62894483D01*
G75*
G02*
X76667774Y-62746983I0J147500D01*
G01*
X76667774Y-62451983D01*
G75*
G02*
X76815274Y-62304483I147500J0D01*
G01*
X77160274Y-62304483D01*
G75*
G02*
X77307774Y-62451983I0J-147500D01*
G01*
X77307774Y-62746983D01*
G75*
G02*
X77160274Y-62894483I-147500J0D01*
G01*
G37*
%TD.AperFunction*%
%TO.P,R11,1*%
%TO.N,VCC*%
%TA.AperFunction,SMDPad,CuDef*%
G36*
G01*
X77160274Y-63864483D02*
X76815274Y-63864483D01*
G75*
G02*
X76667774Y-63716983I0J147500D01*
G01*
X76667774Y-63421983D01*
G75*
G02*
X76815274Y-63274483I147500J0D01*
G01*
X77160274Y-63274483D01*
G75*
G02*
X77307774Y-63421983I0J-147500D01*
G01*
X77307774Y-63716983D01*
G75*
G02*
X77160274Y-63864483I-147500J0D01*
G01*
G37*
%TD.AperFunction*%
%TD*%
%TO.P,R10,2*%
%TO.N,Net-(Q1-Pad3)*%
%TA.AperFunction,SMDPad,CuDef*%
G36*
G01*
X84427771Y-64371985D02*
X84427771Y-64716985D01*
G75*
G02*
X84280271Y-64864485I-147500J0D01*
G01*
X83985271Y-64864485D01*
G75*
G02*
X83837771Y-64716985I0J147500D01*
G01*
X83837771Y-64371985D01*
G75*
G02*
X83985271Y-64224485I147500J0D01*
G01*
X84280271Y-64224485D01*
G75*
G02*
X84427771Y-64371985I0J-147500D01*
G01*
G37*
%TD.AperFunction*%
%TO.P,R10,1*%
%TO.N,Net-(D4-Pad1)*%
%TA.AperFunction,SMDPad,CuDef*%
G36*
G01*
X85397771Y-64371985D02*
X85397771Y-64716985D01*
G75*
G02*
X85250271Y-64864485I-147500J0D01*
G01*
X84955271Y-64864485D01*
G75*
G02*
X84807771Y-64716985I0J147500D01*
G01*
X84807771Y-64371985D01*
G75*
G02*
X84955271Y-64224485I147500J0D01*
G01*
X85250271Y-64224485D01*
G75*
G02*
X85397771Y-64371985I0J-147500D01*
G01*
G37*
%TD.AperFunction*%
%TD*%
%TO.P,R9,2*%
%TO.N,/LED_WHITE*%
%TA.AperFunction,SMDPad,CuDef*%
G36*
G01*
X82945272Y-60224485D02*
X83290272Y-60224485D01*
G75*
G02*
X83437772Y-60371985I0J-147500D01*
G01*
X83437772Y-60666985D01*
G75*
G02*
X83290272Y-60814485I-147500J0D01*
G01*
X82945272Y-60814485D01*
G75*
G02*
X82797772Y-60666985I0J147500D01*
G01*
X82797772Y-60371985D01*
G75*
G02*
X82945272Y-60224485I147500J0D01*
G01*
G37*
%TD.AperFunction*%
%TO.P,R9,1*%
%TO.N,Net-(D3-Pad1)*%
%TA.AperFunction,SMDPad,CuDef*%
G36*
G01*
X82945272Y-59254485D02*
X83290272Y-59254485D01*
G75*
G02*
X83437772Y-59401985I0J-147500D01*
G01*
X83437772Y-59696985D01*
G75*
G02*
X83290272Y-59844485I-147500J0D01*
G01*
X82945272Y-59844485D01*
G75*
G02*
X82797772Y-59696985I0J147500D01*
G01*
X82797772Y-59401985D01*
G75*
G02*
X82945272Y-59254485I147500J0D01*
G01*
G37*
%TD.AperFunction*%
%TD*%
%TO.P,R8,2*%
%TO.N,/LED_RED*%
%TA.AperFunction,SMDPad,CuDef*%
G36*
G01*
X80755272Y-65194485D02*
X81100272Y-65194485D01*
G75*
G02*
X81247772Y-65341985I0J-147500D01*
G01*
X81247772Y-65636985D01*
G75*
G02*
X81100272Y-65784485I-147500J0D01*
G01*
X80755272Y-65784485D01*
G75*
G02*
X80607772Y-65636985I0J147500D01*
G01*
X80607772Y-65341985D01*
G75*
G02*
X80755272Y-65194485I147500J0D01*
G01*
G37*
%TD.AperFunction*%
%TO.P,R8,1*%
%TO.N,Net-(D2-Pad1)*%
%TA.AperFunction,SMDPad,CuDef*%
G36*
G01*
X80755272Y-64224485D02*
X81100272Y-64224485D01*
G75*
G02*
X81247772Y-64371985I0J-147500D01*
G01*
X81247772Y-64666985D01*
G75*
G02*
X81100272Y-64814485I-147500J0D01*
G01*
X80755272Y-64814485D01*
G75*
G02*
X80607772Y-64666985I0J147500D01*
G01*
X80607772Y-64371985D01*
G75*
G02*
X80755272Y-64224485I147500J0D01*
G01*
G37*
%TD.AperFunction*%
%TD*%
%TO.P,R7,2*%
%TO.N,/LED_GREEN*%
%TA.AperFunction,SMDPad,CuDef*%
G36*
G01*
X80550273Y-59804483D02*
X80205273Y-59804483D01*
G75*
G02*
X80057773Y-59656983I0J147500D01*
G01*
X80057773Y-59361983D01*
G75*
G02*
X80205273Y-59214483I147500J0D01*
G01*
X80550273Y-59214483D01*
G75*
G02*
X80697773Y-59361983I0J-147500D01*
G01*
X80697773Y-59656983D01*
G75*
G02*
X80550273Y-59804483I-147500J0D01*
G01*
G37*
%TD.AperFunction*%
%TO.P,R7,1*%
%TO.N,Net-(D1-Pad1)*%
%TA.AperFunction,SMDPad,CuDef*%
G36*
G01*
X80550273Y-60774483D02*
X80205273Y-60774483D01*
G75*
G02*
X80057773Y-60626983I0J147500D01*
G01*
X80057773Y-60331983D01*
G75*
G02*
X80205273Y-60184483I147500J0D01*
G01*
X80550273Y-60184483D01*
G75*
G02*
X80697773Y-60331983I0J-147500D01*
G01*
X80697773Y-60626983D01*
G75*
G02*
X80550273Y-60774483I-147500J0D01*
G01*
G37*
%TD.AperFunction*%
%TD*%
%TO.P,R6,2*%
%TO.N,GND*%
%TA.AperFunction,SMDPad,CuDef*%
G36*
G01*
X78887773Y-63406985D02*
X78887773Y-63061985D01*
G75*
G02*
X79035273Y-62914485I147500J0D01*
G01*
X79330273Y-62914485D01*
G75*
G02*
X79477773Y-63061985I0J-147500D01*
G01*
X79477773Y-63406985D01*
G75*
G02*
X79330273Y-63554485I-147500J0D01*
G01*
X79035273Y-63554485D01*
G75*
G02*
X78887773Y-63406985I0J147500D01*
G01*
G37*
%TD.AperFunction*%
%TO.P,R6,1*%
%TO.N,/LED_BLUE*%
%TA.AperFunction,SMDPad,CuDef*%
G36*
G01*
X77917773Y-63406985D02*
X77917773Y-63061985D01*
G75*
G02*
X78065273Y-62914485I147500J0D01*
G01*
X78360273Y-62914485D01*
G75*
G02*
X78507773Y-63061985I0J-147500D01*
G01*
X78507773Y-63406985D01*
G75*
G02*
X78360273Y-63554485I-147500J0D01*
G01*
X78065273Y-63554485D01*
G75*
G02*
X77917773Y-63406985I0J147500D01*
G01*
G37*
%TD.AperFunction*%
%TD*%
%TO.P,R5,2*%
%TO.N,/LED_BLUE*%
%TA.AperFunction,SMDPad,CuDef*%
G36*
G01*
X78557771Y-66231983D02*
X78557771Y-66576983D01*
G75*
G02*
X78410271Y-66724483I-147500J0D01*
G01*
X78115271Y-66724483D01*
G75*
G02*
X77967771Y-66576983I0J147500D01*
G01*
X77967771Y-66231983D01*
G75*
G02*
X78115271Y-66084483I147500J0D01*
G01*
X78410271Y-66084483D01*
G75*
G02*
X78557771Y-66231983I0J-147500D01*
G01*
G37*
%TD.AperFunction*%
%TO.P,R5,1*%
%TO.N,Net-(Q1-Pad3)*%
%TA.AperFunction,SMDPad,CuDef*%
G36*
G01*
X79527771Y-66231983D02*
X79527771Y-66576983D01*
G75*
G02*
X79380271Y-66724483I-147500J0D01*
G01*
X79085271Y-66724483D01*
G75*
G02*
X78937771Y-66576983I0J147500D01*
G01*
X78937771Y-66231983D01*
G75*
G02*
X79085271Y-66084483I147500J0D01*
G01*
X79380271Y-66084483D01*
G75*
G02*
X79527771Y-66231983I0J-147500D01*
G01*
G37*
%TD.AperFunction*%
%TD*%
%TO.P,R4,2*%
%TO.N,GND*%
%TA.AperFunction,SMDPad,CuDef*%
G36*
G01*
X87110271Y-63244482D02*
X86765271Y-63244482D01*
G75*
G02*
X86617771Y-63096982I0J147500D01*
G01*
X86617771Y-62801982D01*
G75*
G02*
X86765271Y-62654482I147500J0D01*
G01*
X87110271Y-62654482D01*
G75*
G02*
X87257771Y-62801982I0J-147500D01*
G01*
X87257771Y-63096982D01*
G75*
G02*
X87110271Y-63244482I-147500J0D01*
G01*
G37*
%TD.AperFunction*%
%TO.P,R4,1*%
%TO.N,Net-(D4-Pad1)*%
%TA.AperFunction,SMDPad,CuDef*%
G36*
G01*
X87110271Y-64214482D02*
X86765271Y-64214482D01*
G75*
G02*
X86617771Y-64066982I0J147500D01*
G01*
X86617771Y-63771982D01*
G75*
G02*
X86765271Y-63624482I147500J0D01*
G01*
X87110271Y-63624482D01*
G75*
G02*
X87257771Y-63771982I0J-147500D01*
G01*
X87257771Y-64066982D01*
G75*
G02*
X87110271Y-64214482I-147500J0D01*
G01*
G37*
%TD.AperFunction*%
%TD*%
%TO.P,R3,2*%
%TO.N,GND*%
%TA.AperFunction,SMDPad,CuDef*%
G36*
G01*
X84440273Y-59844485D02*
X84095273Y-59844485D01*
G75*
G02*
X83947773Y-59696985I0J147500D01*
G01*
X83947773Y-59401985D01*
G75*
G02*
X84095273Y-59254485I147500J0D01*
G01*
X84440273Y-59254485D01*
G75*
G02*
X84587773Y-59401985I0J-147500D01*
G01*
X84587773Y-59696985D01*
G75*
G02*
X84440273Y-59844485I-147500J0D01*
G01*
G37*
%TD.AperFunction*%
%TO.P,R3,1*%
%TO.N,Net-(D3-Pad1)*%
%TA.AperFunction,SMDPad,CuDef*%
G36*
G01*
X84440273Y-60814485D02*
X84095273Y-60814485D01*
G75*
G02*
X83947773Y-60666985I0J147500D01*
G01*
X83947773Y-60371985D01*
G75*
G02*
X84095273Y-60224485I147500J0D01*
G01*
X84440273Y-60224485D01*
G75*
G02*
X84587773Y-60371985I0J-147500D01*
G01*
X84587773Y-60666985D01*
G75*
G02*
X84440273Y-60814485I-147500J0D01*
G01*
G37*
%TD.AperFunction*%
%TD*%
%TO.P,R2,2*%
%TO.N,GND*%
%TA.AperFunction,SMDPad,CuDef*%
G36*
G01*
X81875272Y-65224486D02*
X82220272Y-65224486D01*
G75*
G02*
X82367772Y-65371986I0J-147500D01*
G01*
X82367772Y-65666986D01*
G75*
G02*
X82220272Y-65814486I-147500J0D01*
G01*
X81875272Y-65814486D01*
G75*
G02*
X81727772Y-65666986I0J147500D01*
G01*
X81727772Y-65371986D01*
G75*
G02*
X81875272Y-65224486I147500J0D01*
G01*
G37*
%TD.AperFunction*%
%TO.P,R2,1*%
%TO.N,Net-(D2-Pad1)*%
%TA.AperFunction,SMDPad,CuDef*%
G36*
G01*
X81875272Y-64254486D02*
X82220272Y-64254486D01*
G75*
G02*
X82367772Y-64401986I0J-147500D01*
G01*
X82367772Y-64696986D01*
G75*
G02*
X82220272Y-64844486I-147500J0D01*
G01*
X81875272Y-64844486D01*
G75*
G02*
X81727772Y-64696986I0J147500D01*
G01*
X81727772Y-64401986D01*
G75*
G02*
X81875272Y-64254486I147500J0D01*
G01*
G37*
%TD.AperFunction*%
%TD*%
%TO.P,R1,2*%
%TO.N,GND*%
%TA.AperFunction,SMDPad,CuDef*%
G36*
G01*
X81630272Y-59754483D02*
X81285272Y-59754483D01*
G75*
G02*
X81137772Y-59606983I0J147500D01*
G01*
X81137772Y-59311983D01*
G75*
G02*
X81285272Y-59164483I147500J0D01*
G01*
X81630272Y-59164483D01*
G75*
G02*
X81777772Y-59311983I0J-147500D01*
G01*
X81777772Y-59606983D01*
G75*
G02*
X81630272Y-59754483I-147500J0D01*
G01*
G37*
%TD.AperFunction*%
%TO.P,R1,1*%
%TO.N,Net-(D1-Pad1)*%
%TA.AperFunction,SMDPad,CuDef*%
G36*
G01*
X81630272Y-60724483D02*
X81285272Y-60724483D01*
G75*
G02*
X81137772Y-60576983I0J147500D01*
G01*
X81137772Y-60281983D01*
G75*
G02*
X81285272Y-60134483I147500J0D01*
G01*
X81630272Y-60134483D01*
G75*
G02*
X81777772Y-60281983I0J-147500D01*
G01*
X81777772Y-60576983D01*
G75*
G02*
X81630272Y-60724483I-147500J0D01*
G01*
G37*
%TD.AperFunction*%
%TD*%
D12*
%TO.P,Q1,3*%
%TO.N,Net-(Q1-Pad3)*%
X78727773Y-65379482D03*
D13*
%TO.P,Q1,2*%
%TO.N,GND*%
X79127773Y-64229482D03*
%TO.P,Q1,1*%
%TO.N,/LED_BLUE*%
X78327773Y-64229482D03*
%TD*%
%TO.P,D4,1*%
%TO.N,Net-(D4-Pad1)*%
%TA.AperFunction,SMDPad,CuDef*%
G36*
G01*
X85784024Y-63679484D02*
X85271524Y-63679484D01*
G75*
G02*
X85052774Y-63460734I0J218750D01*
G01*
X85052774Y-63023234D01*
G75*
G02*
X85271524Y-62804484I218750J0D01*
G01*
X85784024Y-62804484D01*
G75*
G02*
X86002774Y-63023234I0J-218750D01*
G01*
X86002774Y-63460734D01*
G75*
G02*
X85784024Y-63679484I-218750J0D01*
G01*
G37*
%TD.AperFunction*%
%TO.P,D4,2*%
%TO.N,/LED_PWR*%
%TA.AperFunction,SMDPad,CuDef*%
G36*
G01*
X85784024Y-62104484D02*
X85271524Y-62104484D01*
G75*
G02*
X85052774Y-61885734I0J218750D01*
G01*
X85052774Y-61448234D01*
G75*
G02*
X85271524Y-61229484I218750J0D01*
G01*
X85784024Y-61229484D01*
G75*
G02*
X86002774Y-61448234I0J-218750D01*
G01*
X86002774Y-61885734D01*
G75*
G02*
X85784024Y-62104484I-218750J0D01*
G01*
G37*
%TD.AperFunction*%
%TD*%
%TO.P,D3,1*%
%TO.N,Net-(D3-Pad1)*%
%TA.AperFunction,SMDPad,CuDef*%
G36*
G01*
X84071523Y-61229484D02*
X84584023Y-61229484D01*
G75*
G02*
X84802773Y-61448234I0J-218750D01*
G01*
X84802773Y-61885734D01*
G75*
G02*
X84584023Y-62104484I-218750J0D01*
G01*
X84071523Y-62104484D01*
G75*
G02*
X83852773Y-61885734I0J218750D01*
G01*
X83852773Y-61448234D01*
G75*
G02*
X84071523Y-61229484I218750J0D01*
G01*
G37*
%TD.AperFunction*%
%TO.P,D3,2*%
%TO.N,/LED_PWR*%
%TA.AperFunction,SMDPad,CuDef*%
G36*
G01*
X84071523Y-62804484D02*
X84584023Y-62804484D01*
G75*
G02*
X84802773Y-63023234I0J-218750D01*
G01*
X84802773Y-63460734D01*
G75*
G02*
X84584023Y-63679484I-218750J0D01*
G01*
X84071523Y-63679484D01*
G75*
G02*
X83852773Y-63460734I0J218750D01*
G01*
X83852773Y-63023234D01*
G75*
G02*
X84071523Y-62804484I218750J0D01*
G01*
G37*
%TD.AperFunction*%
%TD*%
%TO.P,D2,1*%
%TO.N,Net-(D2-Pad1)*%
%TA.AperFunction,SMDPad,CuDef*%
G36*
G01*
X82284023Y-63679485D02*
X81771523Y-63679485D01*
G75*
G02*
X81552773Y-63460735I0J218750D01*
G01*
X81552773Y-63023235D01*
G75*
G02*
X81771523Y-62804485I218750J0D01*
G01*
X82284023Y-62804485D01*
G75*
G02*
X82502773Y-63023235I0J-218750D01*
G01*
X82502773Y-63460735D01*
G75*
G02*
X82284023Y-63679485I-218750J0D01*
G01*
G37*
%TD.AperFunction*%
%TO.P,D2,2*%
%TO.N,/LED_PWR*%
%TA.AperFunction,SMDPad,CuDef*%
G36*
G01*
X82284023Y-62104485D02*
X81771523Y-62104485D01*
G75*
G02*
X81552773Y-61885735I0J218750D01*
G01*
X81552773Y-61448235D01*
G75*
G02*
X81771523Y-61229485I218750J0D01*
G01*
X82284023Y-61229485D01*
G75*
G02*
X82502773Y-61448235I0J-218750D01*
G01*
X82502773Y-61885735D01*
G75*
G02*
X82284023Y-62104485I-218750J0D01*
G01*
G37*
%TD.AperFunction*%
%TD*%
%TO.P,D1,1*%
%TO.N,Net-(D1-Pad1)*%
%TA.AperFunction,SMDPad,CuDef*%
G36*
G01*
X80471523Y-61229484D02*
X80984023Y-61229484D01*
G75*
G02*
X81202773Y-61448234I0J-218750D01*
G01*
X81202773Y-61885734D01*
G75*
G02*
X80984023Y-62104484I-218750J0D01*
G01*
X80471523Y-62104484D01*
G75*
G02*
X80252773Y-61885734I0J218750D01*
G01*
X80252773Y-61448234D01*
G75*
G02*
X80471523Y-61229484I218750J0D01*
G01*
G37*
%TD.AperFunction*%
%TO.P,D1,2*%
%TO.N,/LED_PWR*%
%TA.AperFunction,SMDPad,CuDef*%
G36*
G01*
X80471523Y-62804484D02*
X80984023Y-62804484D01*
G75*
G02*
X81202773Y-63023234I0J-218750D01*
G01*
X81202773Y-63460734D01*
G75*
G02*
X80984023Y-63679484I-218750J0D01*
G01*
X80471523Y-63679484D01*
G75*
G02*
X80252773Y-63460734I0J218750D01*
G01*
X80252773Y-63023234D01*
G75*
G02*
X80471523Y-62804484I218750J0D01*
G01*
G37*
%TD.AperFunction*%
%TD*%
%TA.AperFunction,SMDPad,CuDef*%
D14*
%TO.P,J2,B1*%
%TO.N,GND*%
G36*
X75710229Y-67479788D02*
G01*
X74878543Y-66292018D01*
X75370035Y-65947872D01*
X76201721Y-67135642D01*
X75710229Y-67479788D01*
G37*
%TD.AperFunction*%
%TA.AperFunction,SMDPad,CuDef*%
%TO.P,J2,A9*%
%TO.N,/VBUS*%
G36*
X75054907Y-67938649D02*
G01*
X74223221Y-66750879D01*
X74714713Y-66406733D01*
X75546399Y-67594503D01*
X75054907Y-67938649D01*
G37*
%TD.AperFunction*%
%TA.AperFunction,SMDPad,CuDef*%
%TO.P,J2,B9*%
G36*
X71041062Y-70749173D02*
G01*
X70209376Y-69561403D01*
X70700868Y-69217257D01*
X71532554Y-70405027D01*
X71041062Y-70749173D01*
G37*
%TD.AperFunction*%
%TA.AperFunction,SMDPad,CuDef*%
%TO.P,J2,B12*%
%TO.N,GND*%
G36*
X70385741Y-71208034D02*
G01*
X69554055Y-70020264D01*
X70045547Y-69676118D01*
X70877233Y-70863888D01*
X70385741Y-71208034D01*
G37*
%TD.AperFunction*%
%TA.AperFunction,SMDPad,CuDef*%
%TO.P,J2,A1*%
G36*
X70385741Y-71208034D02*
G01*
X69554055Y-70020264D01*
X70045547Y-69676118D01*
X70877233Y-70863888D01*
X70385741Y-71208034D01*
G37*
%TD.AperFunction*%
%TA.AperFunction,SMDPad,CuDef*%
%TO.P,J2,A4*%
%TO.N,/VBUS*%
G36*
X71041062Y-70749173D02*
G01*
X70209376Y-69561403D01*
X70700868Y-69217257D01*
X71532554Y-70405027D01*
X71041062Y-70749173D01*
G37*
%TD.AperFunction*%
%TA.AperFunction,SMDPad,CuDef*%
%TO.P,J2,B4*%
G36*
X75054907Y-67938649D02*
G01*
X74223221Y-66750879D01*
X74714713Y-66406733D01*
X75546399Y-67594503D01*
X75054907Y-67938649D01*
G37*
%TD.AperFunction*%
%TA.AperFunction,SMDPad,CuDef*%
%TO.P,J2,A12*%
%TO.N,GND*%
G36*
X75710229Y-67479788D02*
G01*
X74878543Y-66292018D01*
X75370035Y-65947872D01*
X76201721Y-67135642D01*
X75710229Y-67479788D01*
G37*
%TD.AperFunction*%
%TA.AperFunction,SMDPad,CuDef*%
%TO.P,J2,B8*%
%TO.N,Net-(J2-PadB8)*%
G36*
X71737342Y-70261634D02*
G01*
X70905656Y-69073863D01*
X71151402Y-68901790D01*
X71983088Y-70089561D01*
X71737342Y-70261634D01*
G37*
%TD.AperFunction*%
%TA.AperFunction,SMDPad,CuDef*%
%TO.P,J2,A5*%
%TO.N,Net-(J2-PadA5)*%
G36*
X72146918Y-69974846D02*
G01*
X71315232Y-68787075D01*
X71560978Y-68615002D01*
X72392664Y-69802773D01*
X72146918Y-69974846D01*
G37*
%TD.AperFunction*%
%TA.AperFunction,SMDPad,CuDef*%
%TO.P,J2,B7*%
%TO.N,/USB_D-*%
G36*
X72556494Y-69688057D02*
G01*
X71724808Y-68500286D01*
X71970554Y-68328213D01*
X72802240Y-69515984D01*
X72556494Y-69688057D01*
G37*
%TD.AperFunction*%
%TA.AperFunction,SMDPad,CuDef*%
%TO.P,J2,A7*%
G36*
X73375646Y-69114481D02*
G01*
X72543960Y-67926710D01*
X72789706Y-67754637D01*
X73621392Y-68942408D01*
X73375646Y-69114481D01*
G37*
%TD.AperFunction*%
%TA.AperFunction,SMDPad,CuDef*%
%TO.P,J2,B6*%
%TO.N,/USB_D+*%
G36*
X73785222Y-68827693D02*
G01*
X72953536Y-67639922D01*
X73199282Y-67467849D01*
X74030968Y-68655620D01*
X73785222Y-68827693D01*
G37*
%TD.AperFunction*%
%TA.AperFunction,SMDPad,CuDef*%
%TO.P,J2,A8*%
%TO.N,Net-(J2-PadA8)*%
G36*
X74194798Y-68540904D02*
G01*
X73363112Y-67353133D01*
X73608858Y-67181060D01*
X74440544Y-68368831D01*
X74194798Y-68540904D01*
G37*
%TD.AperFunction*%
%TA.AperFunction,SMDPad,CuDef*%
%TO.P,J2,B5*%
%TO.N,Net-(J2-PadB5)*%
G36*
X74604374Y-68254116D02*
G01*
X73772688Y-67066345D01*
X74018434Y-66894272D01*
X74850120Y-68082043D01*
X74604374Y-68254116D01*
G37*
%TD.AperFunction*%
%TA.AperFunction,SMDPad,CuDef*%
%TO.P,J2,A6*%
%TO.N,/USB_D+*%
G36*
X72966070Y-69401269D02*
G01*
X72134384Y-68213498D01*
X72380130Y-68041425D01*
X73211816Y-69229196D01*
X72966070Y-69401269D01*
G37*
%TD.AperFunction*%
%TO.P,J2,S1*%
%TO.N,GND*%
%TA.AperFunction,ComponentPad*%
G36*
G01*
X75797693Y-66087901D02*
X75166759Y-65186833D01*
G75*
G02*
X75289547Y-64490469I409576J286788D01*
G01*
X75289547Y-64490469D01*
G75*
G02*
X75985911Y-64613257I286788J-409576D01*
G01*
X76616845Y-65514325D01*
G75*
G02*
X76494057Y-66210689I-409576J-286788D01*
G01*
X76494057Y-66210689D01*
G75*
G02*
X75797693Y-66087901I-286788J409576D01*
G01*
G37*
%TD.AperFunction*%
%TA.AperFunction,ComponentPad*%
G36*
G01*
X68720219Y-71043601D02*
X68089285Y-70142533D01*
G75*
G02*
X68212073Y-69446169I409576J286788D01*
G01*
X68212073Y-69446169D01*
G75*
G02*
X68908437Y-69568957I286788J-409576D01*
G01*
X69539371Y-70470025D01*
G75*
G02*
X69416583Y-71166389I-409576J-286788D01*
G01*
X69416583Y-71166389D01*
G75*
G02*
X68720219Y-71043601I-286788J409576D01*
G01*
G37*
%TD.AperFunction*%
%TA.AperFunction,ComponentPad*%
G36*
G01*
X66179276Y-67414758D02*
X65835130Y-66923266D01*
G75*
G02*
X65957918Y-66226902I409576J286788D01*
G01*
X65957918Y-66226902D01*
G75*
G02*
X66654282Y-66349690I286788J-409576D01*
G01*
X66998428Y-66841182D01*
G75*
G02*
X66875640Y-67537546I-409576J-286788D01*
G01*
X66875640Y-67537546D01*
G75*
G02*
X66179276Y-67414758I-286788J409576D01*
G01*
G37*
%TD.AperFunction*%
%TA.AperFunction,ComponentPad*%
G36*
G01*
X73256750Y-62459057D02*
X72912604Y-61967565D01*
G75*
G02*
X73035392Y-61271201I409576J286788D01*
G01*
X73035392Y-61271201D01*
G75*
G02*
X73731756Y-61393989I286788J-409576D01*
G01*
X74075902Y-61885481D01*
G75*
G02*
X73953114Y-62581845I-409576J-286788D01*
G01*
X73953114Y-62581845D01*
G75*
G02*
X73256750Y-62459057I-286788J409576D01*
G01*
G37*
%TD.AperFunction*%
%TD*%
D15*
%TO.N,GND*%
X70110000Y-64490000D03*
X69610000Y-63780000D03*
X86927774Y-62094483D03*
X85317773Y-59764483D03*
X82287775Y-59364483D03*
X74007678Y-69768775D03*
X83100527Y-65508445D03*
X77990000Y-62250000D03*
X77850000Y-65110000D03*
X68870000Y-73890000D03*
X66780000Y-73550000D03*
X83010000Y-63160000D03*
%TO.N,VCC*%
X76141896Y-63980053D03*
%TO.N,/LED_GREEN*%
X69784104Y-72974405D03*
X79497771Y-59684486D03*
%TO.N,/LED_RED*%
X70619707Y-72877617D03*
X80042094Y-65642292D03*
%TO.N,/LED_WHITE*%
X71123497Y-72008657D03*
X83207773Y-61414484D03*
%TO.N,/LED_BLUE*%
X71927861Y-71729691D03*
X78159994Y-67536814D03*
D16*
%TO.N,/USB_D-*%
X71013813Y-66957589D03*
%TO.N,/USB_D+*%
X71841157Y-66378277D03*
D15*
%TO.N,Net-(Q1-Pad3)*%
X83397770Y-63924486D03*
X79367236Y-64989191D03*
%TO.N,/LED_PWR*%
X83340000Y-62370000D03*
%TO.N,/LED_PWR_ON*%
X76051594Y-60466579D03*
X72762700Y-64942303D03*
%TO.N,/VBUS*%
X68739042Y-68660270D03*
%TO.N,+5V*%
X64761611Y-68210244D03*
X67547567Y-66418199D03*
%TD*%
D17*
%TO.N,Net-(J2-PadA5)*%
X72502623Y-70221326D02*
X72384117Y-70893397D01*
X71853946Y-69294926D02*
X72502623Y-70221326D01*
%TO.N,Net-(J2-PadB5)*%
X74957273Y-68496595D02*
X75650077Y-68618756D01*
X74311404Y-67574196D02*
X74957273Y-68496595D01*
D18*
%TO.N,Net-(D1-Pad1)*%
X81407771Y-60479485D02*
X81457774Y-60429486D01*
X80377773Y-60479482D02*
X81407771Y-60479485D01*
X80437771Y-60539485D02*
X80377773Y-60479482D01*
X80437772Y-61414484D02*
X80437771Y-60539485D01*
X80727774Y-61666985D02*
X80690273Y-61666986D01*
X80690273Y-61666986D02*
X80437772Y-61414484D01*
%TO.N,Net-(D2-Pad1)*%
X82027774Y-64529485D02*
X82047770Y-64549484D01*
X82027773Y-63241985D02*
X82027774Y-64529485D01*
X80957774Y-64549485D02*
X80927774Y-64519487D01*
X82047770Y-64549484D02*
X80957774Y-64549485D01*
%TO.N,Net-(D3-Pad1)*%
X84327774Y-60579487D02*
X84267774Y-60519483D01*
X84327773Y-61666986D02*
X84327774Y-60579487D01*
X84141359Y-60519484D02*
X83171359Y-59549484D01*
X83171359Y-59549484D02*
X83117774Y-59549486D01*
X84267774Y-60519483D02*
X84141359Y-60519484D01*
%TO.N,Net-(D4-Pad1)*%
X85527771Y-64119484D02*
X85527773Y-63241983D01*
X85102770Y-64544484D02*
X85527771Y-64119484D01*
X85700271Y-63414483D02*
X85527773Y-63241983D01*
X86107771Y-63414485D02*
X85700271Y-63414483D01*
X86937774Y-63919484D02*
X86612773Y-63919482D01*
X86612773Y-63919482D02*
X86107771Y-63414485D01*
%TO.N,GND*%
X86937771Y-62949483D02*
X86937773Y-62104484D01*
X86937773Y-62104484D02*
X86927774Y-62094483D01*
X84267771Y-59549484D02*
X85102773Y-59549484D01*
X85102773Y-59549484D02*
X85317773Y-59764483D01*
X81457772Y-59459480D02*
X82192772Y-59459483D01*
X82192772Y-59459483D02*
X82287775Y-59364483D01*
D19*
X73178692Y-70337027D02*
X73993750Y-69766321D01*
X73993750Y-69766321D02*
X74007678Y-69768775D01*
X74855501Y-69175123D02*
X74007678Y-69768775D01*
D18*
X83089487Y-65519484D02*
X83100527Y-65508445D01*
X82047771Y-65519486D02*
X83089487Y-65519484D01*
D20*
X79182773Y-62862773D02*
X78570000Y-62250000D01*
X78570000Y-62250000D02*
X77990000Y-62250000D01*
X79182773Y-63234485D02*
X79182773Y-62862773D01*
D18*
%TO.N,VCC*%
X76552465Y-63569483D02*
X76141896Y-63980053D01*
X76987774Y-63569485D02*
X76552465Y-63569483D01*
%TO.N,/LED_GREEN*%
X79672771Y-59509484D02*
X79497771Y-59684486D01*
X80377774Y-59509485D02*
X79672771Y-59509484D01*
%TO.N,/LED_RED*%
X80927772Y-65489485D02*
X80194902Y-65489485D01*
X80194902Y-65489485D02*
X80042094Y-65642292D01*
%TO.N,/LED_WHITE*%
X83117771Y-61324484D02*
X83207773Y-61414484D01*
X83117773Y-60519485D02*
X83117771Y-61324484D01*
%TO.N,/LED_BLUE*%
X78212772Y-63234484D02*
X78327773Y-63349485D01*
X78327773Y-63349485D02*
X78327774Y-64229483D01*
X78262771Y-66404484D02*
X78262771Y-67434037D01*
X78262771Y-67434037D02*
X78159994Y-67536814D01*
X78262771Y-66404483D02*
X78144483Y-66404483D01*
X77199999Y-65459999D02*
X77199999Y-64550001D01*
X78144483Y-66404483D02*
X77199999Y-65459999D01*
X77520518Y-64229482D02*
X78327773Y-64229482D01*
X77199999Y-64550001D02*
X77520518Y-64229482D01*
D17*
%TO.N,/USB_D-*%
X72944530Y-69738027D02*
X72750664Y-69703845D01*
X73537842Y-69322588D02*
X72944530Y-69738027D01*
X72750664Y-69703845D02*
X72263523Y-69008137D01*
X73571365Y-69132478D02*
X73537842Y-69322588D01*
X73082678Y-68434560D02*
X73571365Y-69132478D01*
X72263523Y-69008137D02*
X70976377Y-67169899D01*
X70976377Y-67169899D02*
X71013813Y-66957589D01*
%TO.N,/USB_D+*%
X72184412Y-68023431D02*
X72242005Y-67696812D01*
X72673099Y-68721349D02*
X72184412Y-68023431D01*
X72674739Y-67393810D02*
X73005112Y-67452063D01*
X73005112Y-67452063D02*
X73492255Y-68147772D01*
X72242005Y-67696812D02*
X72395946Y-67589024D01*
X71841157Y-66378277D02*
X72581071Y-67434982D01*
X72581071Y-67434982D02*
X72608924Y-67439892D01*
X72395946Y-67589024D02*
X72608924Y-67439892D01*
X72608924Y-67439892D02*
X72674739Y-67393810D01*
D18*
%TO.N,Net-(Q1-Pad3)*%
X84132773Y-64544485D02*
X84017775Y-64544484D01*
X84017775Y-64544484D02*
X83397770Y-63924486D01*
X79232773Y-65884484D02*
X79232772Y-66404485D01*
X78727772Y-65379483D02*
X79232773Y-65884484D01*
X79232773Y-65884484D02*
X79232773Y-65123655D01*
X79232773Y-65123655D02*
X79367236Y-64989191D01*
D20*
%TO.N,/LED_PWR*%
X82027772Y-61666985D02*
X82027773Y-61717044D01*
X84327772Y-63091924D02*
X84327774Y-63241984D01*
X84327774Y-63241984D02*
X83965272Y-63241985D01*
X80727772Y-63017046D02*
X80727771Y-63241986D01*
X85527773Y-61666986D02*
X85527772Y-61891925D01*
X82027773Y-61717044D02*
X80727772Y-63017046D01*
X85527772Y-61891925D02*
X84327772Y-63091924D01*
X79197772Y-61844483D02*
X79197772Y-60954485D01*
X80595271Y-63241983D02*
X79197772Y-61844483D01*
X80727771Y-63241986D02*
X80595271Y-63241983D01*
X82730788Y-62370000D02*
X83340000Y-62370000D01*
X82027773Y-61666985D02*
X82730788Y-62370000D01*
X83455789Y-62370000D02*
X84327773Y-63241984D01*
X83340000Y-62370000D02*
X83455789Y-62370000D01*
D18*
%TO.N,/LED_PWR_ON*%
X77197773Y-60304484D02*
X76213690Y-60304486D01*
X76213690Y-60304486D02*
X76051594Y-60466579D01*
D20*
%TO.N,/VBUS*%
X70114441Y-68902788D02*
X70870966Y-69983216D01*
X68739042Y-68660270D02*
X69546826Y-68802702D01*
X69546826Y-68802702D02*
X70114441Y-68902788D01*
X71415220Y-65480162D02*
X69952027Y-66504701D01*
X74884811Y-67172693D02*
X74021472Y-65939714D01*
X69952027Y-66504701D02*
X69546826Y-68802702D01*
X74021472Y-65939714D02*
X71415220Y-65480162D01*
%TO.N,+5V*%
X64761611Y-68210244D02*
X66321465Y-68485291D01*
X66321465Y-68485291D02*
X67468279Y-67682280D01*
X67468279Y-67682280D02*
X67662280Y-66582030D01*
X67662280Y-66582030D02*
X67547567Y-66418199D01*
D18*
%TO.N,Net-(D5-Pad1)*%
X76987775Y-61814483D02*
X77197772Y-61604485D01*
X76987775Y-62599483D02*
X76987775Y-61814483D01*
%TD*%
D17*
%TO.N,GND*%
G36*
X75434094Y-60405761D02*
G01*
X75434094Y-60527397D01*
X75457824Y-60646697D01*
X75504372Y-60759075D01*
X75571950Y-60860212D01*
X75598725Y-60886987D01*
X75467709Y-60886987D01*
X75251810Y-60929932D01*
X75048438Y-61014171D01*
X74865408Y-61136468D01*
X74709754Y-61292122D01*
X74587457Y-61475152D01*
X74503218Y-61678524D01*
X74460273Y-61894423D01*
X74460273Y-62114551D01*
X74503218Y-62330450D01*
X74587457Y-62533822D01*
X74709754Y-62716852D01*
X74865408Y-62872506D01*
X75048438Y-62994803D01*
X75251810Y-63079042D01*
X75467709Y-63121987D01*
X75687837Y-63121987D01*
X75903736Y-63079042D01*
X76107108Y-62994803D01*
X76290138Y-62872506D01*
X76354738Y-62807906D01*
X76357702Y-62838000D01*
X76384251Y-62925519D01*
X76427363Y-63006177D01*
X76485383Y-63076874D01*
X76494655Y-63084483D01*
X76485383Y-63092092D01*
X76472672Y-63107580D01*
X76460822Y-63108747D01*
X76460819Y-63108748D01*
X76460818Y-63108748D01*
X76372694Y-63135481D01*
X76323683Y-63161677D01*
X76291481Y-63178889D01*
X76291480Y-63178890D01*
X76291478Y-63178891D01*
X76238132Y-63222671D01*
X76238129Y-63222674D01*
X76220295Y-63237310D01*
X76205658Y-63255145D01*
X76098251Y-63362553D01*
X76081078Y-63362553D01*
X75961778Y-63386283D01*
X75849400Y-63432831D01*
X75748263Y-63500409D01*
X75662252Y-63586420D01*
X75594674Y-63687557D01*
X75548126Y-63799935D01*
X75524396Y-63919235D01*
X75524396Y-64040871D01*
X75548126Y-64160171D01*
X75568768Y-64210005D01*
X75497787Y-64211094D01*
X75364889Y-64239656D01*
X75331996Y-64254222D01*
X75261416Y-64339586D01*
X75907396Y-65262141D01*
X76421004Y-64902508D01*
X76206890Y-64596722D01*
X76322014Y-64573823D01*
X76434392Y-64527275D01*
X76535529Y-64459697D01*
X76621540Y-64373686D01*
X76689118Y-64272549D01*
X76729494Y-64175071D01*
X76815274Y-64183519D01*
X76905337Y-64183519D01*
X76885667Y-64203189D01*
X76867828Y-64217829D01*
X76853187Y-64235669D01*
X76809406Y-64289015D01*
X76765996Y-64370232D01*
X76752702Y-64414056D01*
X76739410Y-64457876D01*
X76739264Y-64458356D01*
X76730237Y-64550001D01*
X76732500Y-64572975D01*
X76732499Y-65347368D01*
X76493849Y-65006541D01*
X75980240Y-65366173D01*
X76626220Y-66288727D01*
X76730576Y-66251601D01*
X76755513Y-66225674D01*
X76827806Y-66110559D01*
X76876252Y-65983552D01*
X76898990Y-65849535D01*
X76898134Y-65819278D01*
X77648735Y-66569880D01*
X77648735Y-66576983D01*
X77657699Y-66668000D01*
X77684248Y-66755519D01*
X77727360Y-66836177D01*
X77785380Y-66906874D01*
X77795271Y-66914992D01*
X77795272Y-67037852D01*
X77766361Y-67057170D01*
X77680350Y-67143181D01*
X77612772Y-67244318D01*
X77566224Y-67356696D01*
X77542494Y-67475996D01*
X77542494Y-67597632D01*
X77566224Y-67716932D01*
X77612772Y-67829310D01*
X77680350Y-67930447D01*
X77766361Y-68016458D01*
X77793737Y-68034750D01*
X77455302Y-68198174D01*
X77453834Y-68198952D01*
X77452314Y-68199636D01*
X77434248Y-68209334D01*
X76291082Y-68871336D01*
X76304659Y-68844545D01*
X76329292Y-68756468D01*
X76336269Y-68665277D01*
X76325321Y-68574478D01*
X76296870Y-68487559D01*
X76252008Y-68407861D01*
X76054124Y-68125254D01*
X75994576Y-68055839D01*
X75922630Y-67999376D01*
X75841051Y-67958033D01*
X75752973Y-67933400D01*
X75661783Y-67926423D01*
X75621685Y-67931258D01*
X75729390Y-67855842D01*
X75776859Y-67815120D01*
X75815471Y-67765921D01*
X75843743Y-67710134D01*
X75860588Y-67649903D01*
X75863986Y-67605488D01*
X75974213Y-67527502D01*
X75985908Y-67461174D01*
X75524538Y-66802268D01*
X75508155Y-66813740D01*
X75435311Y-66709708D01*
X75451694Y-66698236D01*
X74990323Y-66039331D01*
X74923995Y-66027635D01*
X74813011Y-66104542D01*
X74770113Y-66092544D01*
X74759675Y-66091745D01*
X74671968Y-65966486D01*
X75094356Y-65966486D01*
X75555726Y-66625392D01*
X75572109Y-66613920D01*
X75644953Y-66717953D01*
X75628570Y-66729424D01*
X76089941Y-67388329D01*
X76156269Y-67400025D01*
X76311516Y-67292446D01*
X76339997Y-67268013D01*
X76363164Y-67238493D01*
X76380127Y-67205021D01*
X76390235Y-67168882D01*
X76393097Y-67131466D01*
X76388605Y-67094211D01*
X76376932Y-67058548D01*
X76358524Y-67025847D01*
X76005665Y-66523519D01*
X75939340Y-66511824D01*
X75978349Y-66484509D01*
X75947503Y-66440456D01*
X76016188Y-66467679D01*
X76149901Y-66492149D01*
X76285817Y-66490064D01*
X76418715Y-66461502D01*
X76451608Y-66446936D01*
X76522188Y-66361572D01*
X75876208Y-65439017D01*
X75414308Y-65762444D01*
X75403275Y-65759358D01*
X75365858Y-65756495D01*
X75328603Y-65760987D01*
X75292940Y-65772661D01*
X75260240Y-65791068D01*
X75106051Y-65900158D01*
X75094356Y-65966486D01*
X74671968Y-65966486D01*
X74459966Y-65663715D01*
X74447434Y-65641452D01*
X74381061Y-65564082D01*
X74300870Y-65501148D01*
X74209941Y-65455068D01*
X74136362Y-65434489D01*
X74111770Y-65427611D01*
X74086307Y-65425663D01*
X73277663Y-65283078D01*
X73309922Y-65234799D01*
X73356470Y-65122421D01*
X73380200Y-65003121D01*
X73380200Y-64881485D01*
X73374261Y-64851623D01*
X74884614Y-64851623D01*
X74888459Y-64987501D01*
X74918738Y-65120019D01*
X74974288Y-65244084D01*
X75289755Y-65694617D01*
X75803364Y-65334985D01*
X75157384Y-64412431D01*
X75053028Y-64449557D01*
X75028091Y-64475484D01*
X74955798Y-64590599D01*
X74907352Y-64717606D01*
X74884614Y-64851623D01*
X73374261Y-64851623D01*
X73356470Y-64762185D01*
X73309922Y-64649807D01*
X73242344Y-64548670D01*
X73156333Y-64462659D01*
X73055196Y-64395081D01*
X72942818Y-64348533D01*
X72823518Y-64324803D01*
X72701882Y-64324803D01*
X72582582Y-64348533D01*
X72470204Y-64395081D01*
X72369067Y-64462659D01*
X72283056Y-64548670D01*
X72215478Y-64649807D01*
X72168930Y-64762185D01*
X72145200Y-64881485D01*
X72145200Y-65003121D01*
X72161748Y-65086312D01*
X71530118Y-64974939D01*
X71505517Y-64968059D01*
X71409610Y-64960722D01*
X71403876Y-64960283D01*
X71403875Y-64960283D01*
X71302671Y-64972485D01*
X71205791Y-65004198D01*
X71139211Y-65041675D01*
X71139207Y-65041677D01*
X71116959Y-65054201D01*
X71097581Y-65070825D01*
X69676034Y-66066204D01*
X69653765Y-66078739D01*
X69576395Y-66145112D01*
X69513462Y-66225303D01*
X69513461Y-66225305D01*
X69467381Y-66316232D01*
X69439924Y-66414404D01*
X69437975Y-66439875D01*
X69131206Y-68179644D01*
X69031538Y-68113048D01*
X68919160Y-68066500D01*
X68799860Y-68042770D01*
X68678224Y-68042770D01*
X68558924Y-68066500D01*
X68446546Y-68113048D01*
X68345409Y-68180626D01*
X68259398Y-68266637D01*
X68191820Y-68367774D01*
X68145272Y-68480152D01*
X68121542Y-68599452D01*
X68121542Y-68721088D01*
X68145272Y-68840388D01*
X68191820Y-68952766D01*
X68259398Y-69053903D01*
X68345409Y-69139914D01*
X68394076Y-69172433D01*
X68287415Y-69195356D01*
X68254522Y-69209922D01*
X68183942Y-69295286D01*
X68829922Y-70217841D01*
X69343530Y-69858208D01*
X69028063Y-69407675D01*
X68930480Y-69313042D01*
X68858000Y-69266205D01*
X68919160Y-69254040D01*
X68981016Y-69228419D01*
X69431946Y-69307929D01*
X69456529Y-69314804D01*
X69481983Y-69316752D01*
X69481991Y-69316753D01*
X69481993Y-69316753D01*
X69813479Y-69375203D01*
X69898007Y-69495921D01*
X69895187Y-69506003D01*
X69891789Y-69550418D01*
X69781563Y-69628404D01*
X69769868Y-69694732D01*
X70231238Y-70353638D01*
X70247621Y-70342166D01*
X70320465Y-70446199D01*
X70304082Y-70457670D01*
X70765453Y-71116575D01*
X70831781Y-71128271D01*
X70942764Y-71051365D01*
X70985662Y-71063362D01*
X71048022Y-71068133D01*
X71110114Y-71060647D01*
X71169553Y-71041190D01*
X71224053Y-71010512D01*
X71715545Y-70666366D01*
X71741407Y-70644180D01*
X71729534Y-70667608D01*
X71704901Y-70755685D01*
X71697924Y-70846876D01*
X71708872Y-70937675D01*
X71737323Y-71024594D01*
X71782185Y-71104292D01*
X71797414Y-71126041D01*
X71747743Y-71135921D01*
X71635365Y-71182469D01*
X71534228Y-71250047D01*
X71448217Y-71336058D01*
X71380639Y-71437195D01*
X71377246Y-71445386D01*
X71303615Y-71414887D01*
X71184315Y-71391157D01*
X71062679Y-71391157D01*
X70943379Y-71414887D01*
X70831001Y-71461435D01*
X70729864Y-71529013D01*
X70643853Y-71615024D01*
X70576275Y-71716161D01*
X70529727Y-71828539D01*
X70505997Y-71947839D01*
X70505997Y-72069475D01*
X70529727Y-72188775D01*
X70559278Y-72260117D01*
X70558889Y-72260117D01*
X70439589Y-72283847D01*
X70327211Y-72330395D01*
X70226074Y-72397973D01*
X70148693Y-72475354D01*
X70076600Y-72427183D01*
X69964222Y-72380635D01*
X69844922Y-72356905D01*
X69723286Y-72356905D01*
X69603986Y-72380635D01*
X69491608Y-72427183D01*
X69390471Y-72494761D01*
X69304460Y-72580772D01*
X69236882Y-72681909D01*
X69190334Y-72794287D01*
X69166604Y-72913587D01*
X69166604Y-73035223D01*
X69190334Y-73154523D01*
X69236882Y-73266901D01*
X69304460Y-73368038D01*
X69390471Y-73454049D01*
X69491608Y-73521627D01*
X69603986Y-73568175D01*
X69723286Y-73591905D01*
X69844922Y-73591905D01*
X69964222Y-73568175D01*
X70076600Y-73521627D01*
X70177737Y-73454049D01*
X70255118Y-73376668D01*
X70327211Y-73424839D01*
X70439589Y-73471387D01*
X70472154Y-73477865D01*
X69511476Y-74518030D01*
X66206625Y-73957599D01*
X66172997Y-73948448D01*
X66155785Y-73939895D01*
X66140555Y-73928156D01*
X66127896Y-73913684D01*
X66118290Y-73897030D01*
X66112101Y-73878823D01*
X66109566Y-73859766D01*
X66110782Y-73840576D01*
X66115701Y-73821989D01*
X66127193Y-73798451D01*
X66139197Y-73781134D01*
X66139225Y-73781083D01*
X66139869Y-73780161D01*
X66275080Y-73583544D01*
X66285957Y-73563852D01*
X66297870Y-73544786D01*
X66299814Y-73540801D01*
X66473600Y-73178036D01*
X66483460Y-73150942D01*
X66493663Y-73124079D01*
X66494796Y-73119792D01*
X66594810Y-72730182D01*
X66599218Y-72701699D01*
X66604010Y-72673357D01*
X66604289Y-72668932D01*
X66626724Y-72267316D01*
X66625516Y-72238511D01*
X66624712Y-72209784D01*
X66624126Y-72205399D01*
X66624126Y-72205390D01*
X66624124Y-72205382D01*
X66623990Y-72204422D01*
X66940273Y-72204422D01*
X66940273Y-72424550D01*
X66983218Y-72640449D01*
X67067457Y-72843821D01*
X67189754Y-73026851D01*
X67345408Y-73182505D01*
X67528438Y-73304802D01*
X67731810Y-73389041D01*
X67947709Y-73431986D01*
X68167837Y-73431986D01*
X68383736Y-73389041D01*
X68587108Y-73304802D01*
X68770138Y-73182505D01*
X68925792Y-73026851D01*
X69048089Y-72843821D01*
X69132328Y-72640449D01*
X69175273Y-72424550D01*
X69175273Y-72204422D01*
X69132328Y-71988523D01*
X69048089Y-71785151D01*
X68925792Y-71602121D01*
X68770138Y-71446467D01*
X68587108Y-71324170D01*
X68383736Y-71239931D01*
X68167837Y-71196986D01*
X67947709Y-71196986D01*
X67731810Y-71239931D01*
X67528438Y-71324170D01*
X67345408Y-71446467D01*
X67189754Y-71602121D01*
X67067457Y-71785151D01*
X66983218Y-71988523D01*
X66940273Y-72204422D01*
X66623990Y-72204422D01*
X66568124Y-71807064D01*
X66561355Y-71779090D01*
X66554976Y-71751020D01*
X66553547Y-71746822D01*
X66421244Y-71366960D01*
X66409168Y-71340829D01*
X66397461Y-71314537D01*
X66395244Y-71310697D01*
X66192229Y-70964704D01*
X66183856Y-70950420D01*
X66041389Y-70754350D01*
X68285126Y-70754350D01*
X68600593Y-71204883D01*
X68698176Y-71299516D01*
X68812346Y-71373293D01*
X68938714Y-71423379D01*
X69072427Y-71447849D01*
X69208343Y-71445764D01*
X69341241Y-71417202D01*
X69374134Y-71402636D01*
X69444714Y-71317272D01*
X68798734Y-70394717D01*
X68285126Y-70754350D01*
X66041389Y-70754350D01*
X65353263Y-69807323D01*
X67807140Y-69807323D01*
X67810985Y-69943201D01*
X67841264Y-70075719D01*
X67896814Y-70199784D01*
X68212281Y-70650317D01*
X68681348Y-70321873D01*
X68902766Y-70321873D01*
X69548746Y-71244427D01*
X69653102Y-71207301D01*
X69678039Y-71181374D01*
X69750332Y-71066259D01*
X69798778Y-70939252D01*
X69821516Y-70805235D01*
X69819426Y-70731379D01*
X69850273Y-70775433D01*
X69889284Y-70748117D01*
X69877589Y-70814444D01*
X70228938Y-71317829D01*
X70253371Y-71346311D01*
X70282890Y-71369478D01*
X70316362Y-71386441D01*
X70352501Y-71396548D01*
X70389918Y-71399411D01*
X70427173Y-71394919D01*
X70462836Y-71383245D01*
X70495536Y-71364838D01*
X70649725Y-71255748D01*
X70661420Y-71189420D01*
X70200050Y-70530514D01*
X70183667Y-70541986D01*
X70110823Y-70437953D01*
X70127206Y-70426482D01*
X69665835Y-69767577D01*
X69599507Y-69755881D01*
X69444260Y-69863460D01*
X69415779Y-69887893D01*
X69392612Y-69917413D01*
X69375649Y-69950885D01*
X69365541Y-69987024D01*
X69364667Y-69998447D01*
X68902766Y-70321873D01*
X68681348Y-70321873D01*
X68725890Y-70290685D01*
X68079910Y-69368131D01*
X67975554Y-69405257D01*
X67950617Y-69431184D01*
X67878324Y-69546299D01*
X67829878Y-69673306D01*
X67807140Y-69807323D01*
X65353263Y-69807323D01*
X64631463Y-68813954D01*
X64700793Y-68827744D01*
X64822429Y-68827744D01*
X64941729Y-68804014D01*
X65003584Y-68778393D01*
X66206570Y-68990514D01*
X66231169Y-68997394D01*
X66319601Y-69004159D01*
X66332808Y-69005170D01*
X66332810Y-69005170D01*
X66352472Y-69002799D01*
X66434014Y-68992968D01*
X66530893Y-68961256D01*
X66619726Y-68911253D01*
X66639117Y-68894618D01*
X67744291Y-68120765D01*
X67766541Y-68108241D01*
X67785919Y-68091617D01*
X67785922Y-68091615D01*
X67843911Y-68041868D01*
X67906845Y-67961677D01*
X67952926Y-67870749D01*
X67980382Y-67772577D01*
X67982330Y-67747111D01*
X68167505Y-66696921D01*
X68174382Y-66672333D01*
X68176701Y-66642032D01*
X68178854Y-66613886D01*
X68182159Y-66570691D01*
X68182159Y-66570685D01*
X68175571Y-66516045D01*
X68169958Y-66469486D01*
X68165067Y-66454544D01*
X68165067Y-66357381D01*
X68141337Y-66238081D01*
X68094789Y-66125703D01*
X68027211Y-66024566D01*
X67941200Y-65938555D01*
X67840063Y-65870977D01*
X67727685Y-65824429D01*
X67608385Y-65800699D01*
X67486749Y-65800699D01*
X67367449Y-65824429D01*
X67255071Y-65870977D01*
X67153934Y-65938555D01*
X67067923Y-66024566D01*
X67000345Y-66125703D01*
X66953797Y-66238081D01*
X66930067Y-66357381D01*
X66930067Y-66411426D01*
X66773908Y-66188408D01*
X66676326Y-66093775D01*
X66562155Y-66019998D01*
X66435787Y-65969912D01*
X66353703Y-65954890D01*
X66625866Y-65668201D01*
X68035824Y-64408045D01*
X69544280Y-63267667D01*
X70952141Y-62374594D01*
X72965051Y-62374594D01*
X73137124Y-62620339D01*
X73234706Y-62714972D01*
X73348877Y-62788749D01*
X73475245Y-62838835D01*
X73608957Y-62863305D01*
X73744874Y-62861220D01*
X73877772Y-62832658D01*
X73910665Y-62818092D01*
X73981244Y-62732728D01*
X73478659Y-62014961D01*
X72965051Y-62374594D01*
X70952141Y-62374594D01*
X71141117Y-62254718D01*
X72670894Y-61451944D01*
X72653197Y-61498338D01*
X72630459Y-61632355D01*
X72634304Y-61768233D01*
X72664583Y-61900751D01*
X72720133Y-62024816D01*
X72892206Y-62270561D01*
X73361273Y-61942117D01*
X73582691Y-61942117D01*
X74085277Y-62659883D01*
X74189633Y-62622757D01*
X74214570Y-62596830D01*
X74286863Y-62481715D01*
X74335309Y-62354708D01*
X74358047Y-62220691D01*
X74354202Y-62084813D01*
X74323923Y-61952295D01*
X74268373Y-61828230D01*
X74096300Y-61582485D01*
X73582691Y-61942117D01*
X73361273Y-61942117D01*
X73405815Y-61910929D01*
X73394343Y-61894546D01*
X73498376Y-61821702D01*
X73509847Y-61838085D01*
X74023455Y-61478452D01*
X73851382Y-61232707D01*
X73753800Y-61138074D01*
X73639629Y-61064297D01*
X73593469Y-61046002D01*
X74556406Y-60637479D01*
X75446520Y-60343293D01*
X75434094Y-60405761D01*
G37*
X75434094Y-60405761D02*
X75434094Y-60527397D01*
X75457824Y-60646697D01*
X75504372Y-60759075D01*
X75571950Y-60860212D01*
X75598725Y-60886987D01*
X75467709Y-60886987D01*
X75251810Y-60929932D01*
X75048438Y-61014171D01*
X74865408Y-61136468D01*
X74709754Y-61292122D01*
X74587457Y-61475152D01*
X74503218Y-61678524D01*
X74460273Y-61894423D01*
X74460273Y-62114551D01*
X74503218Y-62330450D01*
X74587457Y-62533822D01*
X74709754Y-62716852D01*
X74865408Y-62872506D01*
X75048438Y-62994803D01*
X75251810Y-63079042D01*
X75467709Y-63121987D01*
X75687837Y-63121987D01*
X75903736Y-63079042D01*
X76107108Y-62994803D01*
X76290138Y-62872506D01*
X76354738Y-62807906D01*
X76357702Y-62838000D01*
X76384251Y-62925519D01*
X76427363Y-63006177D01*
X76485383Y-63076874D01*
X76494655Y-63084483D01*
X76485383Y-63092092D01*
X76472672Y-63107580D01*
X76460822Y-63108747D01*
X76460819Y-63108748D01*
X76460818Y-63108748D01*
X76372694Y-63135481D01*
X76323683Y-63161677D01*
X76291481Y-63178889D01*
X76291480Y-63178890D01*
X76291478Y-63178891D01*
X76238132Y-63222671D01*
X76238129Y-63222674D01*
X76220295Y-63237310D01*
X76205658Y-63255145D01*
X76098251Y-63362553D01*
X76081078Y-63362553D01*
X75961778Y-63386283D01*
X75849400Y-63432831D01*
X75748263Y-63500409D01*
X75662252Y-63586420D01*
X75594674Y-63687557D01*
X75548126Y-63799935D01*
X75524396Y-63919235D01*
X75524396Y-64040871D01*
X75548126Y-64160171D01*
X75568768Y-64210005D01*
X75497787Y-64211094D01*
X75364889Y-64239656D01*
X75331996Y-64254222D01*
X75261416Y-64339586D01*
X75907396Y-65262141D01*
X76421004Y-64902508D01*
X76206890Y-64596722D01*
X76322014Y-64573823D01*
X76434392Y-64527275D01*
X76535529Y-64459697D01*
X76621540Y-64373686D01*
X76689118Y-64272549D01*
X76729494Y-64175071D01*
X76815274Y-64183519D01*
X76905337Y-64183519D01*
X76885667Y-64203189D01*
X76867828Y-64217829D01*
X76853187Y-64235669D01*
X76809406Y-64289015D01*
X76765996Y-64370232D01*
X76752702Y-64414056D01*
X76739410Y-64457876D01*
X76739264Y-64458356D01*
X76730237Y-64550001D01*
X76732500Y-64572975D01*
X76732499Y-65347368D01*
X76493849Y-65006541D01*
X75980240Y-65366173D01*
X76626220Y-66288727D01*
X76730576Y-66251601D01*
X76755513Y-66225674D01*
X76827806Y-66110559D01*
X76876252Y-65983552D01*
X76898990Y-65849535D01*
X76898134Y-65819278D01*
X77648735Y-66569880D01*
X77648735Y-66576983D01*
X77657699Y-66668000D01*
X77684248Y-66755519D01*
X77727360Y-66836177D01*
X77785380Y-66906874D01*
X77795271Y-66914992D01*
X77795272Y-67037852D01*
X77766361Y-67057170D01*
X77680350Y-67143181D01*
X77612772Y-67244318D01*
X77566224Y-67356696D01*
X77542494Y-67475996D01*
X77542494Y-67597632D01*
X77566224Y-67716932D01*
X77612772Y-67829310D01*
X77680350Y-67930447D01*
X77766361Y-68016458D01*
X77793737Y-68034750D01*
X77455302Y-68198174D01*
X77453834Y-68198952D01*
X77452314Y-68199636D01*
X77434248Y-68209334D01*
X76291082Y-68871336D01*
X76304659Y-68844545D01*
X76329292Y-68756468D01*
X76336269Y-68665277D01*
X76325321Y-68574478D01*
X76296870Y-68487559D01*
X76252008Y-68407861D01*
X76054124Y-68125254D01*
X75994576Y-68055839D01*
X75922630Y-67999376D01*
X75841051Y-67958033D01*
X75752973Y-67933400D01*
X75661783Y-67926423D01*
X75621685Y-67931258D01*
X75729390Y-67855842D01*
X75776859Y-67815120D01*
X75815471Y-67765921D01*
X75843743Y-67710134D01*
X75860588Y-67649903D01*
X75863986Y-67605488D01*
X75974213Y-67527502D01*
X75985908Y-67461174D01*
X75524538Y-66802268D01*
X75508155Y-66813740D01*
X75435311Y-66709708D01*
X75451694Y-66698236D01*
X74990323Y-66039331D01*
X74923995Y-66027635D01*
X74813011Y-66104542D01*
X74770113Y-66092544D01*
X74759675Y-66091745D01*
X74671968Y-65966486D01*
X75094356Y-65966486D01*
X75555726Y-66625392D01*
X75572109Y-66613920D01*
X75644953Y-66717953D01*
X75628570Y-66729424D01*
X76089941Y-67388329D01*
X76156269Y-67400025D01*
X76311516Y-67292446D01*
X76339997Y-67268013D01*
X76363164Y-67238493D01*
X76380127Y-67205021D01*
X76390235Y-67168882D01*
X76393097Y-67131466D01*
X76388605Y-67094211D01*
X76376932Y-67058548D01*
X76358524Y-67025847D01*
X76005665Y-66523519D01*
X75939340Y-66511824D01*
X75978349Y-66484509D01*
X75947503Y-66440456D01*
X76016188Y-66467679D01*
X76149901Y-66492149D01*
X76285817Y-66490064D01*
X76418715Y-66461502D01*
X76451608Y-66446936D01*
X76522188Y-66361572D01*
X75876208Y-65439017D01*
X75414308Y-65762444D01*
X75403275Y-65759358D01*
X75365858Y-65756495D01*
X75328603Y-65760987D01*
X75292940Y-65772661D01*
X75260240Y-65791068D01*
X75106051Y-65900158D01*
X75094356Y-65966486D01*
X74671968Y-65966486D01*
X74459966Y-65663715D01*
X74447434Y-65641452D01*
X74381061Y-65564082D01*
X74300870Y-65501148D01*
X74209941Y-65455068D01*
X74136362Y-65434489D01*
X74111770Y-65427611D01*
X74086307Y-65425663D01*
X73277663Y-65283078D01*
X73309922Y-65234799D01*
X73356470Y-65122421D01*
X73380200Y-65003121D01*
X73380200Y-64881485D01*
X73374261Y-64851623D01*
X74884614Y-64851623D01*
X74888459Y-64987501D01*
X74918738Y-65120019D01*
X74974288Y-65244084D01*
X75289755Y-65694617D01*
X75803364Y-65334985D01*
X75157384Y-64412431D01*
X75053028Y-64449557D01*
X75028091Y-64475484D01*
X74955798Y-64590599D01*
X74907352Y-64717606D01*
X74884614Y-64851623D01*
X73374261Y-64851623D01*
X73356470Y-64762185D01*
X73309922Y-64649807D01*
X73242344Y-64548670D01*
X73156333Y-64462659D01*
X73055196Y-64395081D01*
X72942818Y-64348533D01*
X72823518Y-64324803D01*
X72701882Y-64324803D01*
X72582582Y-64348533D01*
X72470204Y-64395081D01*
X72369067Y-64462659D01*
X72283056Y-64548670D01*
X72215478Y-64649807D01*
X72168930Y-64762185D01*
X72145200Y-64881485D01*
X72145200Y-65003121D01*
X72161748Y-65086312D01*
X71530118Y-64974939D01*
X71505517Y-64968059D01*
X71409610Y-64960722D01*
X71403876Y-64960283D01*
X71403875Y-64960283D01*
X71302671Y-64972485D01*
X71205791Y-65004198D01*
X71139211Y-65041675D01*
X71139207Y-65041677D01*
X71116959Y-65054201D01*
X71097581Y-65070825D01*
X69676034Y-66066204D01*
X69653765Y-66078739D01*
X69576395Y-66145112D01*
X69513462Y-66225303D01*
X69513461Y-66225305D01*
X69467381Y-66316232D01*
X69439924Y-66414404D01*
X69437975Y-66439875D01*
X69131206Y-68179644D01*
X69031538Y-68113048D01*
X68919160Y-68066500D01*
X68799860Y-68042770D01*
X68678224Y-68042770D01*
X68558924Y-68066500D01*
X68446546Y-68113048D01*
X68345409Y-68180626D01*
X68259398Y-68266637D01*
X68191820Y-68367774D01*
X68145272Y-68480152D01*
X68121542Y-68599452D01*
X68121542Y-68721088D01*
X68145272Y-68840388D01*
X68191820Y-68952766D01*
X68259398Y-69053903D01*
X68345409Y-69139914D01*
X68394076Y-69172433D01*
X68287415Y-69195356D01*
X68254522Y-69209922D01*
X68183942Y-69295286D01*
X68829922Y-70217841D01*
X69343530Y-69858208D01*
X69028063Y-69407675D01*
X68930480Y-69313042D01*
X68858000Y-69266205D01*
X68919160Y-69254040D01*
X68981016Y-69228419D01*
X69431946Y-69307929D01*
X69456529Y-69314804D01*
X69481983Y-69316752D01*
X69481991Y-69316753D01*
X69481993Y-69316753D01*
X69813479Y-69375203D01*
X69898007Y-69495921D01*
X69895187Y-69506003D01*
X69891789Y-69550418D01*
X69781563Y-69628404D01*
X69769868Y-69694732D01*
X70231238Y-70353638D01*
X70247621Y-70342166D01*
X70320465Y-70446199D01*
X70304082Y-70457670D01*
X70765453Y-71116575D01*
X70831781Y-71128271D01*
X70942764Y-71051365D01*
X70985662Y-71063362D01*
X71048022Y-71068133D01*
X71110114Y-71060647D01*
X71169553Y-71041190D01*
X71224053Y-71010512D01*
X71715545Y-70666366D01*
X71741407Y-70644180D01*
X71729534Y-70667608D01*
X71704901Y-70755685D01*
X71697924Y-70846876D01*
X71708872Y-70937675D01*
X71737323Y-71024594D01*
X71782185Y-71104292D01*
X71797414Y-71126041D01*
X71747743Y-71135921D01*
X71635365Y-71182469D01*
X71534228Y-71250047D01*
X71448217Y-71336058D01*
X71380639Y-71437195D01*
X71377246Y-71445386D01*
X71303615Y-71414887D01*
X71184315Y-71391157D01*
X71062679Y-71391157D01*
X70943379Y-71414887D01*
X70831001Y-71461435D01*
X70729864Y-71529013D01*
X70643853Y-71615024D01*
X70576275Y-71716161D01*
X70529727Y-71828539D01*
X70505997Y-71947839D01*
X70505997Y-72069475D01*
X70529727Y-72188775D01*
X70559278Y-72260117D01*
X70558889Y-72260117D01*
X70439589Y-72283847D01*
X70327211Y-72330395D01*
X70226074Y-72397973D01*
X70148693Y-72475354D01*
X70076600Y-72427183D01*
X69964222Y-72380635D01*
X69844922Y-72356905D01*
X69723286Y-72356905D01*
X69603986Y-72380635D01*
X69491608Y-72427183D01*
X69390471Y-72494761D01*
X69304460Y-72580772D01*
X69236882Y-72681909D01*
X69190334Y-72794287D01*
X69166604Y-72913587D01*
X69166604Y-73035223D01*
X69190334Y-73154523D01*
X69236882Y-73266901D01*
X69304460Y-73368038D01*
X69390471Y-73454049D01*
X69491608Y-73521627D01*
X69603986Y-73568175D01*
X69723286Y-73591905D01*
X69844922Y-73591905D01*
X69964222Y-73568175D01*
X70076600Y-73521627D01*
X70177737Y-73454049D01*
X70255118Y-73376668D01*
X70327211Y-73424839D01*
X70439589Y-73471387D01*
X70472154Y-73477865D01*
X69511476Y-74518030D01*
X66206625Y-73957599D01*
X66172997Y-73948448D01*
X66155785Y-73939895D01*
X66140555Y-73928156D01*
X66127896Y-73913684D01*
X66118290Y-73897030D01*
X66112101Y-73878823D01*
X66109566Y-73859766D01*
X66110782Y-73840576D01*
X66115701Y-73821989D01*
X66127193Y-73798451D01*
X66139197Y-73781134D01*
X66139225Y-73781083D01*
X66139869Y-73780161D01*
X66275080Y-73583544D01*
X66285957Y-73563852D01*
X66297870Y-73544786D01*
X66299814Y-73540801D01*
X66473600Y-73178036D01*
X66483460Y-73150942D01*
X66493663Y-73124079D01*
X66494796Y-73119792D01*
X66594810Y-72730182D01*
X66599218Y-72701699D01*
X66604010Y-72673357D01*
X66604289Y-72668932D01*
X66626724Y-72267316D01*
X66625516Y-72238511D01*
X66624712Y-72209784D01*
X66624126Y-72205399D01*
X66624126Y-72205390D01*
X66624124Y-72205382D01*
X66623990Y-72204422D01*
X66940273Y-72204422D01*
X66940273Y-72424550D01*
X66983218Y-72640449D01*
X67067457Y-72843821D01*
X67189754Y-73026851D01*
X67345408Y-73182505D01*
X67528438Y-73304802D01*
X67731810Y-73389041D01*
X67947709Y-73431986D01*
X68167837Y-73431986D01*
X68383736Y-73389041D01*
X68587108Y-73304802D01*
X68770138Y-73182505D01*
X68925792Y-73026851D01*
X69048089Y-72843821D01*
X69132328Y-72640449D01*
X69175273Y-72424550D01*
X69175273Y-72204422D01*
X69132328Y-71988523D01*
X69048089Y-71785151D01*
X68925792Y-71602121D01*
X68770138Y-71446467D01*
X68587108Y-71324170D01*
X68383736Y-71239931D01*
X68167837Y-71196986D01*
X67947709Y-71196986D01*
X67731810Y-71239931D01*
X67528438Y-71324170D01*
X67345408Y-71446467D01*
X67189754Y-71602121D01*
X67067457Y-71785151D01*
X66983218Y-71988523D01*
X66940273Y-72204422D01*
X66623990Y-72204422D01*
X66568124Y-71807064D01*
X66561355Y-71779090D01*
X66554976Y-71751020D01*
X66553547Y-71746822D01*
X66421244Y-71366960D01*
X66409168Y-71340829D01*
X66397461Y-71314537D01*
X66395244Y-71310697D01*
X66192229Y-70964704D01*
X66183856Y-70950420D01*
X66041389Y-70754350D01*
X68285126Y-70754350D01*
X68600593Y-71204883D01*
X68698176Y-71299516D01*
X68812346Y-71373293D01*
X68938714Y-71423379D01*
X69072427Y-71447849D01*
X69208343Y-71445764D01*
X69341241Y-71417202D01*
X69374134Y-71402636D01*
X69444714Y-71317272D01*
X68798734Y-70394717D01*
X68285126Y-70754350D01*
X66041389Y-70754350D01*
X65353263Y-69807323D01*
X67807140Y-69807323D01*
X67810985Y-69943201D01*
X67841264Y-70075719D01*
X67896814Y-70199784D01*
X68212281Y-70650317D01*
X68681348Y-70321873D01*
X68902766Y-70321873D01*
X69548746Y-71244427D01*
X69653102Y-71207301D01*
X69678039Y-71181374D01*
X69750332Y-71066259D01*
X69798778Y-70939252D01*
X69821516Y-70805235D01*
X69819426Y-70731379D01*
X69850273Y-70775433D01*
X69889284Y-70748117D01*
X69877589Y-70814444D01*
X70228938Y-71317829D01*
X70253371Y-71346311D01*
X70282890Y-71369478D01*
X70316362Y-71386441D01*
X70352501Y-71396548D01*
X70389918Y-71399411D01*
X70427173Y-71394919D01*
X70462836Y-71383245D01*
X70495536Y-71364838D01*
X70649725Y-71255748D01*
X70661420Y-71189420D01*
X70200050Y-70530514D01*
X70183667Y-70541986D01*
X70110823Y-70437953D01*
X70127206Y-70426482D01*
X69665835Y-69767577D01*
X69599507Y-69755881D01*
X69444260Y-69863460D01*
X69415779Y-69887893D01*
X69392612Y-69917413D01*
X69375649Y-69950885D01*
X69365541Y-69987024D01*
X69364667Y-69998447D01*
X68902766Y-70321873D01*
X68681348Y-70321873D01*
X68725890Y-70290685D01*
X68079910Y-69368131D01*
X67975554Y-69405257D01*
X67950617Y-69431184D01*
X67878324Y-69546299D01*
X67829878Y-69673306D01*
X67807140Y-69807323D01*
X65353263Y-69807323D01*
X64631463Y-68813954D01*
X64700793Y-68827744D01*
X64822429Y-68827744D01*
X64941729Y-68804014D01*
X65003584Y-68778393D01*
X66206570Y-68990514D01*
X66231169Y-68997394D01*
X66319601Y-69004159D01*
X66332808Y-69005170D01*
X66332810Y-69005170D01*
X66352472Y-69002799D01*
X66434014Y-68992968D01*
X66530893Y-68961256D01*
X66619726Y-68911253D01*
X66639117Y-68894618D01*
X67744291Y-68120765D01*
X67766541Y-68108241D01*
X67785919Y-68091617D01*
X67785922Y-68091615D01*
X67843911Y-68041868D01*
X67906845Y-67961677D01*
X67952926Y-67870749D01*
X67980382Y-67772577D01*
X67982330Y-67747111D01*
X68167505Y-66696921D01*
X68174382Y-66672333D01*
X68176701Y-66642032D01*
X68178854Y-66613886D01*
X68182159Y-66570691D01*
X68182159Y-66570685D01*
X68175571Y-66516045D01*
X68169958Y-66469486D01*
X68165067Y-66454544D01*
X68165067Y-66357381D01*
X68141337Y-66238081D01*
X68094789Y-66125703D01*
X68027211Y-66024566D01*
X67941200Y-65938555D01*
X67840063Y-65870977D01*
X67727685Y-65824429D01*
X67608385Y-65800699D01*
X67486749Y-65800699D01*
X67367449Y-65824429D01*
X67255071Y-65870977D01*
X67153934Y-65938555D01*
X67067923Y-66024566D01*
X67000345Y-66125703D01*
X66953797Y-66238081D01*
X66930067Y-66357381D01*
X66930067Y-66411426D01*
X66773908Y-66188408D01*
X66676326Y-66093775D01*
X66562155Y-66019998D01*
X66435787Y-65969912D01*
X66353703Y-65954890D01*
X66625866Y-65668201D01*
X68035824Y-64408045D01*
X69544280Y-63267667D01*
X70952141Y-62374594D01*
X72965051Y-62374594D01*
X73137124Y-62620339D01*
X73234706Y-62714972D01*
X73348877Y-62788749D01*
X73475245Y-62838835D01*
X73608957Y-62863305D01*
X73744874Y-62861220D01*
X73877772Y-62832658D01*
X73910665Y-62818092D01*
X73981244Y-62732728D01*
X73478659Y-62014961D01*
X72965051Y-62374594D01*
X70952141Y-62374594D01*
X71141117Y-62254718D01*
X72670894Y-61451944D01*
X72653197Y-61498338D01*
X72630459Y-61632355D01*
X72634304Y-61768233D01*
X72664583Y-61900751D01*
X72720133Y-62024816D01*
X72892206Y-62270561D01*
X73361273Y-61942117D01*
X73582691Y-61942117D01*
X74085277Y-62659883D01*
X74189633Y-62622757D01*
X74214570Y-62596830D01*
X74286863Y-62481715D01*
X74335309Y-62354708D01*
X74358047Y-62220691D01*
X74354202Y-62084813D01*
X74323923Y-61952295D01*
X74268373Y-61828230D01*
X74096300Y-61582485D01*
X73582691Y-61942117D01*
X73361273Y-61942117D01*
X73405815Y-61910929D01*
X73394343Y-61894546D01*
X73498376Y-61821702D01*
X73509847Y-61838085D01*
X74023455Y-61478452D01*
X73851382Y-61232707D01*
X73753800Y-61138074D01*
X73639629Y-61064297D01*
X73593469Y-61046002D01*
X74556406Y-60637479D01*
X75446520Y-60343293D01*
X75434094Y-60405761D01*
G36*
X74634446Y-68699804D02*
G01*
X74643666Y-68716184D01*
X74648643Y-68721985D01*
X74642021Y-68759537D01*
X74871093Y-69086686D01*
X74887476Y-69075214D01*
X74960320Y-69179247D01*
X74943937Y-69190718D01*
X74955409Y-69207101D01*
X74851376Y-69279945D01*
X74839905Y-69263562D01*
X74533235Y-69478295D01*
X74521539Y-69544624D01*
X74640590Y-69716253D01*
X74665023Y-69744734D01*
X74694543Y-69767901D01*
X74728014Y-69784864D01*
X74764153Y-69794972D01*
X74801570Y-69797834D01*
X74838825Y-69793342D01*
X74849884Y-69789722D01*
X73944540Y-70409043D01*
X73943203Y-70410033D01*
X73941805Y-70410935D01*
X73925482Y-70423157D01*
X73925391Y-70423225D01*
X73925378Y-70423236D01*
X73026953Y-71142365D01*
X73038698Y-71119190D01*
X73063331Y-71031113D01*
X73069395Y-70951856D01*
X73087348Y-70956877D01*
X73124765Y-70959739D01*
X73162020Y-70955247D01*
X73197683Y-70943574D01*
X73230384Y-70925166D01*
X73380476Y-70818945D01*
X73392172Y-70752616D01*
X73163100Y-70425467D01*
X73146717Y-70436939D01*
X73087679Y-70352623D01*
X73267132Y-70352623D01*
X73496204Y-70679772D01*
X73562533Y-70691467D01*
X73713683Y-70586756D01*
X73742165Y-70562323D01*
X73765332Y-70532804D01*
X73782295Y-70499332D01*
X73792402Y-70463193D01*
X73795265Y-70425776D01*
X73790773Y-70388521D01*
X73779099Y-70352858D01*
X73760692Y-70320157D01*
X73640131Y-70149586D01*
X73573802Y-70137890D01*
X73267132Y-70352623D01*
X73087679Y-70352623D01*
X73073873Y-70332906D01*
X73090256Y-70321435D01*
X73078785Y-70305052D01*
X73182817Y-70232208D01*
X73194288Y-70248591D01*
X73500958Y-70033858D01*
X73512654Y-69967529D01*
X73436929Y-69858361D01*
X73741052Y-69645414D01*
X73757429Y-69636196D01*
X73771693Y-69623959D01*
X73771702Y-69623953D01*
X73814393Y-69587330D01*
X73860728Y-69528291D01*
X73894654Y-69461346D01*
X73914868Y-69389069D01*
X73916302Y-69370321D01*
X73943327Y-69217065D01*
X73948391Y-69198957D01*
X73950951Y-69165495D01*
X73954117Y-69124130D01*
X73951050Y-69098693D01*
X73968213Y-69089032D01*
X73972004Y-69086377D01*
X74238928Y-69086377D01*
X74243420Y-69123632D01*
X74255094Y-69159295D01*
X74273501Y-69191996D01*
X74394062Y-69362567D01*
X74460391Y-69374263D01*
X74767061Y-69159530D01*
X74537989Y-68832381D01*
X74471660Y-68820686D01*
X74320510Y-68925397D01*
X74292028Y-68949830D01*
X74268861Y-68979349D01*
X74251898Y-69012821D01*
X74241791Y-69048960D01*
X74238928Y-69086377D01*
X73972004Y-69086377D01*
X74213959Y-68916959D01*
X74261428Y-68876238D01*
X74285789Y-68845196D01*
X74323289Y-68832921D01*
X74377789Y-68802243D01*
X74598139Y-68647952D01*
X74634446Y-68699804D01*
G37*
X74634446Y-68699804D02*
X74643666Y-68716184D01*
X74648643Y-68721985D01*
X74642021Y-68759537D01*
X74871093Y-69086686D01*
X74887476Y-69075214D01*
X74960320Y-69179247D01*
X74943937Y-69190718D01*
X74955409Y-69207101D01*
X74851376Y-69279945D01*
X74839905Y-69263562D01*
X74533235Y-69478295D01*
X74521539Y-69544624D01*
X74640590Y-69716253D01*
X74665023Y-69744734D01*
X74694543Y-69767901D01*
X74728014Y-69784864D01*
X74764153Y-69794972D01*
X74801570Y-69797834D01*
X74838825Y-69793342D01*
X74849884Y-69789722D01*
X73944540Y-70409043D01*
X73943203Y-70410033D01*
X73941805Y-70410935D01*
X73925482Y-70423157D01*
X73925391Y-70423225D01*
X73925378Y-70423236D01*
X73026953Y-71142365D01*
X73038698Y-71119190D01*
X73063331Y-71031113D01*
X73069395Y-70951856D01*
X73087348Y-70956877D01*
X73124765Y-70959739D01*
X73162020Y-70955247D01*
X73197683Y-70943574D01*
X73230384Y-70925166D01*
X73380476Y-70818945D01*
X73392172Y-70752616D01*
X73163100Y-70425467D01*
X73146717Y-70436939D01*
X73087679Y-70352623D01*
X73267132Y-70352623D01*
X73496204Y-70679772D01*
X73562533Y-70691467D01*
X73713683Y-70586756D01*
X73742165Y-70562323D01*
X73765332Y-70532804D01*
X73782295Y-70499332D01*
X73792402Y-70463193D01*
X73795265Y-70425776D01*
X73790773Y-70388521D01*
X73779099Y-70352858D01*
X73760692Y-70320157D01*
X73640131Y-70149586D01*
X73573802Y-70137890D01*
X73267132Y-70352623D01*
X73087679Y-70352623D01*
X73073873Y-70332906D01*
X73090256Y-70321435D01*
X73078785Y-70305052D01*
X73182817Y-70232208D01*
X73194288Y-70248591D01*
X73500958Y-70033858D01*
X73512654Y-69967529D01*
X73436929Y-69858361D01*
X73741052Y-69645414D01*
X73757429Y-69636196D01*
X73771693Y-69623959D01*
X73771702Y-69623953D01*
X73814393Y-69587330D01*
X73860728Y-69528291D01*
X73894654Y-69461346D01*
X73914868Y-69389069D01*
X73916302Y-69370321D01*
X73943327Y-69217065D01*
X73948391Y-69198957D01*
X73950951Y-69165495D01*
X73954117Y-69124130D01*
X73951050Y-69098693D01*
X73968213Y-69089032D01*
X73972004Y-69086377D01*
X74238928Y-69086377D01*
X74243420Y-69123632D01*
X74255094Y-69159295D01*
X74273501Y-69191996D01*
X74394062Y-69362567D01*
X74460391Y-69374263D01*
X74767061Y-69159530D01*
X74537989Y-68832381D01*
X74471660Y-68820686D01*
X74320510Y-68925397D01*
X74292028Y-68949830D01*
X74268861Y-68979349D01*
X74251898Y-69012821D01*
X74241791Y-69048960D01*
X74238928Y-69086377D01*
X73972004Y-69086377D01*
X74213959Y-68916959D01*
X74261428Y-68876238D01*
X74285789Y-68845196D01*
X74323289Y-68832921D01*
X74377789Y-68802243D01*
X74598139Y-68647952D01*
X74634446Y-68699804D01*
G36*
X66432373Y-66793786D02*
G01*
X66448756Y-66782314D01*
X66521600Y-66886347D01*
X66505217Y-66897818D01*
X66516689Y-66914201D01*
X66412656Y-66987045D01*
X66401185Y-66970662D01*
X65887577Y-67330295D01*
X66059650Y-67576040D01*
X66157232Y-67670673D01*
X66271403Y-67744450D01*
X66397771Y-67794536D01*
X66404082Y-67795691D01*
X66200228Y-67938431D01*
X65183860Y-67759216D01*
X65155244Y-67730600D01*
X65054107Y-67663022D01*
X64941729Y-67616474D01*
X64871225Y-67602450D01*
X65323915Y-67039640D01*
X65569788Y-66780645D01*
X65587109Y-66856452D01*
X65642659Y-66980517D01*
X65814732Y-67226262D01*
X66328341Y-66866630D01*
X66316869Y-66850247D01*
X66420902Y-66777403D01*
X66432373Y-66793786D01*
G37*
X66432373Y-66793786D02*
X66448756Y-66782314D01*
X66521600Y-66886347D01*
X66505217Y-66897818D01*
X66516689Y-66914201D01*
X66412656Y-66987045D01*
X66401185Y-66970662D01*
X65887577Y-67330295D01*
X66059650Y-67576040D01*
X66157232Y-67670673D01*
X66271403Y-67744450D01*
X66397771Y-67794536D01*
X66404082Y-67795691D01*
X66200228Y-67938431D01*
X65183860Y-67759216D01*
X65155244Y-67730600D01*
X65054107Y-67663022D01*
X64941729Y-67616474D01*
X64871225Y-67602450D01*
X65323915Y-67039640D01*
X65569788Y-66780645D01*
X65587109Y-66856452D01*
X65642659Y-66980517D01*
X65814732Y-67226262D01*
X66328341Y-66866630D01*
X66316869Y-66850247D01*
X66420902Y-66777403D01*
X66432373Y-66793786D01*
G36*
X83047504Y-62917222D02*
G01*
X83159882Y-62963770D01*
X83279182Y-62987500D01*
X83341434Y-62987500D01*
X83464387Y-63110453D01*
X83455261Y-63140539D01*
X83445270Y-63241986D01*
X83451672Y-63306986D01*
X83336952Y-63306986D01*
X83217652Y-63330716D01*
X83105274Y-63377264D01*
X83004137Y-63444842D01*
X82918126Y-63530853D01*
X82850548Y-63631990D01*
X82804000Y-63744368D01*
X82780270Y-63863668D01*
X82780270Y-63985304D01*
X82804000Y-64104604D01*
X82850548Y-64216982D01*
X82918126Y-64318119D01*
X83004137Y-64404130D01*
X83105274Y-64471708D01*
X83217652Y-64518256D01*
X83336952Y-64541986D01*
X83354129Y-64541986D01*
X83518735Y-64706591D01*
X83518735Y-64716985D01*
X83527699Y-64808002D01*
X83554248Y-64895521D01*
X83597360Y-64976179D01*
X83655380Y-65046876D01*
X83726077Y-65104896D01*
X83806735Y-65148008D01*
X83894254Y-65174557D01*
X83985271Y-65183521D01*
X84280271Y-65183521D01*
X84371288Y-65174557D01*
X84458807Y-65148008D01*
X84539465Y-65104896D01*
X84610162Y-65046876D01*
X84617771Y-65037604D01*
X84625380Y-65046876D01*
X84696077Y-65104896D01*
X84776735Y-65148008D01*
X84864254Y-65174557D01*
X84948273Y-65182832D01*
X80876276Y-66673439D01*
X80871883Y-66675556D01*
X79323057Y-67297094D01*
X79322520Y-67297333D01*
X79321980Y-67297529D01*
X79303237Y-67305844D01*
X78777494Y-67559715D01*
X78777494Y-67475996D01*
X78753764Y-67356696D01*
X78730271Y-67299978D01*
X78730271Y-66914991D01*
X78740162Y-66906874D01*
X78747771Y-66897602D01*
X78755380Y-66906874D01*
X78826077Y-66964894D01*
X78906735Y-67008006D01*
X78994254Y-67034555D01*
X79085271Y-67043519D01*
X79380271Y-67043519D01*
X79471288Y-67034555D01*
X79558807Y-67008006D01*
X79639465Y-66964894D01*
X79710162Y-66906874D01*
X79768182Y-66836177D01*
X79811294Y-66755519D01*
X79837843Y-66668000D01*
X79846807Y-66576983D01*
X79846807Y-66231983D01*
X79846581Y-66229685D01*
X79861976Y-66236062D01*
X79981276Y-66259792D01*
X80102912Y-66259792D01*
X80222212Y-66236062D01*
X80334590Y-66189514D01*
X80435727Y-66121936D01*
X80519987Y-66037676D01*
X80576736Y-66068008D01*
X80664255Y-66094557D01*
X80755272Y-66103521D01*
X81100272Y-66103521D01*
X81191289Y-66094557D01*
X81278808Y-66068008D01*
X81359466Y-66024896D01*
X81430163Y-65966876D01*
X81488183Y-65896179D01*
X81531295Y-65815521D01*
X81536430Y-65798594D01*
X81536350Y-65814486D01*
X81540028Y-65851831D01*
X81550921Y-65887740D01*
X81568610Y-65920834D01*
X81592416Y-65949842D01*
X81621424Y-65973648D01*
X81654518Y-65991337D01*
X81690427Y-66002230D01*
X81727772Y-66005908D01*
X81936647Y-66004986D01*
X81984272Y-65957361D01*
X81984272Y-65582986D01*
X82111272Y-65582986D01*
X82111272Y-65957361D01*
X82158897Y-66004986D01*
X82367772Y-66005908D01*
X82405117Y-66002230D01*
X82441026Y-65991337D01*
X82474120Y-65973648D01*
X82503128Y-65949842D01*
X82526934Y-65920834D01*
X82544623Y-65887740D01*
X82555516Y-65851831D01*
X82559194Y-65814486D01*
X82558272Y-65630611D01*
X82510647Y-65582986D01*
X82111272Y-65582986D01*
X81984272Y-65582986D01*
X81964272Y-65582986D01*
X81964272Y-65455986D01*
X81984272Y-65455986D01*
X81984272Y-65435986D01*
X82111272Y-65435986D01*
X82111272Y-65455986D01*
X82510647Y-65455986D01*
X82558272Y-65408361D01*
X82559194Y-65224486D01*
X82555516Y-65187141D01*
X82544623Y-65151232D01*
X82526934Y-65118138D01*
X82503128Y-65089130D01*
X82488718Y-65077304D01*
X82550163Y-65026877D01*
X82608183Y-64956180D01*
X82651295Y-64875522D01*
X82677844Y-64788003D01*
X82686808Y-64696986D01*
X82686808Y-64401986D01*
X82677844Y-64310969D01*
X82651295Y-64223450D01*
X82608183Y-64142792D01*
X82550163Y-64072095D01*
X82495273Y-64027048D01*
X82495273Y-63954672D01*
X82582801Y-63907888D01*
X82664295Y-63841007D01*
X82731176Y-63759513D01*
X82780872Y-63666537D01*
X82811476Y-63565652D01*
X82821809Y-63460735D01*
X82821809Y-63023235D01*
X82811476Y-62918318D01*
X82802127Y-62887500D01*
X83003022Y-62887500D01*
X83047504Y-62917222D01*
G37*
X83047504Y-62917222D02*
X83159882Y-62963770D01*
X83279182Y-62987500D01*
X83341434Y-62987500D01*
X83464387Y-63110453D01*
X83455261Y-63140539D01*
X83445270Y-63241986D01*
X83451672Y-63306986D01*
X83336952Y-63306986D01*
X83217652Y-63330716D01*
X83105274Y-63377264D01*
X83004137Y-63444842D01*
X82918126Y-63530853D01*
X82850548Y-63631990D01*
X82804000Y-63744368D01*
X82780270Y-63863668D01*
X82780270Y-63985304D01*
X82804000Y-64104604D01*
X82850548Y-64216982D01*
X82918126Y-64318119D01*
X83004137Y-64404130D01*
X83105274Y-64471708D01*
X83217652Y-64518256D01*
X83336952Y-64541986D01*
X83354129Y-64541986D01*
X83518735Y-64706591D01*
X83518735Y-64716985D01*
X83527699Y-64808002D01*
X83554248Y-64895521D01*
X83597360Y-64976179D01*
X83655380Y-65046876D01*
X83726077Y-65104896D01*
X83806735Y-65148008D01*
X83894254Y-65174557D01*
X83985271Y-65183521D01*
X84280271Y-65183521D01*
X84371288Y-65174557D01*
X84458807Y-65148008D01*
X84539465Y-65104896D01*
X84610162Y-65046876D01*
X84617771Y-65037604D01*
X84625380Y-65046876D01*
X84696077Y-65104896D01*
X84776735Y-65148008D01*
X84864254Y-65174557D01*
X84948273Y-65182832D01*
X80876276Y-66673439D01*
X80871883Y-66675556D01*
X79323057Y-67297094D01*
X79322520Y-67297333D01*
X79321980Y-67297529D01*
X79303237Y-67305844D01*
X78777494Y-67559715D01*
X78777494Y-67475996D01*
X78753764Y-67356696D01*
X78730271Y-67299978D01*
X78730271Y-66914991D01*
X78740162Y-66906874D01*
X78747771Y-66897602D01*
X78755380Y-66906874D01*
X78826077Y-66964894D01*
X78906735Y-67008006D01*
X78994254Y-67034555D01*
X79085271Y-67043519D01*
X79380271Y-67043519D01*
X79471288Y-67034555D01*
X79558807Y-67008006D01*
X79639465Y-66964894D01*
X79710162Y-66906874D01*
X79768182Y-66836177D01*
X79811294Y-66755519D01*
X79837843Y-66668000D01*
X79846807Y-66576983D01*
X79846807Y-66231983D01*
X79846581Y-66229685D01*
X79861976Y-66236062D01*
X79981276Y-66259792D01*
X80102912Y-66259792D01*
X80222212Y-66236062D01*
X80334590Y-66189514D01*
X80435727Y-66121936D01*
X80519987Y-66037676D01*
X80576736Y-66068008D01*
X80664255Y-66094557D01*
X80755272Y-66103521D01*
X81100272Y-66103521D01*
X81191289Y-66094557D01*
X81278808Y-66068008D01*
X81359466Y-66024896D01*
X81430163Y-65966876D01*
X81488183Y-65896179D01*
X81531295Y-65815521D01*
X81536430Y-65798594D01*
X81536350Y-65814486D01*
X81540028Y-65851831D01*
X81550921Y-65887740D01*
X81568610Y-65920834D01*
X81592416Y-65949842D01*
X81621424Y-65973648D01*
X81654518Y-65991337D01*
X81690427Y-66002230D01*
X81727772Y-66005908D01*
X81936647Y-66004986D01*
X81984272Y-65957361D01*
X81984272Y-65582986D01*
X82111272Y-65582986D01*
X82111272Y-65957361D01*
X82158897Y-66004986D01*
X82367772Y-66005908D01*
X82405117Y-66002230D01*
X82441026Y-65991337D01*
X82474120Y-65973648D01*
X82503128Y-65949842D01*
X82526934Y-65920834D01*
X82544623Y-65887740D01*
X82555516Y-65851831D01*
X82559194Y-65814486D01*
X82558272Y-65630611D01*
X82510647Y-65582986D01*
X82111272Y-65582986D01*
X81984272Y-65582986D01*
X81964272Y-65582986D01*
X81964272Y-65455986D01*
X81984272Y-65455986D01*
X81984272Y-65435986D01*
X82111272Y-65435986D01*
X82111272Y-65455986D01*
X82510647Y-65455986D01*
X82558272Y-65408361D01*
X82559194Y-65224486D01*
X82555516Y-65187141D01*
X82544623Y-65151232D01*
X82526934Y-65118138D01*
X82503128Y-65089130D01*
X82488718Y-65077304D01*
X82550163Y-65026877D01*
X82608183Y-64956180D01*
X82651295Y-64875522D01*
X82677844Y-64788003D01*
X82686808Y-64696986D01*
X82686808Y-64401986D01*
X82677844Y-64310969D01*
X82651295Y-64223450D01*
X82608183Y-64142792D01*
X82550163Y-64072095D01*
X82495273Y-64027048D01*
X82495273Y-63954672D01*
X82582801Y-63907888D01*
X82664295Y-63841007D01*
X82731176Y-63759513D01*
X82780872Y-63666537D01*
X82811476Y-63565652D01*
X82821809Y-63460735D01*
X82821809Y-63023235D01*
X82811476Y-62918318D01*
X82802127Y-62887500D01*
X83003022Y-62887500D01*
X83047504Y-62917222D01*
G36*
X78821425Y-64613644D02*
G01*
X78854519Y-64631333D01*
X78862143Y-64633646D01*
X78820014Y-64696695D01*
X78773466Y-64809073D01*
X78768220Y-64835446D01*
X78477773Y-64835446D01*
X78415532Y-64841576D01*
X78355683Y-64859731D01*
X78300526Y-64889213D01*
X78252180Y-64928889D01*
X78212504Y-64977235D01*
X78183022Y-65032392D01*
X78164867Y-65092241D01*
X78158737Y-65154482D01*
X78158737Y-65604482D01*
X78164867Y-65666723D01*
X78183022Y-65726572D01*
X78203801Y-65765447D01*
X78166592Y-65765447D01*
X77667499Y-65266355D01*
X77667499Y-64743645D01*
X77714163Y-64696982D01*
X77922782Y-64696982D01*
X77950526Y-64719751D01*
X78005683Y-64749233D01*
X78065532Y-64767388D01*
X78127773Y-64773518D01*
X78527773Y-64773518D01*
X78590014Y-64767388D01*
X78649863Y-64749233D01*
X78705020Y-64719751D01*
X78753366Y-64680075D01*
X78793042Y-64631729D01*
X78808415Y-64602967D01*
X78821425Y-64613644D01*
G37*
X78821425Y-64613644D02*
X78854519Y-64631333D01*
X78862143Y-64633646D01*
X78820014Y-64696695D01*
X78773466Y-64809073D01*
X78768220Y-64835446D01*
X78477773Y-64835446D01*
X78415532Y-64841576D01*
X78355683Y-64859731D01*
X78300526Y-64889213D01*
X78252180Y-64928889D01*
X78212504Y-64977235D01*
X78183022Y-65032392D01*
X78164867Y-65092241D01*
X78158737Y-65154482D01*
X78158737Y-65604482D01*
X78164867Y-65666723D01*
X78183022Y-65726572D01*
X78203801Y-65765447D01*
X78166592Y-65765447D01*
X77667499Y-65266355D01*
X77667499Y-64743645D01*
X77714163Y-64696982D01*
X77922782Y-64696982D01*
X77950526Y-64719751D01*
X78005683Y-64749233D01*
X78065532Y-64767388D01*
X78127773Y-64773518D01*
X78527773Y-64773518D01*
X78590014Y-64767388D01*
X78649863Y-64749233D01*
X78705020Y-64719751D01*
X78753366Y-64680075D01*
X78793042Y-64631729D01*
X78808415Y-64602967D01*
X78821425Y-64613644D01*
G36*
X78904001Y-59504368D02*
G01*
X78880271Y-59623668D01*
X78880271Y-59745304D01*
X78904001Y-59864604D01*
X78950549Y-59976982D01*
X79018127Y-60078119D01*
X79104138Y-60164130D01*
X79205275Y-60231708D01*
X79317653Y-60278256D01*
X79436953Y-60301986D01*
X79558589Y-60301986D01*
X79677889Y-60278256D01*
X79746841Y-60249695D01*
X79738737Y-60331983D01*
X79738737Y-60475470D01*
X79725021Y-60464214D01*
X79669864Y-60434732D01*
X79610015Y-60416577D01*
X79547774Y-60410447D01*
X78847774Y-60410447D01*
X78785533Y-60416577D01*
X78725684Y-60434732D01*
X78670527Y-60464214D01*
X78622181Y-60503890D01*
X78582505Y-60552236D01*
X78553023Y-60607393D01*
X78534868Y-60667242D01*
X78528738Y-60729483D01*
X78528738Y-61179483D01*
X78534868Y-61241724D01*
X78553023Y-61301573D01*
X78582505Y-61356730D01*
X78622181Y-61405076D01*
X78670527Y-61444752D01*
X78680272Y-61449961D01*
X78680272Y-61819070D01*
X78677769Y-61844483D01*
X78680272Y-61869895D01*
X78687761Y-61945930D01*
X78717352Y-62043479D01*
X78765405Y-62133381D01*
X78830074Y-62212181D01*
X78849825Y-62228390D01*
X79345162Y-62723728D01*
X79293898Y-62723985D01*
X79246273Y-62771610D01*
X79246273Y-63170985D01*
X79620648Y-63170985D01*
X79668273Y-63123360D01*
X79668609Y-63047176D01*
X79933737Y-63312304D01*
X79933737Y-63460734D01*
X79944070Y-63565651D01*
X79974674Y-63666536D01*
X80024370Y-63759512D01*
X80091251Y-63841006D01*
X80172745Y-63907887D01*
X80265721Y-63957583D01*
X80366606Y-63988187D01*
X80471523Y-63998520D01*
X80478476Y-63998520D01*
X80425381Y-64042094D01*
X80367361Y-64112791D01*
X80324249Y-64193449D01*
X80297700Y-64280968D01*
X80288736Y-64371985D01*
X80288736Y-64666985D01*
X80297700Y-64758002D01*
X80324249Y-64845521D01*
X80367361Y-64926179D01*
X80425381Y-64996876D01*
X80434653Y-65004485D01*
X80425381Y-65012094D01*
X80417264Y-65021985D01*
X80217860Y-65021985D01*
X80194903Y-65019724D01*
X80171946Y-65021985D01*
X80171935Y-65021985D01*
X80116331Y-65027461D01*
X80102912Y-65024792D01*
X79984736Y-65024792D01*
X79984736Y-64928373D01*
X79961006Y-64809073D01*
X79914458Y-64696695D01*
X79846880Y-64595558D01*
X79760869Y-64509547D01*
X79659732Y-64441969D01*
X79547354Y-64395421D01*
X79518671Y-64389716D01*
X79518273Y-64340607D01*
X79470648Y-64292982D01*
X79191273Y-64292982D01*
X79191273Y-64312982D01*
X79064273Y-64312982D01*
X79064273Y-64292982D01*
X79044273Y-64292982D01*
X79044273Y-64165982D01*
X79064273Y-64165982D01*
X79064273Y-63861607D01*
X79191273Y-63861607D01*
X79191273Y-64165982D01*
X79470648Y-64165982D01*
X79518273Y-64118357D01*
X79519195Y-64004482D01*
X79515517Y-63967137D01*
X79504624Y-63931228D01*
X79486935Y-63898134D01*
X79463129Y-63869126D01*
X79434121Y-63845320D01*
X79401027Y-63827631D01*
X79365118Y-63816738D01*
X79327773Y-63813060D01*
X79238898Y-63813982D01*
X79191273Y-63861607D01*
X79064273Y-63861607D01*
X79016648Y-63813982D01*
X78927773Y-63813060D01*
X78890428Y-63816738D01*
X78854519Y-63827631D01*
X78821425Y-63845320D01*
X78808415Y-63855997D01*
X78795273Y-63831409D01*
X78795273Y-63721049D01*
X78814519Y-63731336D01*
X78850428Y-63742229D01*
X78887773Y-63745907D01*
X79071648Y-63744985D01*
X79119273Y-63697360D01*
X79119273Y-63297985D01*
X79246273Y-63297985D01*
X79246273Y-63697360D01*
X79293898Y-63744985D01*
X79477773Y-63745907D01*
X79515118Y-63742229D01*
X79551027Y-63731336D01*
X79584121Y-63713647D01*
X79613129Y-63689841D01*
X79636935Y-63660833D01*
X79654624Y-63627739D01*
X79665517Y-63591830D01*
X79669195Y-63554485D01*
X79668273Y-63345610D01*
X79620648Y-63297985D01*
X79246273Y-63297985D01*
X79119273Y-63297985D01*
X79099273Y-63297985D01*
X79099273Y-63170985D01*
X79119273Y-63170985D01*
X79119273Y-62771610D01*
X79071648Y-62723985D01*
X78887773Y-62723063D01*
X78850428Y-62726741D01*
X78814519Y-62737634D01*
X78781425Y-62755323D01*
X78752417Y-62779129D01*
X78740591Y-62793539D01*
X78690164Y-62732094D01*
X78619467Y-62674074D01*
X78538809Y-62630962D01*
X78451290Y-62604413D01*
X78360273Y-62595449D01*
X78065273Y-62595449D01*
X77974256Y-62604413D01*
X77886737Y-62630962D01*
X77806079Y-62674074D01*
X77735382Y-62732094D01*
X77677362Y-62802791D01*
X77634250Y-62883449D01*
X77607701Y-62970968D01*
X77598737Y-63061985D01*
X77598737Y-63267973D01*
X77591297Y-63243447D01*
X77548185Y-63162789D01*
X77490165Y-63092092D01*
X77480893Y-63084483D01*
X77490165Y-63076874D01*
X77548185Y-63006177D01*
X77591297Y-62925519D01*
X77617846Y-62838000D01*
X77626810Y-62746983D01*
X77626810Y-62451983D01*
X77617846Y-62360966D01*
X77591297Y-62273447D01*
X77548185Y-62192789D01*
X77511853Y-62148519D01*
X77547774Y-62148519D01*
X77610015Y-62142389D01*
X77669864Y-62124234D01*
X77725021Y-62094752D01*
X77773367Y-62055076D01*
X77813043Y-62006730D01*
X77842525Y-61951573D01*
X77860680Y-61891724D01*
X77866810Y-61829483D01*
X77866810Y-61379483D01*
X77860680Y-61317242D01*
X77842525Y-61257393D01*
X77813043Y-61202236D01*
X77773367Y-61153890D01*
X77725021Y-61114214D01*
X77669864Y-61084732D01*
X77610015Y-61066577D01*
X77547774Y-61060447D01*
X76847774Y-61060447D01*
X76785533Y-61066577D01*
X76725684Y-61084732D01*
X76670527Y-61114214D01*
X76622181Y-61153890D01*
X76582505Y-61202236D01*
X76553023Y-61257393D01*
X76534868Y-61317242D01*
X76528738Y-61379483D01*
X76528738Y-61416259D01*
X76445792Y-61292122D01*
X76290138Y-61136468D01*
X76188948Y-61068855D01*
X76231712Y-61060349D01*
X76344090Y-61013801D01*
X76445227Y-60946223D01*
X76531238Y-60860212D01*
X76590190Y-60771985D01*
X76642785Y-60771985D01*
X76670527Y-60794752D01*
X76725684Y-60824234D01*
X76785533Y-60842389D01*
X76847774Y-60848519D01*
X77547774Y-60848519D01*
X77610015Y-60842389D01*
X77669864Y-60824234D01*
X77725021Y-60794752D01*
X77773367Y-60755076D01*
X77813043Y-60706730D01*
X77842525Y-60651573D01*
X77860680Y-60591724D01*
X77866810Y-60529483D01*
X77866810Y-60079483D01*
X77860680Y-60017242D01*
X77842525Y-59957393D01*
X77813043Y-59902236D01*
X77773367Y-59853890D01*
X77725021Y-59814214D01*
X77669864Y-59784732D01*
X77610015Y-59766577D01*
X77547774Y-59760447D01*
X77525216Y-59760447D01*
X78189975Y-59599761D01*
X78911211Y-59486961D01*
X78904001Y-59504368D01*
G37*
X78904001Y-59504368D02*
X78880271Y-59623668D01*
X78880271Y-59745304D01*
X78904001Y-59864604D01*
X78950549Y-59976982D01*
X79018127Y-60078119D01*
X79104138Y-60164130D01*
X79205275Y-60231708D01*
X79317653Y-60278256D01*
X79436953Y-60301986D01*
X79558589Y-60301986D01*
X79677889Y-60278256D01*
X79746841Y-60249695D01*
X79738737Y-60331983D01*
X79738737Y-60475470D01*
X79725021Y-60464214D01*
X79669864Y-60434732D01*
X79610015Y-60416577D01*
X79547774Y-60410447D01*
X78847774Y-60410447D01*
X78785533Y-60416577D01*
X78725684Y-60434732D01*
X78670527Y-60464214D01*
X78622181Y-60503890D01*
X78582505Y-60552236D01*
X78553023Y-60607393D01*
X78534868Y-60667242D01*
X78528738Y-60729483D01*
X78528738Y-61179483D01*
X78534868Y-61241724D01*
X78553023Y-61301573D01*
X78582505Y-61356730D01*
X78622181Y-61405076D01*
X78670527Y-61444752D01*
X78680272Y-61449961D01*
X78680272Y-61819070D01*
X78677769Y-61844483D01*
X78680272Y-61869895D01*
X78687761Y-61945930D01*
X78717352Y-62043479D01*
X78765405Y-62133381D01*
X78830074Y-62212181D01*
X78849825Y-62228390D01*
X79345162Y-62723728D01*
X79293898Y-62723985D01*
X79246273Y-62771610D01*
X79246273Y-63170985D01*
X79620648Y-63170985D01*
X79668273Y-63123360D01*
X79668609Y-63047176D01*
X79933737Y-63312304D01*
X79933737Y-63460734D01*
X79944070Y-63565651D01*
X79974674Y-63666536D01*
X80024370Y-63759512D01*
X80091251Y-63841006D01*
X80172745Y-63907887D01*
X80265721Y-63957583D01*
X80366606Y-63988187D01*
X80471523Y-63998520D01*
X80478476Y-63998520D01*
X80425381Y-64042094D01*
X80367361Y-64112791D01*
X80324249Y-64193449D01*
X80297700Y-64280968D01*
X80288736Y-64371985D01*
X80288736Y-64666985D01*
X80297700Y-64758002D01*
X80324249Y-64845521D01*
X80367361Y-64926179D01*
X80425381Y-64996876D01*
X80434653Y-65004485D01*
X80425381Y-65012094D01*
X80417264Y-65021985D01*
X80217860Y-65021985D01*
X80194903Y-65019724D01*
X80171946Y-65021985D01*
X80171935Y-65021985D01*
X80116331Y-65027461D01*
X80102912Y-65024792D01*
X79984736Y-65024792D01*
X79984736Y-64928373D01*
X79961006Y-64809073D01*
X79914458Y-64696695D01*
X79846880Y-64595558D01*
X79760869Y-64509547D01*
X79659732Y-64441969D01*
X79547354Y-64395421D01*
X79518671Y-64389716D01*
X79518273Y-64340607D01*
X79470648Y-64292982D01*
X79191273Y-64292982D01*
X79191273Y-64312982D01*
X79064273Y-64312982D01*
X79064273Y-64292982D01*
X79044273Y-64292982D01*
X79044273Y-64165982D01*
X79064273Y-64165982D01*
X79064273Y-63861607D01*
X79191273Y-63861607D01*
X79191273Y-64165982D01*
X79470648Y-64165982D01*
X79518273Y-64118357D01*
X79519195Y-64004482D01*
X79515517Y-63967137D01*
X79504624Y-63931228D01*
X79486935Y-63898134D01*
X79463129Y-63869126D01*
X79434121Y-63845320D01*
X79401027Y-63827631D01*
X79365118Y-63816738D01*
X79327773Y-63813060D01*
X79238898Y-63813982D01*
X79191273Y-63861607D01*
X79064273Y-63861607D01*
X79016648Y-63813982D01*
X78927773Y-63813060D01*
X78890428Y-63816738D01*
X78854519Y-63827631D01*
X78821425Y-63845320D01*
X78808415Y-63855997D01*
X78795273Y-63831409D01*
X78795273Y-63721049D01*
X78814519Y-63731336D01*
X78850428Y-63742229D01*
X78887773Y-63745907D01*
X79071648Y-63744985D01*
X79119273Y-63697360D01*
X79119273Y-63297985D01*
X79246273Y-63297985D01*
X79246273Y-63697360D01*
X79293898Y-63744985D01*
X79477773Y-63745907D01*
X79515118Y-63742229D01*
X79551027Y-63731336D01*
X79584121Y-63713647D01*
X79613129Y-63689841D01*
X79636935Y-63660833D01*
X79654624Y-63627739D01*
X79665517Y-63591830D01*
X79669195Y-63554485D01*
X79668273Y-63345610D01*
X79620648Y-63297985D01*
X79246273Y-63297985D01*
X79119273Y-63297985D01*
X79099273Y-63297985D01*
X79099273Y-63170985D01*
X79119273Y-63170985D01*
X79119273Y-62771610D01*
X79071648Y-62723985D01*
X78887773Y-62723063D01*
X78850428Y-62726741D01*
X78814519Y-62737634D01*
X78781425Y-62755323D01*
X78752417Y-62779129D01*
X78740591Y-62793539D01*
X78690164Y-62732094D01*
X78619467Y-62674074D01*
X78538809Y-62630962D01*
X78451290Y-62604413D01*
X78360273Y-62595449D01*
X78065273Y-62595449D01*
X77974256Y-62604413D01*
X77886737Y-62630962D01*
X77806079Y-62674074D01*
X77735382Y-62732094D01*
X77677362Y-62802791D01*
X77634250Y-62883449D01*
X77607701Y-62970968D01*
X77598737Y-63061985D01*
X77598737Y-63267973D01*
X77591297Y-63243447D01*
X77548185Y-63162789D01*
X77490165Y-63092092D01*
X77480893Y-63084483D01*
X77490165Y-63076874D01*
X77548185Y-63006177D01*
X77591297Y-62925519D01*
X77617846Y-62838000D01*
X77626810Y-62746983D01*
X77626810Y-62451983D01*
X77617846Y-62360966D01*
X77591297Y-62273447D01*
X77548185Y-62192789D01*
X77511853Y-62148519D01*
X77547774Y-62148519D01*
X77610015Y-62142389D01*
X77669864Y-62124234D01*
X77725021Y-62094752D01*
X77773367Y-62055076D01*
X77813043Y-62006730D01*
X77842525Y-61951573D01*
X77860680Y-61891724D01*
X77866810Y-61829483D01*
X77866810Y-61379483D01*
X77860680Y-61317242D01*
X77842525Y-61257393D01*
X77813043Y-61202236D01*
X77773367Y-61153890D01*
X77725021Y-61114214D01*
X77669864Y-61084732D01*
X77610015Y-61066577D01*
X77547774Y-61060447D01*
X76847774Y-61060447D01*
X76785533Y-61066577D01*
X76725684Y-61084732D01*
X76670527Y-61114214D01*
X76622181Y-61153890D01*
X76582505Y-61202236D01*
X76553023Y-61257393D01*
X76534868Y-61317242D01*
X76528738Y-61379483D01*
X76528738Y-61416259D01*
X76445792Y-61292122D01*
X76290138Y-61136468D01*
X76188948Y-61068855D01*
X76231712Y-61060349D01*
X76344090Y-61013801D01*
X76445227Y-60946223D01*
X76531238Y-60860212D01*
X76590190Y-60771985D01*
X76642785Y-60771985D01*
X76670527Y-60794752D01*
X76725684Y-60824234D01*
X76785533Y-60842389D01*
X76847774Y-60848519D01*
X77547774Y-60848519D01*
X77610015Y-60842389D01*
X77669864Y-60824234D01*
X77725021Y-60794752D01*
X77773367Y-60755076D01*
X77813043Y-60706730D01*
X77842525Y-60651573D01*
X77860680Y-60591724D01*
X77866810Y-60529483D01*
X77866810Y-60079483D01*
X77860680Y-60017242D01*
X77842525Y-59957393D01*
X77813043Y-59902236D01*
X77773367Y-59853890D01*
X77725021Y-59814214D01*
X77669864Y-59784732D01*
X77610015Y-59766577D01*
X77547774Y-59760447D01*
X77525216Y-59760447D01*
X78189975Y-59599761D01*
X78911211Y-59486961D01*
X78904001Y-59504368D01*
G36*
X87577975Y-61715281D02*
G01*
X87578179Y-64220121D01*
X87545353Y-64232137D01*
X87567843Y-64157999D01*
X87576807Y-64066982D01*
X87576807Y-63771982D01*
X87567843Y-63680965D01*
X87541294Y-63593446D01*
X87498182Y-63512788D01*
X87440162Y-63442091D01*
X87378717Y-63391664D01*
X87393127Y-63379838D01*
X87416933Y-63350830D01*
X87434622Y-63317736D01*
X87445515Y-63281827D01*
X87449193Y-63244482D01*
X87448271Y-63060607D01*
X87400646Y-63012982D01*
X87001271Y-63012982D01*
X87001271Y-63032982D01*
X86874271Y-63032982D01*
X86874271Y-63012982D01*
X86474896Y-63012982D01*
X86427271Y-63060607D01*
X86427215Y-63071868D01*
X86422104Y-63067674D01*
X86422101Y-63067671D01*
X86368755Y-63023891D01*
X86331801Y-63004139D01*
X86319270Y-62997442D01*
X86311477Y-62918317D01*
X86280873Y-62817432D01*
X86231177Y-62724456D01*
X86173751Y-62654482D01*
X86426349Y-62654482D01*
X86427271Y-62838357D01*
X86474896Y-62885982D01*
X86874271Y-62885982D01*
X86874271Y-62511607D01*
X87001271Y-62511607D01*
X87001271Y-62885982D01*
X87400646Y-62885982D01*
X87448271Y-62838357D01*
X87449193Y-62654482D01*
X87445515Y-62617137D01*
X87434622Y-62581228D01*
X87416933Y-62548134D01*
X87393127Y-62519126D01*
X87364119Y-62495320D01*
X87331025Y-62477631D01*
X87295116Y-62466738D01*
X87257771Y-62463060D01*
X87048896Y-62463982D01*
X87001271Y-62511607D01*
X86874271Y-62511607D01*
X86826646Y-62463982D01*
X86617771Y-62463060D01*
X86580426Y-62466738D01*
X86544517Y-62477631D01*
X86511423Y-62495320D01*
X86482415Y-62519126D01*
X86458609Y-62548134D01*
X86440920Y-62581228D01*
X86430027Y-62617137D01*
X86426349Y-62654482D01*
X86173751Y-62654482D01*
X86164296Y-62642962D01*
X86082802Y-62576081D01*
X85989826Y-62526385D01*
X85888941Y-62495781D01*
X85784024Y-62485448D01*
X85666104Y-62485448D01*
X85728032Y-62423520D01*
X85784024Y-62423520D01*
X85888941Y-62413187D01*
X85989826Y-62382583D01*
X86082802Y-62332887D01*
X86164296Y-62266006D01*
X86231177Y-62184512D01*
X86280873Y-62091536D01*
X86311477Y-61990651D01*
X86321810Y-61885734D01*
X86321810Y-61448234D01*
X86311477Y-61343317D01*
X86301641Y-61310894D01*
X87577975Y-61715281D01*
G37*
X87577975Y-61715281D02*
X87578179Y-64220121D01*
X87545353Y-64232137D01*
X87567843Y-64157999D01*
X87576807Y-64066982D01*
X87576807Y-63771982D01*
X87567843Y-63680965D01*
X87541294Y-63593446D01*
X87498182Y-63512788D01*
X87440162Y-63442091D01*
X87378717Y-63391664D01*
X87393127Y-63379838D01*
X87416933Y-63350830D01*
X87434622Y-63317736D01*
X87445515Y-63281827D01*
X87449193Y-63244482D01*
X87448271Y-63060607D01*
X87400646Y-63012982D01*
X87001271Y-63012982D01*
X87001271Y-63032982D01*
X86874271Y-63032982D01*
X86874271Y-63012982D01*
X86474896Y-63012982D01*
X86427271Y-63060607D01*
X86427215Y-63071868D01*
X86422104Y-63067674D01*
X86422101Y-63067671D01*
X86368755Y-63023891D01*
X86331801Y-63004139D01*
X86319270Y-62997442D01*
X86311477Y-62918317D01*
X86280873Y-62817432D01*
X86231177Y-62724456D01*
X86173751Y-62654482D01*
X86426349Y-62654482D01*
X86427271Y-62838357D01*
X86474896Y-62885982D01*
X86874271Y-62885982D01*
X86874271Y-62511607D01*
X87001271Y-62511607D01*
X87001271Y-62885982D01*
X87400646Y-62885982D01*
X87448271Y-62838357D01*
X87449193Y-62654482D01*
X87445515Y-62617137D01*
X87434622Y-62581228D01*
X87416933Y-62548134D01*
X87393127Y-62519126D01*
X87364119Y-62495320D01*
X87331025Y-62477631D01*
X87295116Y-62466738D01*
X87257771Y-62463060D01*
X87048896Y-62463982D01*
X87001271Y-62511607D01*
X86874271Y-62511607D01*
X86826646Y-62463982D01*
X86617771Y-62463060D01*
X86580426Y-62466738D01*
X86544517Y-62477631D01*
X86511423Y-62495320D01*
X86482415Y-62519126D01*
X86458609Y-62548134D01*
X86440920Y-62581228D01*
X86430027Y-62617137D01*
X86426349Y-62654482D01*
X86173751Y-62654482D01*
X86164296Y-62642962D01*
X86082802Y-62576081D01*
X85989826Y-62526385D01*
X85888941Y-62495781D01*
X85784024Y-62485448D01*
X85666104Y-62485448D01*
X85728032Y-62423520D01*
X85784024Y-62423520D01*
X85888941Y-62413187D01*
X85989826Y-62382583D01*
X86082802Y-62332887D01*
X86164296Y-62266006D01*
X86231177Y-62184512D01*
X86280873Y-62091536D01*
X86311477Y-61990651D01*
X86321810Y-61885734D01*
X86321810Y-61448234D01*
X86311477Y-61343317D01*
X86301641Y-61310894D01*
X87577975Y-61715281D01*
G36*
X82540279Y-59174750D02*
G01*
X82514249Y-59223449D01*
X82487700Y-59310968D01*
X82478736Y-59401985D01*
X82478736Y-59696985D01*
X82487700Y-59788002D01*
X82514249Y-59875521D01*
X82557361Y-59956179D01*
X82615381Y-60026876D01*
X82624653Y-60034485D01*
X82615381Y-60042094D01*
X82557361Y-60112791D01*
X82514249Y-60193449D01*
X82487700Y-60280968D01*
X82478736Y-60371985D01*
X82478736Y-60666985D01*
X82487700Y-60758002D01*
X82514249Y-60845521D01*
X82557361Y-60926179D01*
X82615381Y-60996876D01*
X82650272Y-61025511D01*
X82650272Y-61056455D01*
X82582801Y-61001082D01*
X82489825Y-60951386D01*
X82388940Y-60920782D01*
X82284023Y-60910449D01*
X81955807Y-60910449D01*
X81960163Y-60906874D01*
X82018183Y-60836177D01*
X82061295Y-60755519D01*
X82087844Y-60668000D01*
X82096808Y-60576983D01*
X82096808Y-60281983D01*
X82087844Y-60190966D01*
X82061295Y-60103447D01*
X82018183Y-60022789D01*
X81960163Y-59952092D01*
X81898718Y-59901665D01*
X81913128Y-59889839D01*
X81936934Y-59860831D01*
X81954623Y-59827737D01*
X81965516Y-59791828D01*
X81969194Y-59754483D01*
X81968272Y-59570608D01*
X81920647Y-59522983D01*
X81521272Y-59522983D01*
X81521272Y-59542983D01*
X81394272Y-59542983D01*
X81394272Y-59522983D01*
X81374272Y-59522983D01*
X81374272Y-59395983D01*
X81394272Y-59395983D01*
X81394272Y-59375983D01*
X81521272Y-59375983D01*
X81521272Y-59395983D01*
X81920647Y-59395983D01*
X81968272Y-59348358D01*
X81969168Y-59169656D01*
X82540279Y-59174750D01*
G37*
X82540279Y-59174750D02*
X82514249Y-59223449D01*
X82487700Y-59310968D01*
X82478736Y-59401985D01*
X82478736Y-59696985D01*
X82487700Y-59788002D01*
X82514249Y-59875521D01*
X82557361Y-59956179D01*
X82615381Y-60026876D01*
X82624653Y-60034485D01*
X82615381Y-60042094D01*
X82557361Y-60112791D01*
X82514249Y-60193449D01*
X82487700Y-60280968D01*
X82478736Y-60371985D01*
X82478736Y-60666985D01*
X82487700Y-60758002D01*
X82514249Y-60845521D01*
X82557361Y-60926179D01*
X82615381Y-60996876D01*
X82650272Y-61025511D01*
X82650272Y-61056455D01*
X82582801Y-61001082D01*
X82489825Y-60951386D01*
X82388940Y-60920782D01*
X82284023Y-60910449D01*
X81955807Y-60910449D01*
X81960163Y-60906874D01*
X82018183Y-60836177D01*
X82061295Y-60755519D01*
X82087844Y-60668000D01*
X82096808Y-60576983D01*
X82096808Y-60281983D01*
X82087844Y-60190966D01*
X82061295Y-60103447D01*
X82018183Y-60022789D01*
X81960163Y-59952092D01*
X81898718Y-59901665D01*
X81913128Y-59889839D01*
X81936934Y-59860831D01*
X81954623Y-59827737D01*
X81965516Y-59791828D01*
X81969194Y-59754483D01*
X81968272Y-59570608D01*
X81920647Y-59522983D01*
X81521272Y-59522983D01*
X81521272Y-59542983D01*
X81394272Y-59542983D01*
X81394272Y-59522983D01*
X81374272Y-59522983D01*
X81374272Y-59395983D01*
X81394272Y-59395983D01*
X81394272Y-59375983D01*
X81521272Y-59375983D01*
X81521272Y-59395983D01*
X81920647Y-59395983D01*
X81968272Y-59348358D01*
X81969168Y-59169656D01*
X82540279Y-59174750D01*
G36*
X85714245Y-59357676D02*
G01*
X85667411Y-60838894D01*
X85666772Y-60841914D01*
X85666425Y-60870078D01*
X85666028Y-60882647D01*
X85666233Y-60885719D01*
X85666002Y-60904466D01*
X85667116Y-60910448D01*
X85271524Y-60910448D01*
X85166607Y-60920781D01*
X85065722Y-60951385D01*
X84972746Y-61001081D01*
X84927774Y-61037989D01*
X84882801Y-61001081D01*
X84802109Y-60957951D01*
X84828184Y-60926179D01*
X84871296Y-60845521D01*
X84897845Y-60758002D01*
X84906809Y-60666985D01*
X84906809Y-60371985D01*
X84897845Y-60280968D01*
X84871296Y-60193449D01*
X84828184Y-60112791D01*
X84770164Y-60042094D01*
X84708719Y-59991667D01*
X84723129Y-59979841D01*
X84746935Y-59950833D01*
X84764624Y-59917739D01*
X84775517Y-59881830D01*
X84779195Y-59844485D01*
X84778273Y-59660610D01*
X84730648Y-59612985D01*
X84331273Y-59612985D01*
X84331273Y-59632985D01*
X84204273Y-59632985D01*
X84204273Y-59612985D01*
X84184273Y-59612985D01*
X84184273Y-59485985D01*
X84204273Y-59485985D01*
X84204273Y-59465985D01*
X84331273Y-59465985D01*
X84331273Y-59485985D01*
X84730648Y-59485985D01*
X84778273Y-59438360D01*
X84779105Y-59272389D01*
X85714245Y-59357676D01*
G37*
X85714245Y-59357676D02*
X85667411Y-60838894D01*
X85666772Y-60841914D01*
X85666425Y-60870078D01*
X85666028Y-60882647D01*
X85666233Y-60885719D01*
X85666002Y-60904466D01*
X85667116Y-60910448D01*
X85271524Y-60910448D01*
X85166607Y-60920781D01*
X85065722Y-60951385D01*
X84972746Y-61001081D01*
X84927774Y-61037989D01*
X84882801Y-61001081D01*
X84802109Y-60957951D01*
X84828184Y-60926179D01*
X84871296Y-60845521D01*
X84897845Y-60758002D01*
X84906809Y-60666985D01*
X84906809Y-60371985D01*
X84897845Y-60280968D01*
X84871296Y-60193449D01*
X84828184Y-60112791D01*
X84770164Y-60042094D01*
X84708719Y-59991667D01*
X84723129Y-59979841D01*
X84746935Y-59950833D01*
X84764624Y-59917739D01*
X84775517Y-59881830D01*
X84779195Y-59844485D01*
X84778273Y-59660610D01*
X84730648Y-59612985D01*
X84331273Y-59612985D01*
X84331273Y-59632985D01*
X84204273Y-59632985D01*
X84204273Y-59612985D01*
X84184273Y-59612985D01*
X84184273Y-59485985D01*
X84204273Y-59485985D01*
X84204273Y-59465985D01*
X84331273Y-59465985D01*
X84331273Y-59485985D01*
X84730648Y-59485985D01*
X84778273Y-59438360D01*
X84779105Y-59272389D01*
X85714245Y-59357676D01*
%TD*%
M02*
