M48
; DRILL file {KiCad (5.1.6)-1} date 12/05/20 12:07:33
; FORMAT={-:-/ absolute / inch / decimal}
; #@! TF.CreationDate,2020-12-05T12:07:33+01:00
; #@! TF.GenerationSoftware,Kicad,Pcbnew,(5.1.6)-1
FMAT,2
INCH
T1C0.0118
T2C0.0157
T3C0.0236
T4C0.0630
%
G90
G05
T1
X2.5497Y-2.6854
X2.6291Y-2.8957
X2.6594Y-2.6149
X2.7063Y-2.7032
X2.7114Y-2.9091
X2.7406Y-2.511
X2.7474Y-2.873
X2.7602Y-2.539
X2.7803Y-2.8692
X2.8001Y-2.835
X2.8318Y-2.824
X2.8647Y-2.5568
X2.9137Y-2.7468
X2.9942Y-2.3806
X2.9977Y-2.5189
X3.065Y-2.5634
X3.0705Y-2.4508
X3.0772Y-2.6589
X3.1247Y-2.5586
X3.1298Y-2.3498
X3.1513Y-2.5843
X3.2397Y-2.3372
X3.2681Y-2.4866
X3.2717Y-2.5791
X3.2759Y-2.4179
X3.2811Y-2.4555
X3.2834Y-2.5167
X3.359Y-2.3529
X3.4224Y-2.4447
T2
X2.7958Y-2.6361
X2.8284Y-2.6133
T4
X2.9755Y-2.4411
X2.6794Y-2.847
T3
G00X2.6081Y-2.6235
M15
G01X2.6216Y-2.6428
M16
G05
G00X2.6968Y-2.7502
M15
G01X2.7216Y-2.7857
M16
G05
G00X2.8867Y-2.4284
M15
G01X2.9002Y-2.4477
M16
G05
G00X2.9754Y-2.5551
M15
G01X3.0003Y-2.5906
M16
G05
T0
M30
