%TF.GenerationSoftware,KiCad,Pcbnew,(5.1.6)-1*%
%TF.CreationDate,2020-12-05T12:07:26+01:00*%
%TF.ProjectId,bose-usb-c,626f7365-2d75-4736-922d-632e6b696361,Rev 1*%
%TF.SameCoordinates,Original*%
%TF.FileFunction,Copper,L3,Inr*%
%TF.FilePolarity,Positive*%
%FSLAX46Y46*%
G04 Gerber Fmt 4.6, Leading zero omitted, Abs format (unit mm)*
G04 Created by KiCad (PCBNEW (5.1.6)-1) date 2020-12-05 12:07:26*
%MOMM*%
%LPD*%
G01*
G04 APERTURE LIST*
%TA.AperFunction,ViaPad*%
%ADD10C,1.600000*%
%TD*%
%TA.AperFunction,ViaPad*%
%ADD11C,0.600000*%
%TD*%
%TA.AperFunction,ViaPad*%
%ADD12C,0.800000*%
%TD*%
%TA.AperFunction,Conductor*%
%ADD13C,0.127000*%
%TD*%
G04 APERTURE END LIST*
D10*
%TO.N,*%
%TO.C,H1*%
X68057773Y-72314486D03*
%TD*%
%TO.N,*%
%TO.C,H2*%
X75577773Y-62004487D03*
%TD*%
%TO.N,GND*%
%TO.C,J2*%
%TA.AperFunction,ViaPad*%
G36*
G01*
X75797693Y-66087901D02*
X75166759Y-65186833D01*
G75*
G02*
X75289547Y-64490469I409576J286788D01*
G01*
X75289547Y-64490469D01*
G75*
G02*
X75985911Y-64613257I286788J-409576D01*
G01*
X76616845Y-65514325D01*
G75*
G02*
X76494057Y-66210689I-409576J-286788D01*
G01*
X76494057Y-66210689D01*
G75*
G02*
X75797693Y-66087901I-286788J409576D01*
G01*
G37*
%TD.AperFunction*%
%TA.AperFunction,ViaPad*%
G36*
G01*
X68720219Y-71043601D02*
X68089285Y-70142533D01*
G75*
G02*
X68212073Y-69446169I409576J286788D01*
G01*
X68212073Y-69446169D01*
G75*
G02*
X68908437Y-69568957I286788J-409576D01*
G01*
X69539371Y-70470025D01*
G75*
G02*
X69416583Y-71166389I-409576J-286788D01*
G01*
X69416583Y-71166389D01*
G75*
G02*
X68720219Y-71043601I-286788J409576D01*
G01*
G37*
%TD.AperFunction*%
%TA.AperFunction,ViaPad*%
G36*
G01*
X66179276Y-67414758D02*
X65835130Y-66923266D01*
G75*
G02*
X65957918Y-66226902I409576J286788D01*
G01*
X65957918Y-66226902D01*
G75*
G02*
X66654282Y-66349690I286788J-409576D01*
G01*
X66998428Y-66841182D01*
G75*
G02*
X66875640Y-67537546I-409576J-286788D01*
G01*
X66875640Y-67537546D01*
G75*
G02*
X66179276Y-67414758I-286788J409576D01*
G01*
G37*
%TD.AperFunction*%
%TA.AperFunction,ViaPad*%
G36*
G01*
X73256750Y-62459057D02*
X72912604Y-61967565D01*
G75*
G02*
X73035392Y-61271201I409576J286788D01*
G01*
X73035392Y-61271201D01*
G75*
G02*
X73731756Y-61393989I286788J-409576D01*
G01*
X74075902Y-61885481D01*
G75*
G02*
X73953114Y-62581845I-409576J-286788D01*
G01*
X73953114Y-62581845D01*
G75*
G02*
X73256750Y-62459057I-286788J409576D01*
G01*
G37*
%TD.AperFunction*%
%TD*%
D11*
%TO.N,GND*%
X70110000Y-64490000D03*
X69610000Y-63780000D03*
X86927774Y-62094483D03*
X85317773Y-59764483D03*
X82287775Y-59364483D03*
X74007678Y-69768775D03*
X83100527Y-65508445D03*
X77990000Y-62250000D03*
X77850000Y-65110000D03*
X68870000Y-73890000D03*
X66780000Y-73550000D03*
X83010000Y-63160000D03*
%TO.N,VCC*%
X76141896Y-63980053D03*
%TO.N,/LED_GREEN*%
X69784104Y-72974405D03*
X79497771Y-59684486D03*
%TO.N,/LED_RED*%
X70619707Y-72877617D03*
X80042094Y-65642292D03*
%TO.N,/LED_WHITE*%
X71123497Y-72008657D03*
X83207773Y-61414484D03*
%TO.N,/LED_BLUE*%
X71927861Y-71729691D03*
X78159994Y-67536814D03*
D12*
%TO.N,/USB_D-*%
X71013813Y-66957589D03*
%TO.N,/USB_D+*%
X71841157Y-66378277D03*
D11*
%TO.N,Net-(Q1-Pad3)*%
X83397770Y-63924486D03*
X79367236Y-64989191D03*
%TO.N,/LED_PWR*%
X83340000Y-62370000D03*
%TO.N,/LED_PWR_ON*%
X76051594Y-60466579D03*
X72762700Y-64942303D03*
%TO.N,/VBUS*%
X68739042Y-68660270D03*
%TO.N,+5V*%
X64761611Y-68210244D03*
X67547567Y-66418199D03*
%TD*%
D13*
%TO.N,GND*%
G36*
X83835177Y-59186301D02*
G01*
X85714245Y-59357676D01*
X85667411Y-60838894D01*
X85666772Y-60841914D01*
X85666425Y-60870083D01*
X85666028Y-60882647D01*
X85666233Y-60885719D01*
X85666002Y-60904466D01*
X85668309Y-60916857D01*
X85669147Y-60929431D01*
X85674020Y-60947538D01*
X85677451Y-60965967D01*
X85682128Y-60977664D01*
X85685405Y-60989839D01*
X85693720Y-61006653D01*
X85700678Y-61024053D01*
X85707548Y-61034614D01*
X85713137Y-61045915D01*
X85724569Y-61060778D01*
X85734790Y-61076491D01*
X85743591Y-61085512D01*
X85751275Y-61095502D01*
X85765382Y-61107846D01*
X85778477Y-61121267D01*
X85788872Y-61128399D01*
X85798354Y-61136696D01*
X85814601Y-61146052D01*
X85830060Y-61156659D01*
X85841639Y-61161623D01*
X85852565Y-61167915D01*
X85870332Y-61173924D01*
X85873155Y-61175134D01*
X85885114Y-61178923D01*
X85911826Y-61187957D01*
X85914889Y-61188357D01*
X87577975Y-61715281D01*
X87578179Y-64220121D01*
X80876276Y-66673439D01*
X80871883Y-66675556D01*
X79323057Y-67297094D01*
X79322520Y-67297333D01*
X79321980Y-67297529D01*
X79303237Y-67305844D01*
X78777494Y-67559715D01*
X78777494Y-67475996D01*
X78753764Y-67356696D01*
X78707216Y-67244318D01*
X78639638Y-67143181D01*
X78553627Y-67057170D01*
X78452490Y-66989592D01*
X78340112Y-66943044D01*
X78220812Y-66919314D01*
X78099176Y-66919314D01*
X77979876Y-66943044D01*
X77867498Y-66989592D01*
X77766361Y-67057170D01*
X77680350Y-67143181D01*
X77612772Y-67244318D01*
X77566224Y-67356696D01*
X77542494Y-67475996D01*
X77542494Y-67597632D01*
X77566224Y-67716932D01*
X77612772Y-67829310D01*
X77680350Y-67930447D01*
X77766361Y-68016458D01*
X77793737Y-68034750D01*
X77455302Y-68198174D01*
X77453834Y-68198952D01*
X77452314Y-68199636D01*
X77434248Y-68209334D01*
X75658421Y-69237707D01*
X75657008Y-69238597D01*
X75655552Y-69239389D01*
X75638263Y-69250414D01*
X73944540Y-70409043D01*
X73943203Y-70410033D01*
X73941805Y-70410935D01*
X73925482Y-70423157D01*
X73925391Y-70423225D01*
X73925378Y-70423236D01*
X72520782Y-71547522D01*
X72475083Y-71437195D01*
X72407505Y-71336058D01*
X72321494Y-71250047D01*
X72220357Y-71182469D01*
X72107979Y-71135921D01*
X71988679Y-71112191D01*
X71867043Y-71112191D01*
X71747743Y-71135921D01*
X71635365Y-71182469D01*
X71534228Y-71250047D01*
X71448217Y-71336058D01*
X71380639Y-71437195D01*
X71377246Y-71445386D01*
X71303615Y-71414887D01*
X71184315Y-71391157D01*
X71062679Y-71391157D01*
X70943379Y-71414887D01*
X70831001Y-71461435D01*
X70729864Y-71529013D01*
X70643853Y-71615024D01*
X70576275Y-71716161D01*
X70529727Y-71828539D01*
X70505997Y-71947839D01*
X70505997Y-72069475D01*
X70529727Y-72188775D01*
X70559278Y-72260117D01*
X70558889Y-72260117D01*
X70439589Y-72283847D01*
X70327211Y-72330395D01*
X70226074Y-72397973D01*
X70148693Y-72475354D01*
X70076600Y-72427183D01*
X69964222Y-72380635D01*
X69844922Y-72356905D01*
X69723286Y-72356905D01*
X69603986Y-72380635D01*
X69491608Y-72427183D01*
X69390471Y-72494761D01*
X69304460Y-72580772D01*
X69236882Y-72681909D01*
X69190334Y-72794287D01*
X69166604Y-72913587D01*
X69166604Y-73035223D01*
X69190334Y-73154523D01*
X69236882Y-73266901D01*
X69304460Y-73368038D01*
X69390471Y-73454049D01*
X69491608Y-73521627D01*
X69603986Y-73568175D01*
X69723286Y-73591905D01*
X69844922Y-73591905D01*
X69964222Y-73568175D01*
X70076600Y-73521627D01*
X70177737Y-73454049D01*
X70255118Y-73376668D01*
X70327211Y-73424839D01*
X70439589Y-73471387D01*
X70472154Y-73477865D01*
X69511476Y-74518030D01*
X66206625Y-73957599D01*
X66172997Y-73948448D01*
X66155785Y-73939895D01*
X66140555Y-73928156D01*
X66127896Y-73913684D01*
X66118290Y-73897030D01*
X66112101Y-73878823D01*
X66109566Y-73859766D01*
X66110782Y-73840576D01*
X66115701Y-73821989D01*
X66127193Y-73798451D01*
X66139197Y-73781134D01*
X66139225Y-73781083D01*
X66139869Y-73780161D01*
X66275080Y-73583544D01*
X66285957Y-73563852D01*
X66297870Y-73544786D01*
X66299814Y-73540801D01*
X66473600Y-73178036D01*
X66483460Y-73150942D01*
X66493663Y-73124079D01*
X66494796Y-73119792D01*
X66594810Y-72730182D01*
X66599218Y-72701699D01*
X66604010Y-72673357D01*
X66604289Y-72668932D01*
X66626724Y-72267316D01*
X66625516Y-72238511D01*
X66624712Y-72209784D01*
X66624126Y-72205399D01*
X66624126Y-72205390D01*
X66624124Y-72205382D01*
X66623990Y-72204422D01*
X66940273Y-72204422D01*
X66940273Y-72424550D01*
X66983218Y-72640449D01*
X67067457Y-72843821D01*
X67189754Y-73026851D01*
X67345408Y-73182505D01*
X67528438Y-73304802D01*
X67731810Y-73389041D01*
X67947709Y-73431986D01*
X68167837Y-73431986D01*
X68383736Y-73389041D01*
X68587108Y-73304802D01*
X68770138Y-73182505D01*
X68925792Y-73026851D01*
X69048089Y-72843821D01*
X69132328Y-72640449D01*
X69175273Y-72424550D01*
X69175273Y-72204422D01*
X69132328Y-71988523D01*
X69048089Y-71785151D01*
X68925792Y-71602121D01*
X68770138Y-71446467D01*
X68587108Y-71324170D01*
X68383736Y-71239931D01*
X68167837Y-71196986D01*
X67947709Y-71196986D01*
X67731810Y-71239931D01*
X67528438Y-71324170D01*
X67345408Y-71446467D01*
X67189754Y-71602121D01*
X67067457Y-71785151D01*
X66983218Y-71988523D01*
X66940273Y-72204422D01*
X66623990Y-72204422D01*
X66568124Y-71807064D01*
X66561355Y-71779090D01*
X66554976Y-71751020D01*
X66553547Y-71746822D01*
X66421244Y-71366960D01*
X66409168Y-71340829D01*
X66397461Y-71314537D01*
X66395244Y-71310697D01*
X66192229Y-70964704D01*
X66183856Y-70950420D01*
X66041389Y-70754350D01*
X68285126Y-70754350D01*
X68600593Y-71204883D01*
X68698176Y-71299516D01*
X68812346Y-71373293D01*
X68938714Y-71423379D01*
X69072427Y-71447849D01*
X69208343Y-71445764D01*
X69341241Y-71417202D01*
X69374134Y-71402636D01*
X69444714Y-71317272D01*
X68798734Y-70394717D01*
X68285126Y-70754350D01*
X66041389Y-70754350D01*
X65353263Y-69807323D01*
X67807140Y-69807323D01*
X67810985Y-69943201D01*
X67841264Y-70075719D01*
X67896814Y-70199784D01*
X68212281Y-70650317D01*
X68681348Y-70321873D01*
X68902766Y-70321873D01*
X69548746Y-71244427D01*
X69653102Y-71207301D01*
X69678039Y-71181374D01*
X69750332Y-71066259D01*
X69798778Y-70939252D01*
X69821516Y-70805235D01*
X69817671Y-70669357D01*
X69787392Y-70536839D01*
X69731842Y-70412774D01*
X69416375Y-69962241D01*
X68902766Y-70321873D01*
X68681348Y-70321873D01*
X68725890Y-70290685D01*
X68079910Y-69368131D01*
X67975554Y-69405257D01*
X67950617Y-69431184D01*
X67878324Y-69546299D01*
X67829878Y-69673306D01*
X67807140Y-69807323D01*
X65353263Y-69807323D01*
X64631463Y-68813954D01*
X64700793Y-68827744D01*
X64822429Y-68827744D01*
X64941729Y-68804014D01*
X65054107Y-68757466D01*
X65155244Y-68689888D01*
X65241255Y-68603877D01*
X65244211Y-68599452D01*
X68121542Y-68599452D01*
X68121542Y-68721088D01*
X68145272Y-68840388D01*
X68191820Y-68952766D01*
X68259398Y-69053903D01*
X68345409Y-69139914D01*
X68394076Y-69172433D01*
X68287415Y-69195356D01*
X68254522Y-69209922D01*
X68183942Y-69295286D01*
X68829922Y-70217841D01*
X69343530Y-69858208D01*
X69028063Y-69407675D01*
X68930480Y-69313042D01*
X68858000Y-69266205D01*
X68919160Y-69254040D01*
X69031538Y-69207492D01*
X69132675Y-69139914D01*
X69218686Y-69053903D01*
X69286264Y-68952766D01*
X69332812Y-68840388D01*
X69356542Y-68721088D01*
X69356542Y-68599452D01*
X69332812Y-68480152D01*
X69286264Y-68367774D01*
X69218686Y-68266637D01*
X69132675Y-68180626D01*
X69031538Y-68113048D01*
X68919160Y-68066500D01*
X68799860Y-68042770D01*
X68678224Y-68042770D01*
X68558924Y-68066500D01*
X68446546Y-68113048D01*
X68345409Y-68180626D01*
X68259398Y-68266637D01*
X68191820Y-68367774D01*
X68145272Y-68480152D01*
X68121542Y-68599452D01*
X65244211Y-68599452D01*
X65308833Y-68502740D01*
X65355381Y-68390362D01*
X65379111Y-68271062D01*
X65379111Y-68149426D01*
X65355381Y-68030126D01*
X65308833Y-67917748D01*
X65241255Y-67816611D01*
X65155244Y-67730600D01*
X65054107Y-67663022D01*
X64941729Y-67616474D01*
X64871225Y-67602450D01*
X65090129Y-67330295D01*
X65887577Y-67330295D01*
X66059650Y-67576040D01*
X66157232Y-67670673D01*
X66271403Y-67744450D01*
X66397771Y-67794536D01*
X66531483Y-67819006D01*
X66667400Y-67816921D01*
X66800298Y-67788359D01*
X66833191Y-67773793D01*
X66903770Y-67688429D01*
X66401185Y-66970662D01*
X65887577Y-67330295D01*
X65090129Y-67330295D01*
X65323915Y-67039640D01*
X65569788Y-66780645D01*
X65587109Y-66856452D01*
X65642659Y-66980517D01*
X65814732Y-67226262D01*
X66328341Y-66866630D01*
X66316869Y-66850247D01*
X66420902Y-66777403D01*
X66432373Y-66793786D01*
X66448756Y-66782314D01*
X66521600Y-66886347D01*
X66505217Y-66897818D01*
X67007803Y-67615584D01*
X67112159Y-67578458D01*
X67137096Y-67552531D01*
X67209389Y-67437416D01*
X67257835Y-67310409D01*
X67280573Y-67176392D01*
X67276728Y-67040514D01*
X67260040Y-66967479D01*
X67367449Y-67011969D01*
X67486749Y-67035699D01*
X67608385Y-67035699D01*
X67727685Y-67011969D01*
X67840063Y-66965421D01*
X67941200Y-66897843D01*
X67952122Y-66886921D01*
X70296313Y-66886921D01*
X70296313Y-67028257D01*
X70323886Y-67166876D01*
X70377972Y-67297453D01*
X70456494Y-67414969D01*
X70556433Y-67514908D01*
X70673949Y-67593430D01*
X70804526Y-67647516D01*
X70943145Y-67675089D01*
X71084481Y-67675089D01*
X71223100Y-67647516D01*
X71353677Y-67593430D01*
X71471193Y-67514908D01*
X71571132Y-67414969D01*
X71649654Y-67297453D01*
X71703740Y-67166876D01*
X71719885Y-67085711D01*
X71770489Y-67095777D01*
X71911825Y-67095777D01*
X72050444Y-67068204D01*
X72181021Y-67014118D01*
X72298537Y-66935596D01*
X72398476Y-66835657D01*
X72476998Y-66718141D01*
X72531084Y-66587564D01*
X72558657Y-66448945D01*
X72558657Y-66307609D01*
X72531084Y-66168990D01*
X72476998Y-66038413D01*
X72398476Y-65920897D01*
X72298537Y-65820958D01*
X72265151Y-65798650D01*
X75362600Y-65798650D01*
X75678067Y-66249183D01*
X75775650Y-66343816D01*
X75889820Y-66417593D01*
X76016188Y-66467679D01*
X76149901Y-66492149D01*
X76285817Y-66490064D01*
X76418715Y-66461502D01*
X76451608Y-66446936D01*
X76522188Y-66361572D01*
X75876208Y-65439017D01*
X75362600Y-65798650D01*
X72265151Y-65798650D01*
X72181021Y-65742436D01*
X72050444Y-65688350D01*
X71911825Y-65660777D01*
X71770489Y-65660777D01*
X71631870Y-65688350D01*
X71501293Y-65742436D01*
X71383777Y-65820958D01*
X71283838Y-65920897D01*
X71205316Y-66038413D01*
X71151230Y-66168990D01*
X71135085Y-66250155D01*
X71084481Y-66240089D01*
X70943145Y-66240089D01*
X70804526Y-66267662D01*
X70673949Y-66321748D01*
X70556433Y-66400270D01*
X70456494Y-66500209D01*
X70377972Y-66617725D01*
X70323886Y-66748302D01*
X70296313Y-66886921D01*
X67952122Y-66886921D01*
X68027211Y-66811832D01*
X68094789Y-66710695D01*
X68141337Y-66598317D01*
X68165067Y-66479017D01*
X68165067Y-66357381D01*
X68141337Y-66238081D01*
X68094789Y-66125703D01*
X68027211Y-66024566D01*
X67941200Y-65938555D01*
X67840063Y-65870977D01*
X67727685Y-65824429D01*
X67608385Y-65800699D01*
X67486749Y-65800699D01*
X67367449Y-65824429D01*
X67255071Y-65870977D01*
X67153934Y-65938555D01*
X67067923Y-66024566D01*
X67000345Y-66125703D01*
X66953797Y-66238081D01*
X66930067Y-66357381D01*
X66930067Y-66411426D01*
X66773908Y-66188408D01*
X66676326Y-66093775D01*
X66562155Y-66019998D01*
X66435787Y-65969912D01*
X66353703Y-65954890D01*
X66625866Y-65668201D01*
X67506103Y-64881485D01*
X72145200Y-64881485D01*
X72145200Y-65003121D01*
X72168930Y-65122421D01*
X72215478Y-65234799D01*
X72283056Y-65335936D01*
X72369067Y-65421947D01*
X72470204Y-65489525D01*
X72582582Y-65536073D01*
X72701882Y-65559803D01*
X72823518Y-65559803D01*
X72942818Y-65536073D01*
X73055196Y-65489525D01*
X73156333Y-65421947D01*
X73242344Y-65335936D01*
X73309922Y-65234799D01*
X73356470Y-65122421D01*
X73380200Y-65003121D01*
X73380200Y-64881485D01*
X73374261Y-64851623D01*
X74884614Y-64851623D01*
X74888459Y-64987501D01*
X74918738Y-65120019D01*
X74974288Y-65244084D01*
X75289755Y-65694617D01*
X75758822Y-65366173D01*
X75980240Y-65366173D01*
X76626220Y-66288727D01*
X76730576Y-66251601D01*
X76755513Y-66225674D01*
X76827806Y-66110559D01*
X76876252Y-65983552D01*
X76898990Y-65849535D01*
X76895145Y-65713657D01*
X76864866Y-65581139D01*
X76809316Y-65457074D01*
X76493849Y-65006541D01*
X75980240Y-65366173D01*
X75758822Y-65366173D01*
X75803364Y-65334985D01*
X75157384Y-64412431D01*
X75053028Y-64449557D01*
X75028091Y-64475484D01*
X74955798Y-64590599D01*
X74907352Y-64717606D01*
X74884614Y-64851623D01*
X73374261Y-64851623D01*
X73356470Y-64762185D01*
X73309922Y-64649807D01*
X73242344Y-64548670D01*
X73156333Y-64462659D01*
X73055196Y-64395081D01*
X72942818Y-64348533D01*
X72897838Y-64339586D01*
X75261416Y-64339586D01*
X75907396Y-65262141D01*
X76384065Y-64928373D01*
X78749736Y-64928373D01*
X78749736Y-65050009D01*
X78773466Y-65169309D01*
X78820014Y-65281687D01*
X78887592Y-65382824D01*
X78973603Y-65468835D01*
X79074740Y-65536413D01*
X79187118Y-65582961D01*
X79306418Y-65606691D01*
X79424594Y-65606691D01*
X79424594Y-65703110D01*
X79448324Y-65822410D01*
X79494872Y-65934788D01*
X79562450Y-66035925D01*
X79648461Y-66121936D01*
X79749598Y-66189514D01*
X79861976Y-66236062D01*
X79981276Y-66259792D01*
X80102912Y-66259792D01*
X80222212Y-66236062D01*
X80334590Y-66189514D01*
X80435727Y-66121936D01*
X80521738Y-66035925D01*
X80589316Y-65934788D01*
X80635864Y-65822410D01*
X80659594Y-65703110D01*
X80659594Y-65581474D01*
X80635864Y-65462174D01*
X80589316Y-65349796D01*
X80521738Y-65248659D01*
X80435727Y-65162648D01*
X80334590Y-65095070D01*
X80222212Y-65048522D01*
X80102912Y-65024792D01*
X79984736Y-65024792D01*
X79984736Y-64928373D01*
X79961006Y-64809073D01*
X79914458Y-64696695D01*
X79846880Y-64595558D01*
X79760869Y-64509547D01*
X79659732Y-64441969D01*
X79547354Y-64395421D01*
X79428054Y-64371691D01*
X79306418Y-64371691D01*
X79187118Y-64395421D01*
X79074740Y-64441969D01*
X78973603Y-64509547D01*
X78887592Y-64595558D01*
X78820014Y-64696695D01*
X78773466Y-64809073D01*
X78749736Y-64928373D01*
X76384065Y-64928373D01*
X76421004Y-64902508D01*
X76206890Y-64596722D01*
X76322014Y-64573823D01*
X76434392Y-64527275D01*
X76535529Y-64459697D01*
X76621540Y-64373686D01*
X76689118Y-64272549D01*
X76735666Y-64160171D01*
X76759396Y-64040871D01*
X76759396Y-63919235D01*
X76748344Y-63863668D01*
X82780270Y-63863668D01*
X82780270Y-63985304D01*
X82804000Y-64104604D01*
X82850548Y-64216982D01*
X82918126Y-64318119D01*
X83004137Y-64404130D01*
X83105274Y-64471708D01*
X83217652Y-64518256D01*
X83336952Y-64541986D01*
X83458588Y-64541986D01*
X83577888Y-64518256D01*
X83690266Y-64471708D01*
X83791403Y-64404130D01*
X83877414Y-64318119D01*
X83944992Y-64216982D01*
X83991540Y-64104604D01*
X84015270Y-63985304D01*
X84015270Y-63863668D01*
X83991540Y-63744368D01*
X83944992Y-63631990D01*
X83877414Y-63530853D01*
X83791403Y-63444842D01*
X83690266Y-63377264D01*
X83577888Y-63330716D01*
X83458588Y-63306986D01*
X83336952Y-63306986D01*
X83217652Y-63330716D01*
X83105274Y-63377264D01*
X83004137Y-63444842D01*
X82918126Y-63530853D01*
X82850548Y-63631990D01*
X82804000Y-63744368D01*
X82780270Y-63863668D01*
X76748344Y-63863668D01*
X76735666Y-63799935D01*
X76689118Y-63687557D01*
X76621540Y-63586420D01*
X76535529Y-63500409D01*
X76434392Y-63432831D01*
X76322014Y-63386283D01*
X76202714Y-63362553D01*
X76081078Y-63362553D01*
X75961778Y-63386283D01*
X75849400Y-63432831D01*
X75748263Y-63500409D01*
X75662252Y-63586420D01*
X75594674Y-63687557D01*
X75548126Y-63799935D01*
X75524396Y-63919235D01*
X75524396Y-64040871D01*
X75548126Y-64160171D01*
X75568768Y-64210005D01*
X75497787Y-64211094D01*
X75364889Y-64239656D01*
X75331996Y-64254222D01*
X75261416Y-64339586D01*
X72897838Y-64339586D01*
X72823518Y-64324803D01*
X72701882Y-64324803D01*
X72582582Y-64348533D01*
X72470204Y-64395081D01*
X72369067Y-64462659D01*
X72283056Y-64548670D01*
X72215478Y-64649807D01*
X72168930Y-64762185D01*
X72145200Y-64881485D01*
X67506103Y-64881485D01*
X68035824Y-64408045D01*
X69544280Y-63267667D01*
X70952141Y-62374594D01*
X72965051Y-62374594D01*
X73137124Y-62620339D01*
X73234706Y-62714972D01*
X73348877Y-62788749D01*
X73475245Y-62838835D01*
X73608957Y-62863305D01*
X73744874Y-62861220D01*
X73877772Y-62832658D01*
X73910665Y-62818092D01*
X73981244Y-62732728D01*
X73478659Y-62014961D01*
X72965051Y-62374594D01*
X70952141Y-62374594D01*
X71141117Y-62254718D01*
X72670894Y-61451944D01*
X72653197Y-61498338D01*
X72630459Y-61632355D01*
X72634304Y-61768233D01*
X72664583Y-61900751D01*
X72720133Y-62024816D01*
X72892206Y-62270561D01*
X73361273Y-61942117D01*
X73582691Y-61942117D01*
X74085277Y-62659883D01*
X74189633Y-62622757D01*
X74214570Y-62596830D01*
X74286863Y-62481715D01*
X74335309Y-62354708D01*
X74358047Y-62220691D01*
X74354202Y-62084813D01*
X74323923Y-61952295D01*
X74268373Y-61828230D01*
X74096300Y-61582485D01*
X73582691Y-61942117D01*
X73361273Y-61942117D01*
X73405815Y-61910929D01*
X73394343Y-61894546D01*
X73498376Y-61821702D01*
X73509847Y-61838085D01*
X74023455Y-61478452D01*
X73851382Y-61232707D01*
X73753800Y-61138074D01*
X73639629Y-61064297D01*
X73593469Y-61046002D01*
X74556406Y-60637479D01*
X75446520Y-60343293D01*
X75434094Y-60405761D01*
X75434094Y-60527397D01*
X75457824Y-60646697D01*
X75504372Y-60759075D01*
X75571950Y-60860212D01*
X75598725Y-60886987D01*
X75467709Y-60886987D01*
X75251810Y-60929932D01*
X75048438Y-61014171D01*
X74865408Y-61136468D01*
X74709754Y-61292122D01*
X74587457Y-61475152D01*
X74503218Y-61678524D01*
X74460273Y-61894423D01*
X74460273Y-62114551D01*
X74503218Y-62330450D01*
X74587457Y-62533822D01*
X74709754Y-62716852D01*
X74865408Y-62872506D01*
X75048438Y-62994803D01*
X75251810Y-63079042D01*
X75467709Y-63121987D01*
X75687837Y-63121987D01*
X75903736Y-63079042D01*
X76107108Y-62994803D01*
X76290138Y-62872506D01*
X76445792Y-62716852D01*
X76568089Y-62533822D01*
X76652328Y-62330450D01*
X76695273Y-62114551D01*
X76695273Y-61894423D01*
X76652328Y-61678524D01*
X76568089Y-61475152D01*
X76486915Y-61353666D01*
X82590273Y-61353666D01*
X82590273Y-61475302D01*
X82614003Y-61594602D01*
X82660551Y-61706980D01*
X82728129Y-61808117D01*
X82814140Y-61894128D01*
X82891143Y-61945580D01*
X82860356Y-61976367D01*
X82792778Y-62077504D01*
X82746230Y-62189882D01*
X82722500Y-62309182D01*
X82722500Y-62430818D01*
X82746230Y-62550118D01*
X82792778Y-62662496D01*
X82860356Y-62763633D01*
X82946367Y-62849644D01*
X83047504Y-62917222D01*
X83159882Y-62963770D01*
X83279182Y-62987500D01*
X83400818Y-62987500D01*
X83520118Y-62963770D01*
X83632496Y-62917222D01*
X83733633Y-62849644D01*
X83819644Y-62763633D01*
X83887222Y-62662496D01*
X83933770Y-62550118D01*
X83957500Y-62430818D01*
X83957500Y-62309182D01*
X83933770Y-62189882D01*
X83887222Y-62077504D01*
X83819644Y-61976367D01*
X83733633Y-61890356D01*
X83656630Y-61838904D01*
X83687417Y-61808117D01*
X83754995Y-61706980D01*
X83801543Y-61594602D01*
X83825273Y-61475302D01*
X83825273Y-61353666D01*
X83801543Y-61234366D01*
X83754995Y-61121988D01*
X83687417Y-61020851D01*
X83601406Y-60934840D01*
X83500269Y-60867262D01*
X83387891Y-60820714D01*
X83268591Y-60796984D01*
X83146955Y-60796984D01*
X83027655Y-60820714D01*
X82915277Y-60867262D01*
X82814140Y-60934840D01*
X82728129Y-61020851D01*
X82660551Y-61121988D01*
X82614003Y-61234366D01*
X82590273Y-61353666D01*
X76486915Y-61353666D01*
X76445792Y-61292122D01*
X76290138Y-61136468D01*
X76188948Y-61068855D01*
X76231712Y-61060349D01*
X76344090Y-61013801D01*
X76445227Y-60946223D01*
X76531238Y-60860212D01*
X76598816Y-60759075D01*
X76645364Y-60646697D01*
X76669094Y-60527397D01*
X76669094Y-60405761D01*
X76645364Y-60286461D01*
X76598816Y-60174083D01*
X76531238Y-60072946D01*
X76473066Y-60014774D01*
X78189975Y-59599761D01*
X78911211Y-59486961D01*
X78904001Y-59504368D01*
X78880271Y-59623668D01*
X78880271Y-59745304D01*
X78904001Y-59864604D01*
X78950549Y-59976982D01*
X79018127Y-60078119D01*
X79104138Y-60164130D01*
X79205275Y-60231708D01*
X79317653Y-60278256D01*
X79436953Y-60301986D01*
X79558589Y-60301986D01*
X79677889Y-60278256D01*
X79790267Y-60231708D01*
X79891404Y-60164130D01*
X79977415Y-60078119D01*
X80044993Y-59976982D01*
X80091541Y-59864604D01*
X80115271Y-59745304D01*
X80115271Y-59623668D01*
X80091541Y-59504368D01*
X80044993Y-59391990D01*
X79995175Y-59317432D01*
X80058275Y-59307563D01*
X81944247Y-59169433D01*
X83835177Y-59186301D01*
G37*
X83835177Y-59186301D02*
X85714245Y-59357676D01*
X85667411Y-60838894D01*
X85666772Y-60841914D01*
X85666425Y-60870083D01*
X85666028Y-60882647D01*
X85666233Y-60885719D01*
X85666002Y-60904466D01*
X85668309Y-60916857D01*
X85669147Y-60929431D01*
X85674020Y-60947538D01*
X85677451Y-60965967D01*
X85682128Y-60977664D01*
X85685405Y-60989839D01*
X85693720Y-61006653D01*
X85700678Y-61024053D01*
X85707548Y-61034614D01*
X85713137Y-61045915D01*
X85724569Y-61060778D01*
X85734790Y-61076491D01*
X85743591Y-61085512D01*
X85751275Y-61095502D01*
X85765382Y-61107846D01*
X85778477Y-61121267D01*
X85788872Y-61128399D01*
X85798354Y-61136696D01*
X85814601Y-61146052D01*
X85830060Y-61156659D01*
X85841639Y-61161623D01*
X85852565Y-61167915D01*
X85870332Y-61173924D01*
X85873155Y-61175134D01*
X85885114Y-61178923D01*
X85911826Y-61187957D01*
X85914889Y-61188357D01*
X87577975Y-61715281D01*
X87578179Y-64220121D01*
X80876276Y-66673439D01*
X80871883Y-66675556D01*
X79323057Y-67297094D01*
X79322520Y-67297333D01*
X79321980Y-67297529D01*
X79303237Y-67305844D01*
X78777494Y-67559715D01*
X78777494Y-67475996D01*
X78753764Y-67356696D01*
X78707216Y-67244318D01*
X78639638Y-67143181D01*
X78553627Y-67057170D01*
X78452490Y-66989592D01*
X78340112Y-66943044D01*
X78220812Y-66919314D01*
X78099176Y-66919314D01*
X77979876Y-66943044D01*
X77867498Y-66989592D01*
X77766361Y-67057170D01*
X77680350Y-67143181D01*
X77612772Y-67244318D01*
X77566224Y-67356696D01*
X77542494Y-67475996D01*
X77542494Y-67597632D01*
X77566224Y-67716932D01*
X77612772Y-67829310D01*
X77680350Y-67930447D01*
X77766361Y-68016458D01*
X77793737Y-68034750D01*
X77455302Y-68198174D01*
X77453834Y-68198952D01*
X77452314Y-68199636D01*
X77434248Y-68209334D01*
X75658421Y-69237707D01*
X75657008Y-69238597D01*
X75655552Y-69239389D01*
X75638263Y-69250414D01*
X73944540Y-70409043D01*
X73943203Y-70410033D01*
X73941805Y-70410935D01*
X73925482Y-70423157D01*
X73925391Y-70423225D01*
X73925378Y-70423236D01*
X72520782Y-71547522D01*
X72475083Y-71437195D01*
X72407505Y-71336058D01*
X72321494Y-71250047D01*
X72220357Y-71182469D01*
X72107979Y-71135921D01*
X71988679Y-71112191D01*
X71867043Y-71112191D01*
X71747743Y-71135921D01*
X71635365Y-71182469D01*
X71534228Y-71250047D01*
X71448217Y-71336058D01*
X71380639Y-71437195D01*
X71377246Y-71445386D01*
X71303615Y-71414887D01*
X71184315Y-71391157D01*
X71062679Y-71391157D01*
X70943379Y-71414887D01*
X70831001Y-71461435D01*
X70729864Y-71529013D01*
X70643853Y-71615024D01*
X70576275Y-71716161D01*
X70529727Y-71828539D01*
X70505997Y-71947839D01*
X70505997Y-72069475D01*
X70529727Y-72188775D01*
X70559278Y-72260117D01*
X70558889Y-72260117D01*
X70439589Y-72283847D01*
X70327211Y-72330395D01*
X70226074Y-72397973D01*
X70148693Y-72475354D01*
X70076600Y-72427183D01*
X69964222Y-72380635D01*
X69844922Y-72356905D01*
X69723286Y-72356905D01*
X69603986Y-72380635D01*
X69491608Y-72427183D01*
X69390471Y-72494761D01*
X69304460Y-72580772D01*
X69236882Y-72681909D01*
X69190334Y-72794287D01*
X69166604Y-72913587D01*
X69166604Y-73035223D01*
X69190334Y-73154523D01*
X69236882Y-73266901D01*
X69304460Y-73368038D01*
X69390471Y-73454049D01*
X69491608Y-73521627D01*
X69603986Y-73568175D01*
X69723286Y-73591905D01*
X69844922Y-73591905D01*
X69964222Y-73568175D01*
X70076600Y-73521627D01*
X70177737Y-73454049D01*
X70255118Y-73376668D01*
X70327211Y-73424839D01*
X70439589Y-73471387D01*
X70472154Y-73477865D01*
X69511476Y-74518030D01*
X66206625Y-73957599D01*
X66172997Y-73948448D01*
X66155785Y-73939895D01*
X66140555Y-73928156D01*
X66127896Y-73913684D01*
X66118290Y-73897030D01*
X66112101Y-73878823D01*
X66109566Y-73859766D01*
X66110782Y-73840576D01*
X66115701Y-73821989D01*
X66127193Y-73798451D01*
X66139197Y-73781134D01*
X66139225Y-73781083D01*
X66139869Y-73780161D01*
X66275080Y-73583544D01*
X66285957Y-73563852D01*
X66297870Y-73544786D01*
X66299814Y-73540801D01*
X66473600Y-73178036D01*
X66483460Y-73150942D01*
X66493663Y-73124079D01*
X66494796Y-73119792D01*
X66594810Y-72730182D01*
X66599218Y-72701699D01*
X66604010Y-72673357D01*
X66604289Y-72668932D01*
X66626724Y-72267316D01*
X66625516Y-72238511D01*
X66624712Y-72209784D01*
X66624126Y-72205399D01*
X66624126Y-72205390D01*
X66624124Y-72205382D01*
X66623990Y-72204422D01*
X66940273Y-72204422D01*
X66940273Y-72424550D01*
X66983218Y-72640449D01*
X67067457Y-72843821D01*
X67189754Y-73026851D01*
X67345408Y-73182505D01*
X67528438Y-73304802D01*
X67731810Y-73389041D01*
X67947709Y-73431986D01*
X68167837Y-73431986D01*
X68383736Y-73389041D01*
X68587108Y-73304802D01*
X68770138Y-73182505D01*
X68925792Y-73026851D01*
X69048089Y-72843821D01*
X69132328Y-72640449D01*
X69175273Y-72424550D01*
X69175273Y-72204422D01*
X69132328Y-71988523D01*
X69048089Y-71785151D01*
X68925792Y-71602121D01*
X68770138Y-71446467D01*
X68587108Y-71324170D01*
X68383736Y-71239931D01*
X68167837Y-71196986D01*
X67947709Y-71196986D01*
X67731810Y-71239931D01*
X67528438Y-71324170D01*
X67345408Y-71446467D01*
X67189754Y-71602121D01*
X67067457Y-71785151D01*
X66983218Y-71988523D01*
X66940273Y-72204422D01*
X66623990Y-72204422D01*
X66568124Y-71807064D01*
X66561355Y-71779090D01*
X66554976Y-71751020D01*
X66553547Y-71746822D01*
X66421244Y-71366960D01*
X66409168Y-71340829D01*
X66397461Y-71314537D01*
X66395244Y-71310697D01*
X66192229Y-70964704D01*
X66183856Y-70950420D01*
X66041389Y-70754350D01*
X68285126Y-70754350D01*
X68600593Y-71204883D01*
X68698176Y-71299516D01*
X68812346Y-71373293D01*
X68938714Y-71423379D01*
X69072427Y-71447849D01*
X69208343Y-71445764D01*
X69341241Y-71417202D01*
X69374134Y-71402636D01*
X69444714Y-71317272D01*
X68798734Y-70394717D01*
X68285126Y-70754350D01*
X66041389Y-70754350D01*
X65353263Y-69807323D01*
X67807140Y-69807323D01*
X67810985Y-69943201D01*
X67841264Y-70075719D01*
X67896814Y-70199784D01*
X68212281Y-70650317D01*
X68681348Y-70321873D01*
X68902766Y-70321873D01*
X69548746Y-71244427D01*
X69653102Y-71207301D01*
X69678039Y-71181374D01*
X69750332Y-71066259D01*
X69798778Y-70939252D01*
X69821516Y-70805235D01*
X69817671Y-70669357D01*
X69787392Y-70536839D01*
X69731842Y-70412774D01*
X69416375Y-69962241D01*
X68902766Y-70321873D01*
X68681348Y-70321873D01*
X68725890Y-70290685D01*
X68079910Y-69368131D01*
X67975554Y-69405257D01*
X67950617Y-69431184D01*
X67878324Y-69546299D01*
X67829878Y-69673306D01*
X67807140Y-69807323D01*
X65353263Y-69807323D01*
X64631463Y-68813954D01*
X64700793Y-68827744D01*
X64822429Y-68827744D01*
X64941729Y-68804014D01*
X65054107Y-68757466D01*
X65155244Y-68689888D01*
X65241255Y-68603877D01*
X65244211Y-68599452D01*
X68121542Y-68599452D01*
X68121542Y-68721088D01*
X68145272Y-68840388D01*
X68191820Y-68952766D01*
X68259398Y-69053903D01*
X68345409Y-69139914D01*
X68394076Y-69172433D01*
X68287415Y-69195356D01*
X68254522Y-69209922D01*
X68183942Y-69295286D01*
X68829922Y-70217841D01*
X69343530Y-69858208D01*
X69028063Y-69407675D01*
X68930480Y-69313042D01*
X68858000Y-69266205D01*
X68919160Y-69254040D01*
X69031538Y-69207492D01*
X69132675Y-69139914D01*
X69218686Y-69053903D01*
X69286264Y-68952766D01*
X69332812Y-68840388D01*
X69356542Y-68721088D01*
X69356542Y-68599452D01*
X69332812Y-68480152D01*
X69286264Y-68367774D01*
X69218686Y-68266637D01*
X69132675Y-68180626D01*
X69031538Y-68113048D01*
X68919160Y-68066500D01*
X68799860Y-68042770D01*
X68678224Y-68042770D01*
X68558924Y-68066500D01*
X68446546Y-68113048D01*
X68345409Y-68180626D01*
X68259398Y-68266637D01*
X68191820Y-68367774D01*
X68145272Y-68480152D01*
X68121542Y-68599452D01*
X65244211Y-68599452D01*
X65308833Y-68502740D01*
X65355381Y-68390362D01*
X65379111Y-68271062D01*
X65379111Y-68149426D01*
X65355381Y-68030126D01*
X65308833Y-67917748D01*
X65241255Y-67816611D01*
X65155244Y-67730600D01*
X65054107Y-67663022D01*
X64941729Y-67616474D01*
X64871225Y-67602450D01*
X65090129Y-67330295D01*
X65887577Y-67330295D01*
X66059650Y-67576040D01*
X66157232Y-67670673D01*
X66271403Y-67744450D01*
X66397771Y-67794536D01*
X66531483Y-67819006D01*
X66667400Y-67816921D01*
X66800298Y-67788359D01*
X66833191Y-67773793D01*
X66903770Y-67688429D01*
X66401185Y-66970662D01*
X65887577Y-67330295D01*
X65090129Y-67330295D01*
X65323915Y-67039640D01*
X65569788Y-66780645D01*
X65587109Y-66856452D01*
X65642659Y-66980517D01*
X65814732Y-67226262D01*
X66328341Y-66866630D01*
X66316869Y-66850247D01*
X66420902Y-66777403D01*
X66432373Y-66793786D01*
X66448756Y-66782314D01*
X66521600Y-66886347D01*
X66505217Y-66897818D01*
X67007803Y-67615584D01*
X67112159Y-67578458D01*
X67137096Y-67552531D01*
X67209389Y-67437416D01*
X67257835Y-67310409D01*
X67280573Y-67176392D01*
X67276728Y-67040514D01*
X67260040Y-66967479D01*
X67367449Y-67011969D01*
X67486749Y-67035699D01*
X67608385Y-67035699D01*
X67727685Y-67011969D01*
X67840063Y-66965421D01*
X67941200Y-66897843D01*
X67952122Y-66886921D01*
X70296313Y-66886921D01*
X70296313Y-67028257D01*
X70323886Y-67166876D01*
X70377972Y-67297453D01*
X70456494Y-67414969D01*
X70556433Y-67514908D01*
X70673949Y-67593430D01*
X70804526Y-67647516D01*
X70943145Y-67675089D01*
X71084481Y-67675089D01*
X71223100Y-67647516D01*
X71353677Y-67593430D01*
X71471193Y-67514908D01*
X71571132Y-67414969D01*
X71649654Y-67297453D01*
X71703740Y-67166876D01*
X71719885Y-67085711D01*
X71770489Y-67095777D01*
X71911825Y-67095777D01*
X72050444Y-67068204D01*
X72181021Y-67014118D01*
X72298537Y-66935596D01*
X72398476Y-66835657D01*
X72476998Y-66718141D01*
X72531084Y-66587564D01*
X72558657Y-66448945D01*
X72558657Y-66307609D01*
X72531084Y-66168990D01*
X72476998Y-66038413D01*
X72398476Y-65920897D01*
X72298537Y-65820958D01*
X72265151Y-65798650D01*
X75362600Y-65798650D01*
X75678067Y-66249183D01*
X75775650Y-66343816D01*
X75889820Y-66417593D01*
X76016188Y-66467679D01*
X76149901Y-66492149D01*
X76285817Y-66490064D01*
X76418715Y-66461502D01*
X76451608Y-66446936D01*
X76522188Y-66361572D01*
X75876208Y-65439017D01*
X75362600Y-65798650D01*
X72265151Y-65798650D01*
X72181021Y-65742436D01*
X72050444Y-65688350D01*
X71911825Y-65660777D01*
X71770489Y-65660777D01*
X71631870Y-65688350D01*
X71501293Y-65742436D01*
X71383777Y-65820958D01*
X71283838Y-65920897D01*
X71205316Y-66038413D01*
X71151230Y-66168990D01*
X71135085Y-66250155D01*
X71084481Y-66240089D01*
X70943145Y-66240089D01*
X70804526Y-66267662D01*
X70673949Y-66321748D01*
X70556433Y-66400270D01*
X70456494Y-66500209D01*
X70377972Y-66617725D01*
X70323886Y-66748302D01*
X70296313Y-66886921D01*
X67952122Y-66886921D01*
X68027211Y-66811832D01*
X68094789Y-66710695D01*
X68141337Y-66598317D01*
X68165067Y-66479017D01*
X68165067Y-66357381D01*
X68141337Y-66238081D01*
X68094789Y-66125703D01*
X68027211Y-66024566D01*
X67941200Y-65938555D01*
X67840063Y-65870977D01*
X67727685Y-65824429D01*
X67608385Y-65800699D01*
X67486749Y-65800699D01*
X67367449Y-65824429D01*
X67255071Y-65870977D01*
X67153934Y-65938555D01*
X67067923Y-66024566D01*
X67000345Y-66125703D01*
X66953797Y-66238081D01*
X66930067Y-66357381D01*
X66930067Y-66411426D01*
X66773908Y-66188408D01*
X66676326Y-66093775D01*
X66562155Y-66019998D01*
X66435787Y-65969912D01*
X66353703Y-65954890D01*
X66625866Y-65668201D01*
X67506103Y-64881485D01*
X72145200Y-64881485D01*
X72145200Y-65003121D01*
X72168930Y-65122421D01*
X72215478Y-65234799D01*
X72283056Y-65335936D01*
X72369067Y-65421947D01*
X72470204Y-65489525D01*
X72582582Y-65536073D01*
X72701882Y-65559803D01*
X72823518Y-65559803D01*
X72942818Y-65536073D01*
X73055196Y-65489525D01*
X73156333Y-65421947D01*
X73242344Y-65335936D01*
X73309922Y-65234799D01*
X73356470Y-65122421D01*
X73380200Y-65003121D01*
X73380200Y-64881485D01*
X73374261Y-64851623D01*
X74884614Y-64851623D01*
X74888459Y-64987501D01*
X74918738Y-65120019D01*
X74974288Y-65244084D01*
X75289755Y-65694617D01*
X75758822Y-65366173D01*
X75980240Y-65366173D01*
X76626220Y-66288727D01*
X76730576Y-66251601D01*
X76755513Y-66225674D01*
X76827806Y-66110559D01*
X76876252Y-65983552D01*
X76898990Y-65849535D01*
X76895145Y-65713657D01*
X76864866Y-65581139D01*
X76809316Y-65457074D01*
X76493849Y-65006541D01*
X75980240Y-65366173D01*
X75758822Y-65366173D01*
X75803364Y-65334985D01*
X75157384Y-64412431D01*
X75053028Y-64449557D01*
X75028091Y-64475484D01*
X74955798Y-64590599D01*
X74907352Y-64717606D01*
X74884614Y-64851623D01*
X73374261Y-64851623D01*
X73356470Y-64762185D01*
X73309922Y-64649807D01*
X73242344Y-64548670D01*
X73156333Y-64462659D01*
X73055196Y-64395081D01*
X72942818Y-64348533D01*
X72897838Y-64339586D01*
X75261416Y-64339586D01*
X75907396Y-65262141D01*
X76384065Y-64928373D01*
X78749736Y-64928373D01*
X78749736Y-65050009D01*
X78773466Y-65169309D01*
X78820014Y-65281687D01*
X78887592Y-65382824D01*
X78973603Y-65468835D01*
X79074740Y-65536413D01*
X79187118Y-65582961D01*
X79306418Y-65606691D01*
X79424594Y-65606691D01*
X79424594Y-65703110D01*
X79448324Y-65822410D01*
X79494872Y-65934788D01*
X79562450Y-66035925D01*
X79648461Y-66121936D01*
X79749598Y-66189514D01*
X79861976Y-66236062D01*
X79981276Y-66259792D01*
X80102912Y-66259792D01*
X80222212Y-66236062D01*
X80334590Y-66189514D01*
X80435727Y-66121936D01*
X80521738Y-66035925D01*
X80589316Y-65934788D01*
X80635864Y-65822410D01*
X80659594Y-65703110D01*
X80659594Y-65581474D01*
X80635864Y-65462174D01*
X80589316Y-65349796D01*
X80521738Y-65248659D01*
X80435727Y-65162648D01*
X80334590Y-65095070D01*
X80222212Y-65048522D01*
X80102912Y-65024792D01*
X79984736Y-65024792D01*
X79984736Y-64928373D01*
X79961006Y-64809073D01*
X79914458Y-64696695D01*
X79846880Y-64595558D01*
X79760869Y-64509547D01*
X79659732Y-64441969D01*
X79547354Y-64395421D01*
X79428054Y-64371691D01*
X79306418Y-64371691D01*
X79187118Y-64395421D01*
X79074740Y-64441969D01*
X78973603Y-64509547D01*
X78887592Y-64595558D01*
X78820014Y-64696695D01*
X78773466Y-64809073D01*
X78749736Y-64928373D01*
X76384065Y-64928373D01*
X76421004Y-64902508D01*
X76206890Y-64596722D01*
X76322014Y-64573823D01*
X76434392Y-64527275D01*
X76535529Y-64459697D01*
X76621540Y-64373686D01*
X76689118Y-64272549D01*
X76735666Y-64160171D01*
X76759396Y-64040871D01*
X76759396Y-63919235D01*
X76748344Y-63863668D01*
X82780270Y-63863668D01*
X82780270Y-63985304D01*
X82804000Y-64104604D01*
X82850548Y-64216982D01*
X82918126Y-64318119D01*
X83004137Y-64404130D01*
X83105274Y-64471708D01*
X83217652Y-64518256D01*
X83336952Y-64541986D01*
X83458588Y-64541986D01*
X83577888Y-64518256D01*
X83690266Y-64471708D01*
X83791403Y-64404130D01*
X83877414Y-64318119D01*
X83944992Y-64216982D01*
X83991540Y-64104604D01*
X84015270Y-63985304D01*
X84015270Y-63863668D01*
X83991540Y-63744368D01*
X83944992Y-63631990D01*
X83877414Y-63530853D01*
X83791403Y-63444842D01*
X83690266Y-63377264D01*
X83577888Y-63330716D01*
X83458588Y-63306986D01*
X83336952Y-63306986D01*
X83217652Y-63330716D01*
X83105274Y-63377264D01*
X83004137Y-63444842D01*
X82918126Y-63530853D01*
X82850548Y-63631990D01*
X82804000Y-63744368D01*
X82780270Y-63863668D01*
X76748344Y-63863668D01*
X76735666Y-63799935D01*
X76689118Y-63687557D01*
X76621540Y-63586420D01*
X76535529Y-63500409D01*
X76434392Y-63432831D01*
X76322014Y-63386283D01*
X76202714Y-63362553D01*
X76081078Y-63362553D01*
X75961778Y-63386283D01*
X75849400Y-63432831D01*
X75748263Y-63500409D01*
X75662252Y-63586420D01*
X75594674Y-63687557D01*
X75548126Y-63799935D01*
X75524396Y-63919235D01*
X75524396Y-64040871D01*
X75548126Y-64160171D01*
X75568768Y-64210005D01*
X75497787Y-64211094D01*
X75364889Y-64239656D01*
X75331996Y-64254222D01*
X75261416Y-64339586D01*
X72897838Y-64339586D01*
X72823518Y-64324803D01*
X72701882Y-64324803D01*
X72582582Y-64348533D01*
X72470204Y-64395081D01*
X72369067Y-64462659D01*
X72283056Y-64548670D01*
X72215478Y-64649807D01*
X72168930Y-64762185D01*
X72145200Y-64881485D01*
X67506103Y-64881485D01*
X68035824Y-64408045D01*
X69544280Y-63267667D01*
X70952141Y-62374594D01*
X72965051Y-62374594D01*
X73137124Y-62620339D01*
X73234706Y-62714972D01*
X73348877Y-62788749D01*
X73475245Y-62838835D01*
X73608957Y-62863305D01*
X73744874Y-62861220D01*
X73877772Y-62832658D01*
X73910665Y-62818092D01*
X73981244Y-62732728D01*
X73478659Y-62014961D01*
X72965051Y-62374594D01*
X70952141Y-62374594D01*
X71141117Y-62254718D01*
X72670894Y-61451944D01*
X72653197Y-61498338D01*
X72630459Y-61632355D01*
X72634304Y-61768233D01*
X72664583Y-61900751D01*
X72720133Y-62024816D01*
X72892206Y-62270561D01*
X73361273Y-61942117D01*
X73582691Y-61942117D01*
X74085277Y-62659883D01*
X74189633Y-62622757D01*
X74214570Y-62596830D01*
X74286863Y-62481715D01*
X74335309Y-62354708D01*
X74358047Y-62220691D01*
X74354202Y-62084813D01*
X74323923Y-61952295D01*
X74268373Y-61828230D01*
X74096300Y-61582485D01*
X73582691Y-61942117D01*
X73361273Y-61942117D01*
X73405815Y-61910929D01*
X73394343Y-61894546D01*
X73498376Y-61821702D01*
X73509847Y-61838085D01*
X74023455Y-61478452D01*
X73851382Y-61232707D01*
X73753800Y-61138074D01*
X73639629Y-61064297D01*
X73593469Y-61046002D01*
X74556406Y-60637479D01*
X75446520Y-60343293D01*
X75434094Y-60405761D01*
X75434094Y-60527397D01*
X75457824Y-60646697D01*
X75504372Y-60759075D01*
X75571950Y-60860212D01*
X75598725Y-60886987D01*
X75467709Y-60886987D01*
X75251810Y-60929932D01*
X75048438Y-61014171D01*
X74865408Y-61136468D01*
X74709754Y-61292122D01*
X74587457Y-61475152D01*
X74503218Y-61678524D01*
X74460273Y-61894423D01*
X74460273Y-62114551D01*
X74503218Y-62330450D01*
X74587457Y-62533822D01*
X74709754Y-62716852D01*
X74865408Y-62872506D01*
X75048438Y-62994803D01*
X75251810Y-63079042D01*
X75467709Y-63121987D01*
X75687837Y-63121987D01*
X75903736Y-63079042D01*
X76107108Y-62994803D01*
X76290138Y-62872506D01*
X76445792Y-62716852D01*
X76568089Y-62533822D01*
X76652328Y-62330450D01*
X76695273Y-62114551D01*
X76695273Y-61894423D01*
X76652328Y-61678524D01*
X76568089Y-61475152D01*
X76486915Y-61353666D01*
X82590273Y-61353666D01*
X82590273Y-61475302D01*
X82614003Y-61594602D01*
X82660551Y-61706980D01*
X82728129Y-61808117D01*
X82814140Y-61894128D01*
X82891143Y-61945580D01*
X82860356Y-61976367D01*
X82792778Y-62077504D01*
X82746230Y-62189882D01*
X82722500Y-62309182D01*
X82722500Y-62430818D01*
X82746230Y-62550118D01*
X82792778Y-62662496D01*
X82860356Y-62763633D01*
X82946367Y-62849644D01*
X83047504Y-62917222D01*
X83159882Y-62963770D01*
X83279182Y-62987500D01*
X83400818Y-62987500D01*
X83520118Y-62963770D01*
X83632496Y-62917222D01*
X83733633Y-62849644D01*
X83819644Y-62763633D01*
X83887222Y-62662496D01*
X83933770Y-62550118D01*
X83957500Y-62430818D01*
X83957500Y-62309182D01*
X83933770Y-62189882D01*
X83887222Y-62077504D01*
X83819644Y-61976367D01*
X83733633Y-61890356D01*
X83656630Y-61838904D01*
X83687417Y-61808117D01*
X83754995Y-61706980D01*
X83801543Y-61594602D01*
X83825273Y-61475302D01*
X83825273Y-61353666D01*
X83801543Y-61234366D01*
X83754995Y-61121988D01*
X83687417Y-61020851D01*
X83601406Y-60934840D01*
X83500269Y-60867262D01*
X83387891Y-60820714D01*
X83268591Y-60796984D01*
X83146955Y-60796984D01*
X83027655Y-60820714D01*
X82915277Y-60867262D01*
X82814140Y-60934840D01*
X82728129Y-61020851D01*
X82660551Y-61121988D01*
X82614003Y-61234366D01*
X82590273Y-61353666D01*
X76486915Y-61353666D01*
X76445792Y-61292122D01*
X76290138Y-61136468D01*
X76188948Y-61068855D01*
X76231712Y-61060349D01*
X76344090Y-61013801D01*
X76445227Y-60946223D01*
X76531238Y-60860212D01*
X76598816Y-60759075D01*
X76645364Y-60646697D01*
X76669094Y-60527397D01*
X76669094Y-60405761D01*
X76645364Y-60286461D01*
X76598816Y-60174083D01*
X76531238Y-60072946D01*
X76473066Y-60014774D01*
X78189975Y-59599761D01*
X78911211Y-59486961D01*
X78904001Y-59504368D01*
X78880271Y-59623668D01*
X78880271Y-59745304D01*
X78904001Y-59864604D01*
X78950549Y-59976982D01*
X79018127Y-60078119D01*
X79104138Y-60164130D01*
X79205275Y-60231708D01*
X79317653Y-60278256D01*
X79436953Y-60301986D01*
X79558589Y-60301986D01*
X79677889Y-60278256D01*
X79790267Y-60231708D01*
X79891404Y-60164130D01*
X79977415Y-60078119D01*
X80044993Y-59976982D01*
X80091541Y-59864604D01*
X80115271Y-59745304D01*
X80115271Y-59623668D01*
X80091541Y-59504368D01*
X80044993Y-59391990D01*
X79995175Y-59317432D01*
X80058275Y-59307563D01*
X81944247Y-59169433D01*
X83835177Y-59186301D01*
%TD*%
M02*
